<svg xmlns="http://www.w3.org/2000/svg" width="359.188" height="59.375" viewBox="0 0 359.188 59.375">
  <path id="Daily_Mail" data-name="Daily Mail" d="M-747.714-4499.989c-1.5-.325-.975-.545-.432-.658l.93-.04c4.538-.149,5.037-2.344,5.037-2.344,1.646-2.942-.9-3.441-.9-3.441-3.491-.5-7.281,2.344-7.281,2.344-8.478,3.79-14.911.648-14.911.648-6.583-2.544-5.734-7.431-5.734-7.431.149-6.333,4.138-8.827,4.138-8.827l-.249-19.6a1.184,1.184,0,0,0-.7-.647s-2.743-1.1-3.191-1.7a.531.531,0,0,1,.249-.848l6.334-4.189c.748-1.046,1.7,0,1.7,0s7.431,3.791,8.329,4.539c.947.748.448,1.246.448,1.246a2.07,2.07,0,0,1-1.2.7c-.849.149-.6.848-.6.848l-.1,17.7c3.491,3.44,6.782,1.6,6.782,1.6a1.419,1.419,0,0,0,1.1-1.5s.25-16.656.15-17.2a.641.641,0,0,0-.6-.6s-3.092-1.944-3.59-2.294c-.549-.349.05-.9.05-.9s5.237-3.641,5.985-4.339a1.116,1.116,0,0,1,1.346-.249s8.627,4.837,9.625,5.585.5,1,.5,1l-2.444,2.443a.805.805,0,0,0-.249.948l-.1,16.357c-.648,4.188-7.231,4.788-7.231,4.788-7.93.1-11.62-3.292-11.62-3.292a8.471,8.471,0,0,0-6.782-.6c-4.638,1.6-4.987,4.587-4.987,4.587-.15,2.145,2.245,3.192,2.245,3.192,2.942,1.9,7.231.7,7.231.7,3.64-1.247,9.275-3.142,9.275-3.142a16.745,16.745,0,0,1,6.334-.149,8.211,8.211,0,0,1,4.439,2.194,6.9,6.9,0,0,1,1.895,4.788c.149,5.885-7.082,7.879-7.082,7.879a12.042,12.042,0,0,1-2.337.264A3.015,3.015,0,0,1-747.714-4499.989Zm.149-.748s-.293.03-.581.09c-.661.027-1,.038-1.123.038C-749.7-4500.609-747.565-4500.737-747.565-4500.737Zm63.184-13.864a.46.46,0,0,1-.05.5,2.884,2.884,0,0,1-1.147-.3l-.05.25a.923.923,0,0,1-.848-.3,1.234,1.234,0,0,0-.648-.449s.2.5-.149.5a.4.4,0,0,1,.3.3,1.5,1.5,0,0,1-1.247-.049s-.6-.5-.947-.349c0,0,.2.149-.1.4a4.816,4.816,0,0,1-3.242-.8s.3.5-.1.5a3.81,3.81,0,0,1-1.895-.548l-1.447,1.2-1.7-1.347-.249-.149-.15-.648a2.8,2.8,0,0,0,.15.9l-.1.6a.953.953,0,0,1-1.2.449.627.627,0,0,0-.7-.5,1.108,1.108,0,0,1-.5-.449s-.549-.7.4-1.1a1.265,1.265,0,0,1-.8-.3l-.149.6-.15-.25a2.422,2.422,0,0,1-.349,1.845,7.856,7.856,0,0,1-.848-.449l-.149.249-.2-.3a1.473,1.473,0,0,1-1.1-.3,1.874,1.874,0,0,1-.648.9l-.2-.3-.15.15a1.391,1.391,0,0,1-.7-.5,3.478,3.478,0,0,1-1.346.5l.3-.6s-.948.9-1.8.6c0,0-.1.049-.3-.25,0,0-2.743.3-5.835.449-1.8.05-3.74.1-5.286,0a9.99,9.99,0,0,1-2.145-.3,2.3,2.3,0,0,1-1.346-1.146l.05-.748a3.639,3.639,0,0,0-1.646-.149s.1.9-.3,1.147a3.2,3.2,0,0,1-.149.748h-.3s-.15-.4-.4-.5l-.4.05-.05.848-.35-.05s-.149-.5-.5-.4h-.3a3.039,3.039,0,0,1-1.646-1.646h-.548v1.247s-.8.2-1.3-1.048l.3-3.341s-.3-1.247,1.845-1.147l.349-1.1.25-.6s0-.449.549-.4a3.175,3.175,0,0,0,1.6.15,5.053,5.053,0,0,1,1.1-2.195s-3.491.749-4.687,1.646a3.029,3.029,0,0,1-.849.947s-1.346-.648-.449-2.393c0,0-1-.25-.9-2.046a5.034,5.034,0,0,1,1.545-2.842,7.865,7.865,0,0,1,2.244-1.4,3.052,3.052,0,0,1,1.1-1.4s.549-.45,2.643-.25l.4-.1a3.76,3.76,0,0,1-.4,1.6,32.913,32.913,0,0,0,8.378-.249s1.247-.051,1.346-1.746a1.084,1.084,0,0,0-1.5-.7,11.419,11.419,0,0,0-1.9.947,5.293,5.293,0,0,1-4.188.05,5.257,5.257,0,0,1-2.245-2.792,9.778,9.778,0,0,0,2.594.748,9.013,9.013,0,0,1-1.4-1.4,2.448,2.448,0,0,1,2.094.4,1.683,1.683,0,0,0,1.247.4s-.648-.947-.6-1.247a10.475,10.475,0,0,0,2.294.349,5.737,5.737,0,0,1,2.344.149,3.328,3.328,0,0,1,2.643,2.194,3.284,3.284,0,0,1-.947,3.441s-.549.549-2.942,1c-.2.049-.4.049-.649.1l-6.931.3s.349.4.349.648a1,1,0,0,0,.3.648,1.446,1.446,0,0,1-.748.1l-.05.2a2.454,2.454,0,0,1-1.646-.549,8.291,8.291,0,0,0-1.3-.947,3.2,3.2,0,0,0-2,1.6s-.5,1.046.15,1.445c0,0,.7.848,3.391.05,0,0,2.144-.648,3.49-1,0,0,3.84-1.247,5.785-1.7a15.419,15.419,0,0,0,2.344-.9,8.612,8.612,0,0,0,2.443-1.795,4.326,4.326,0,0,1-.149-2.743s-.3,0-.549-.449c0,0-.748-.6.05-1.5l-1-1.646s-.349-1,.548-1.1c0,0-.448-.848.5-.9,0,0-.35-1.1.748-.848l-.5-1.6,1.5-.6.449,1.446a.635.635,0,0,1,1.1,0,.587.587,0,0,1,1.048.2s.548-.548.847.3c0,0,.1.249.3.249l.05,2.045.149.249s1.1.947.35,1.9a3.778,3.778,0,0,1,.5,1.746s.8.7.349,2.644a4.253,4.253,0,0,0-.05,1.5.725.725,0,0,1-.6-.1l.1.249,1.5.449a63.377,63.377,0,0,0,3.84-5.087l-1.2-4.089a1.321,1.321,0,0,1,1.347-1.5s-.05-1.1,1.1-.748c0,0,0-1.546,1.4-.748a.87.87,0,0,1,1.4-.6l-.1-2.393,1.2.049,1.1-.049-.05,2.344a.876.876,0,0,1,1.346.4s1.1-.749,1.4.7c0,0,.9-.7,1.4.8,0,0,1.7.05.9,1.7l.449.548-1.646,4.239a.661.661,0,0,1-.1,1.146l.249.2s1.6-1.4,2.643,0l.9.947.15.15.4.449.05.051a.385.385,0,0,1,.349-.4.21.21,0,0,1,.113.036l.062-.112a1.775,1.775,0,0,1-.12-.14,1.14,1.14,0,0,1,.094-1.43.834.834,0,0,1,1.447.548l.221.134.028-.134.1-.548a3.839,3.839,0,0,1,1.446-.049,4.158,4.158,0,0,1,1.346-1.2,2.173,2.173,0,0,1-.7-.2l-.947.448-.7.8a.372.372,0,0,1-.449.05l-.8-.8s-1,0-1.347-.5l.05-.5a1.611,1.611,0,0,0,.8-.2l-.05-.8.549-.6.449-.1a6.616,6.616,0,0,0,1.546-1.6l-3.491-2.743-.2-.3s-.4-.848.6-.6l4.04,2.344.648-.15s-.3-.449-.249-.7l-.15-.349.1-.25a2.574,2.574,0,0,1,2.094,1.3A4.9,4.9,0,0,1-676.3-4535a8.228,8.228,0,0,1-2.244,5.485,1.862,1.862,0,0,0,.449.3,8.611,8.611,0,0,0,2.294,1.047.859.859,0,0,1,1.3.4l.4.051a.541.541,0,0,1,.7.249s4.538.9,4.937,1.4a12.55,12.55,0,0,1,3.042.549s1.546.548,2.244-.15c0,0,1.2-1,.6-1.895a.532.532,0,0,1-.6.4,5.707,5.707,0,0,0-1.745,0l.05-.2a4.387,4.387,0,0,0-1.4.3,3.2,3.2,0,0,1,.948-1.945,4.08,4.08,0,0,0-.849.1,40.489,40.489,0,0,1-6.533.25,6.7,6.7,0,0,1-1.944-.548,2.585,2.585,0,0,1-1.5-1.3,3.49,3.49,0,0,1,1.048-3.989s2.244-1.846,4.288-1.446a4.391,4.391,0,0,0,2.1-.35,3.742,3.742,0,0,1-1.745,1.7,4.7,4.7,0,0,0,2.244-1,3.174,3.174,0,0,1,2.693-.4,2.109,2.109,0,0,0-1.2,1.247,6.336,6.336,0,0,1,.748-.2,2.971,2.971,0,0,0,2.344-.9s-.5,2.344-2.294,3.042c0,0-3.74,1-5.835,0a2.926,2.926,0,0,0-1.8-.2h-.35s-1.2-.2-1.446,1.247c0,0-.2.9,1.048,1.6a7.543,7.543,0,0,0,3.191.35s4.987-1,5.985-.8a2.165,2.165,0,0,1,.1-2.095,2.753,2.753,0,0,0,.948.748,1.113,1.113,0,0,1,.648.249,2.9,2.9,0,0,1,1.7,2.444l.05.05a2.644,2.644,0,0,1,.549,1.2s.3,2.693-.9,3.691c0,0,.2,1.895-1.5,2.044l.2-.7a.964.964,0,0,0-.6-.848,9.312,9.312,0,0,1-2.643-.349l-1.047-.149.1.448v1.3l-.1,1.146v.051s.8,0,1.346-.051l.36-.138.387.138a.961.961,0,0,1,.748.55l.05.847a3.543,3.543,0,0,1,2.792.948l.648,3.341a1.418,1.418,0,0,1-1.7.947,1.511,1.511,0,0,0,.2-.947l-.8-.2a1.965,1.965,0,0,1-.648.549v.449s-1.8,1.5-2.993.149l.15-.349.5-1.047a1.405,1.405,0,0,0-.9.05v.4a.658.658,0,0,1-.1.647s-.948,1.347-7.88,1.4c0,0-.378.014-1,.014A30.4,30.4,0,0,1-684.38-4514.6Zm-13.165-.7,1.6,1.3,1.346-1.2v-3.391l-.549.05v2.892l-.8.9-.9-.648v-3.192l-.648-.448Zm-1.547.9c.25.6.648.25.648.25a.916.916,0,0,0,.2-1c-.249-.649-.1-.9-.1-.9-.15-.9.249-.249.249-.249a2.548,2.548,0,0,1,.2.549c.149.349.2.1.2.1l-.05-.847a3.7,3.7,0,0,1-.6-.2,5.619,5.619,0,0,1-.844,1.591,15.27,15.27,0,0,0,.7-1.654,5.037,5.037,0,0,1-1.2-.789c-.05.748-.847.348-.847.348a.6.6,0,0,0,.349.948,1.376,1.376,0,0,0,.9-.4c.7-.149.2.4.2.4a1.837,1.837,0,0,1-.8.349.534.534,0,0,0-.35.848c.4.549.8.35.8.35C-699.092-4514.65-699.092-4514.4-699.092-4514.4Zm14.014-.9c5.585,2.144,15.16.847,15.16.847,1.6-.2,1.646-.449,1.646-.449.6-.049.5-.948.5-.948a7.478,7.478,0,0,1-.549-2.244c-1.3.749-8.627.948-8.627.948-5.935.149-8.229-1.048-8.229-1.048A9.8,9.8,0,0,1-685.078-4515.3Zm-41.541,1.1a1.743,1.743,0,0,0-.2-.948s-.5,0-.3.6a.391.391,0,0,1,.043,0A.446.446,0,0,1-726.619-4514.2Zm41.99-.051c.149-.149,0-.448,0-.448-.349,0-.648-.5-.648-.5l-.05-1c-1.1-.149-1.1-.748-1.1-.748a1.159,1.159,0,0,1,.948-1l-.1-1.147c.648-.6,1.895-.25,1.895-.25-.1-.7-.648-.5-.648-.5,0-.548-.648-.6-.648-.6v.149l-1.8,1.4c.25,1.4-.4,1.844-.4,1.844a1.614,1.614,0,0,1-2.145-.3l-.7.448a1.731,1.731,0,0,1,1.1.648l-.1.1a2.852,2.852,0,0,0-1.1-.548l-.6.249-.3.25-1.5.748c.7,1.047,2.993,1.047,2.993,1.047a1.745,1.745,0,0,0-.9-.848,1.929,1.929,0,0,1,1.895.5,1.863,1.863,0,0,0,1.147.5,2.958,2.958,0,0,0-.5-.548.855.855,0,0,0,.6.05,4.251,4.251,0,0,0-1.346-1.147c1.047-.549,1.944.7,1.944.7a2.12,2.12,0,0,0,.849.8l-.3-1C-685.826-4514.5-684.63-4514.252-684.63-4514.252Zm-38.45-3.54a2.7,2.7,0,0,1,.15,2.194s.05.9,1.745,1.2a64.992,64.992,0,0,0,13.016-.5s.848.05.848-.749a5.548,5.548,0,0,1,.05-2.293s.1-.4-.1-.35a5.306,5.306,0,0,1-1.6.449,32.218,32.218,0,0,1-7.63.647s-5.136,0-6.533-.848C-723.129-4518.042-723.278-4517.941-723.079-4517.792Zm18.651,2.843s-.1.2.1.647c0,0,.748-.947.05-1.6a2.745,2.745,0,0,1-.849-.05,1.2,1.2,0,0,0-.249.7,1.344,1.344,0,0,0,.747.848,1.473,1.473,0,0,1,.1-1.1A.691.691,0,0,1-704.428-4514.949Zm2.843.6s.6-1.346,0-2.044a.721.721,0,0,0,.5.149s.15-1.247-.648-1.6a.633.633,0,0,0,.4-.05s-.5-.7-1.047-.5a2.21,2.21,0,0,1-.383,1.211,2.183,2.183,0,0,1,.533.834s.3.149.349.8a2.2,2.2,0,0,0-.5-.6,1.565,1.565,0,0,0-.677-.777,1.106,1.106,0,0,1-.171.079.964.964,0,0,1-.748.9s.149.4.4.449c0,0,0,.35.149.449,0,0,.3.25.349-.349,0,0,.2.648.7.748,0,0,.192-.145.1-.624A1.271,1.271,0,0,0-701.585-4514.352Zm-4.837-.1c.847-.449.648-.648.648-.648.149-.5.1-.549.1-.549a.686.686,0,0,1,.1-.3c.1-.4-.149-.4-.149-.4h-.349l-.847.947c-.05.549-.748.8-.748.8,1.346-.1,1.546-.6,1.546-.6A3.337,3.337,0,0,1-706.422-4514.451Zm12.118-.7a4.553,4.553,0,0,0,1.446.6c.25-.1,0-.448,0-.448a3.147,3.147,0,0,1-1.446-.7Zm28.027.548a2.358,2.358,0,0,0,1.895-.548l-.149-.8a1.741,1.741,0,0,1-1.147.05Zm-59.594-.548a1.052,1.052,0,0,1,.449.548s.35-.8-.2-1.047A.629.629,0,0,1-725.872-4515.149Zm58.9.3.349.2.748-1.347-.25-.249A3.794,3.794,0,0,1-666.976-4514.85Zm-60.941-7.182s-.748.648-.947,4.09a3.274,3.274,0,0,0,1.446,3.042s.3-.5.6-.449c0,0,.25-.7-.9-1.146a1.193,1.193,0,0,1,1.3,1.346.611.611,0,0,0,.549-.449s.748-1.4-1-1.347a2.706,2.706,0,0,1,.149-2.743,14.822,14.822,0,0,0,2-.05.966.966,0,0,1,.5,1.247s.7,0,1-2.244l.3-.5a6.845,6.845,0,0,1,5.835-3.54s1.4.748,1.845.9c0,0,3.84,2.194,5.984-.25a3.782,3.782,0,0,1-.6-1.3v-.448s.1.2.249.448a5.383,5.383,0,0,0,1.6,1.945l1.247-.548a10.659,10.659,0,0,0,4.787,1.845,4.725,4.725,0,0,0,.748.549s.848.748,1.2-.2a1.38,1.38,0,0,0-.748-1.146.986.986,0,0,1,1.047,1.046s1.147-.4.8-1.2c0,0-.3-.549-1.945-.3a1.657,1.657,0,0,1,1.147-.349.53.53,0,0,0,.449-.15s-.948-.9-2.294.6c0,0-1.6-1-3.192-2.094a22.051,22.051,0,0,1-3.241-2.344l-.149.449a1.392,1.392,0,0,0-.8-.5s-1.5-.6-1.794-1.7a.925.925,0,0,1-.349.449s-.35-1.3-.9-1.646a13.069,13.069,0,0,1-2.394,1.995s-6.283,2.294-8.478,2.494a1.987,1.987,0,0,0-1.1.249,2.068,2.068,0,0,0-.449-.05,8.3,8.3,0,0,1-1.547.6,9.208,9.208,0,0,1-2.693.5,1.731,1.731,0,0,1-1.4-.5,1.116,1.116,0,0,1-.349-.848s-.249-.948,1.147-2.044a2.038,2.038,0,0,1,2.792-.05s.948,1.146,1.4.947a8.2,8.2,0,0,1-.9-1.247s.8,1.047,1.6,1a2.879,2.879,0,0,1-.349-.6,1.821,1.821,0,0,0-1-1.1s7.73.1,9.126-.3c0,0,3.441-.25,3.192-3.242a3.1,3.1,0,0,0-2.843-2.594,2.873,2.873,0,0,1-1.3,0s-.4-.05-.9-.1a4.462,4.462,0,0,1-1.6-.349s.648.748,1.048,1.2a4.845,4.845,0,0,1-2.544-.5,2.16,2.16,0,0,0-1.047-.4,7.387,7.387,0,0,0,1.945,1.6,12.414,12.414,0,0,1-3.391-.448s2.294,3.64,7.032.9c0,0,2.244-1.046,2.693.749a2.294,2.294,0,0,1-2.044,2.344,45.784,45.784,0,0,1-9.077.1,1.81,1.81,0,0,0,1.048-1.6,4.289,4.289,0,0,1-1.7.947,3.362,3.362,0,0,0,.549-.748,3.075,3.075,0,0,0-2.395,1.446,5.969,5.969,0,0,0-3.092,2.543,3.27,3.27,0,0,0-.249,2.394,1.748,1.748,0,0,0,1.346,1.1s-1.745.747-.648,2.093a2.973,2.973,0,0,1,2.145-1.845s3.64-.947,4.289-1.246a5.893,5.893,0,0,0-1.2,2.493s-.1.8-.5.9a2.85,2.85,0,0,1-1.746-.049.227.227,0,0,0-.189-.084A.442.442,0,0,0-727.917-4522.031Zm2.494,6.184s.249,0,.3.4a.842.842,0,0,0,.05-.8.26.26,0,0,1-.35.1Zm18.452-.647.05.748.648-.7a.272.272,0,0,1-.25-.149,1.694,1.694,0,0,1-.4-.5Zm15.111-1.3s.3.947-.549,1l-.249.9a3.211,3.211,0,0,0,1.2-.748l.8-1.845-.3,1.646.848-.748v.25l.449-.4c.05,0-.05-.149-.2-.449l-.3-.6-.2-.5S-691.163-4517.992-691.86-4517.792Zm-4.339,1.6a.279.279,0,0,0,.249.3c.1,0,.2-.149.2-.3s-.1-.3-.2-.3A.279.279,0,0,0-696.2-4516.2Zm31.468-.9a1.115,1.115,0,0,1,.6,1.047,1.367,1.367,0,0,0-.4-2.095c-.2-.05-.349-.1-.349-.1a14.4,14.4,0,0,1-.2-1.944v-.35l-.5-.549a3.7,3.7,0,0,1-2.393-.149,4.651,4.651,0,0,0,.05-.648,19.424,19.424,0,0,0-.2-3.092,22.983,22.983,0,0,0,2.693.6,4.759,4.759,0,0,0,1.646.2c1.3.3.9,1.2.9,1.2,1.048-.848.15-1.447.15-1.447a1.876,1.876,0,0,0,1.147-1.5,6.274,6.274,0,0,0,.05-2.194c-.349-.748-.7-.9-.7-.9,0-2.144-1.3-2.443-1.3-2.443a2.9,2.9,0,0,0,.249.947c.1.2-.249-.05-.249-.05a1.408,1.408,0,0,0-.7-1.047,2.665,2.665,0,0,1-.748-.649c-.549.9.9,1.846.9,1.846a33.486,33.486,0,0,0-6.134.7,5.976,5.976,0,0,1-4.289-.3,1.69,1.69,0,0,1-1-2.194,2.53,2.53,0,0,1,2.393-1.348,8.944,8.944,0,0,1,2.394.4,10.321,10.321,0,0,0,4.937-.1,3.386,3.386,0,0,0,1.646-1.845,2.941,2.941,0,0,1-1.8.45c-.648.6-2.743.7-2.743.7,1.4-.548,1.346-1.1,1.346-1.1a2.342,2.342,0,0,1,.648-.8,5.2,5.2,0,0,0-1.845.948,4.84,4.84,0,0,1-2.144.449,1.331,1.331,0,0,1-.7-.05c1-.3,1.047-.7,1.047-.7a5.677,5.677,0,0,0-4.389.8c-1.995,1.646-1.4,3.291-1.4,3.291.349,1.6,3.192,2.095,3.192,2.095a34.654,34.654,0,0,0,5.784-.3c2.394-.3,3.042.05,3.042.05.3.2,0,.249,0,.249-1.447-.2-1.9,1.5-1.9,1.5a2.592,2.592,0,0,1,2.344-.8c.249.05,0,.1,0,.1a1.586,1.586,0,0,0-1.2.35,2,2,0,0,0,1.645.349,1.032,1.032,0,0,0,.6-.5,2,2,0,0,1,.3,2.095,2.193,2.193,0,0,1-1,.848,7.449,7.449,0,0,1-3.491-.4,4.149,4.149,0,0,0-1.645-.249c-.15-.05-.4-.149-.6-.2a39.334,39.334,0,0,0-4.289-.848l.249.349c.4.1.6.3.648.5a.656.656,0,0,1-.05.4,1.291,1.291,0,0,1-.25.4l.2.4a1.653,1.653,0,0,1,1.3,1.895,2.466,2.466,0,0,0,.9,1.745,4.61,4.61,0,0,0,3.441,1.247c.6,0,.7.149.7.149.6.35.5,1.945.5,1.945a4.008,4.008,0,0,1-.3,1.347c.2.5,1.2.249,1.2.249.15-.05.2-.249.2-.249a.71.71,0,0,0-.149-.6c-.06-.09-.048-.108-.029-.108A.076.076,0,0,1-664.732-4517.094Zm-41.94-2.644a1.186,1.186,0,0,0,.1,1.1s.249.249,0,.4a.493.493,0,0,0-.2.5,1.007,1.007,0,0,0,.7.848s.449,0,.549.35c0,0,.05.4.847.4a1.214,1.214,0,0,0,.947-.4s.25-.2,0-.6c0,0-.1-.1.15-.15a.594.594,0,0,0,.648-.049,3.523,3.523,0,0,0,.25-1.447.551.551,0,0,0-.4-.6.612.612,0,0,1-.1-.449s.2-.249-.15-.7a1.154,1.154,0,0,1-.648-.4.785.785,0,0,0-1.1.3s.05.4-.448.1c0,0-.028,0-.076,0A1.1,1.1,0,0,0-706.672-4519.737Zm42.04.25a1.61,1.61,0,0,1,.05.648,2.049,2.049,0,0,1,.05.5,1.652,1.652,0,0,1,1.1,1.895,6.389,6.389,0,0,1,.748.25,3.979,3.979,0,0,0-.25-2c.848.3.848-.05.848-.05.249-.7-.6-.9-.6-.9a6.391,6.391,0,0,0-1.789-.358A.882.882,0,0,0-664.632-4519.487Zm-65.728-.25s-.5.449.649.7v2.743h.4a8.852,8.852,0,0,1,.3-3.89,1.64,1.64,0,0,0-.25-.017A1.347,1.347,0,0,0-730.36-4519.737Zm4.838,3.242c.348.349.348-.15.348-.15-.449-1.4-1.346-.448-1.346-.448a1.1,1.1,0,0,1,.2-.021A.848.848,0,0,1-725.522-4516.5Zm39.7-.848a.442.442,0,0,0-.25.4s.1.3.748.5a3.043,3.043,0,0,0-.05-1.146A2.256,2.256,0,0,0-685.826-4517.343Zm-9.975.548a.28.28,0,0,0,.25.3c.1,0,.2-.15.2-.3,0-.2-.1-.349-.2-.349C-695.7-4517.144-695.8-4516.994-695.8-4516.795Zm-.8-.1c0,.2.1.35.25.35s.249-.15.249-.35a.28.28,0,0,0-.249-.3A.28.28,0,0,0-696.6-4516.895Zm28.425-1.4.449,1.7a13.861,13.861,0,0,1,1.4-.1,10.637,10.637,0,0,0,.2-2.044s.2-.8-.747-.649a5.082,5.082,0,0,1-1.7-.2,7.791,7.791,0,0,0-1.6.749s-.5.4.1.5a1.121,1.121,0,0,0,1-.15.794.794,0,0,1,.384-.109A.589.589,0,0,1-668.173-4518.291Zm-55.005,1.646a8.5,8.5,0,0,0-.15-1.3s-.05-.3.1-.4a6.378,6.378,0,0,1,1.945-.1s.5-.15,0-.6a3.153,3.153,0,0,0-1.646-.6s-.7,1.6-1.5,1.5c0,0-.1.149-.5-.2,0,0,.549,0,.349-.9,0,0,.1-.15-.149-.15a9.123,9.123,0,0,1-1.746,0,2.812,2.812,0,0,0-.149,2.045s1.3-1.248,1.8.6c0,0,.159-.008.391-.008A6.153,6.153,0,0,1-723.178-4516.646Zm28.924-1.3a7.824,7.824,0,0,0,1.995.9.378.378,0,0,0,.25-.548,1.3,1.3,0,0,0-.5-.249,3.482,3.482,0,0,1-1.745-.848Zm5.867.452c-.024.066-.048.124-.07.171a1.84,1.84,0,0,0,.237.074,1.383,1.383,0,0,0,.441,0l-.035-.454h-.009A1.562,1.562,0,0,0-688.388-4517.489Zm-12.549-1.1s-.3.15.05.7l.549.647a.414.414,0,0,0,.449-.349l-.4-.5s-.249-.1-.1-.449l.5-.648a.921.921,0,0,0-.35-.4Zm13.323.681-.007.625a.747.747,0,0,0,.483-.583.91.91,0,0,0-.313-.057A.891.891,0,0,0-687.614-4517.909Zm-8.586.316c0,.2.1.3.2.3.149,0,.249-.1.249-.3s-.1-.349-.249-.349C-696.1-4517.941-696.2-4517.792-696.2-4517.593Zm6.988-.47a1.366,1.366,0,0,1-.085.226,2.6,2.6,0,0,0,.676.45,1.668,1.668,0,0,0,.111-.812A2.328,2.328,0,0,0-689.211-4518.062Zm16.2-3.171a3.694,3.694,0,0,1-.948.149.259.259,0,0,0,.1.35c1.047.748.349,1.446.349,1.446-.5.449-.748.449-.748.449a8.459,8.459,0,0,0-1.7,1.2c1.333.04,2.556,0,3.543-.062a1.1,1.1,0,0,1-.85-1.135,1.11,1.11,0,0,1,.8-1.125v-.729a.66.66,0,0,1-.547-.542Zm-7.182,2.494a2.955,2.955,0,0,0,.7,1,17.01,17.01,0,0,0,2.594.049,7.411,7.411,0,0,1,2.843-1.6s.648-.349.249-.8a1.8,1.8,0,0,0-.549-.748s-.6-.5.25-.7a9.6,9.6,0,0,0,1.646-.373v-.776l-.05,0a.613.613,0,0,1-.549-.648.663.663,0,0,1,.358-.6l-.107-.534a2.178,2.178,0,0,0-1.1.091,25.93,25.93,0,0,0-2.992,2.344s-.4.3,0,.947a6.9,6.9,0,0,0,1.347,1.247s.349.249.049.35a.733.733,0,0,0-.5.1s-1.1.5-1.846.9a2.72,2.72,0,0,1-1.3-.149.867.867,0,0,0-.587-.3A.678.678,0,0,0-680.191-4518.739Zm-8.129.4a1.333,1.333,0,0,1-.016.682.738.738,0,0,1,.551-.283,1.085,1.085,0,0,0,.073-.507h-.044A1.879,1.879,0,0,0-688.32-4518.341Zm16.557-2.942a.612.612,0,0,1-.4.564v.737a.97.97,0,0,1,.7.394,1.227,1.227,0,0,1,.249.749,1.111,1.111,0,0,1-.754,1.1c1.231-.091,2-.207,2-.207-1.2-.25-.5-.947-.5-.947a6.249,6.249,0,0,1,1.6-.8,3.013,3.013,0,0,1-2.244-1.746h-.665A.7.7,0,0,1-671.763-4521.283Zm-9.375,3.441,1.3.1-.6-.9-1.446.4.25.3,1.2-.4Zm-38.7-1.646.05.3a.23.23,0,0,0,.1.349,14.911,14.911,0,0,0,4.139,1.1,31.483,31.483,0,0,0,3.79-.2s-.149-.649.35-.9a5.389,5.389,0,0,0-.449-.4s-.9-.848-1.746.35a10.451,10.451,0,0,1-2.892-.948s.9-.548.848-1.346c0,0,1.546.3,2.044-.449a15.8,15.8,0,0,1-1.545-.648.672.672,0,0,0-.948-.05l-.2-.15.5-.4a3.233,3.233,0,0,0-2.194-1.445,14.984,14.984,0,0,0-1.845.548s-1.5.8-1.7,1.545a15.776,15.776,0,0,0,3.491.7s.549-.1.3.5a3.545,3.545,0,0,1-1.845,1.246.32.32,0,0,0-.038,0C-719.7-4519.789-719.876-4519.759-719.837-4519.487Zm-2.294-2a3.974,3.974,0,0,1-.6.9l-.1.6s1.945.149,2.144,1.446l-.249.5a3.211,3.211,0,0,0,.9.2,4.6,4.6,0,0,0,1.845,0s-.5-.15-1-.35a2.642,2.642,0,0,1-1-.5,2.528,2.528,0,0,1,.149-1.4,2.677,2.677,0,0,0,1-.549,3.225,3.225,0,0,0,.449-.4,17.716,17.716,0,0,1-2.742-.449h-.05a2.215,2.215,0,0,1-.6-.3A1.4,1.4,0,0,1-722.132-4521.482Zm39.646,1.795a3.717,3.717,0,0,0-.4,1.7,1.175,1.175,0,0,0,1,.051l-.3-.449a1.661,1.661,0,0,0,1-.449s.6-.8,2.344-.4a2.034,2.034,0,0,0,1.3.15,5.06,5.06,0,0,0,1.446-.6l-.548-.5a1.809,1.809,0,0,1-.6-.449,1.879,1.879,0,0,1-.3-.8,1.337,1.337,0,0,1,.549-1.146,7.17,7.17,0,0,1,.7-.8,6.4,6.4,0,0,1,1.047-.848,23.1,23.1,0,0,0-2.443,1.1,12.807,12.807,0,0,1-2.545.051l-.448.747a.547.547,0,0,1-.5.549.424.424,0,0,1-.348-.2l-.7.334a.547.547,0,0,1-.494.517.473.473,0,0,1-.43-.417l-.846-.121a.433.433,0,0,1-.37.238.506.506,0,0,1-.449-.547l-1-.427a.429.429,0,0,1-.25.078c-.25,0-.4-.2-.4-.5a.608.608,0,0,1,.079-.3l-.549-.782c-.135-.054-.262-.107-.378-.164a2.529,2.529,0,0,1-.25-.149,3.051,3.051,0,0,0-.748-.1,19.18,19.18,0,0,1-.847,2.891,1.849,1.849,0,0,1-.25.55l.6.3a7.712,7.712,0,0,0,.449-.849,4.538,4.538,0,0,0,.449-1.645l1.6,1.5.15.149.7.649s.2-.019.5-.019C-684.159-4520.8-682.631-4520.67-682.486-4519.687Zm-7.455.837a2.382,2.382,0,0,0,.532.9c.233-.173.181-.848.153-1.1a.748.748,0,0,0-.1-.006A.971.971,0,0,0-689.941-4518.851Zm-21.519.809a3.92,3.92,0,0,0,.648-.049,2.024,2.024,0,0,0-.4-.5A.462.462,0,0,0-711.459-4518.042Zm24.187-.548-.349.043a1.665,1.665,0,0,1-.011.492.716.716,0,0,1,.509-.015,2.224,2.224,0,0,0-.529-1.478,2.018,2.018,0,0,1,.082.9l.248-.092Zm2.194-.4c-.449.25-.1.3-.1.3a3.385,3.385,0,0,0,1.845.6l.448-1.1a1.9,1.9,0,0,1-1.147.1,2.913,2.913,0,0,0-.4-.028A1.255,1.255,0,0,0-685.078-4518.989Zm-26.031.1a.964.964,0,0,1,.5.747l.349-.05a1.4,1.4,0,0,0-.3-1.146A.633.633,0,0,0-711.11-4518.889Zm2.094-.35v.5l.15.149v.4l.3-.05.349-.1a1.529,1.529,0,0,1-.4-.5,1.038,1.038,0,0,0-.449-.749Zm36.255.4a.561.561,0,0,0,.5.6.566.566,0,0,0,.548-.6c0-.1-.049-.15-.049-.249a.542.542,0,0,0-.5-.349A.561.561,0,0,0-672.761-4518.839Zm-29.323-.648a.716.716,0,0,1-.15.249l.05.648a.947.947,0,0,1,.4.1,1.515,1.515,0,0,1,.349.25.877.877,0,0,0,.15-.8l-.748-.8C-702.034-4519.687-702.083-4519.588-702.083-4519.487Zm-7.78.848.05.4.549-.05a.688.688,0,0,0-.1-.5.655.655,0,0,0-.1-.008A.611.611,0,0,0-709.863-4518.64Zm20.709-.456a2.665,2.665,0,0,1-.009.83,1.234,1.234,0,0,1,.716-.135,1.38,1.38,0,0,0,.053-.747.914.914,0,0,0-.294-.047A1.215,1.215,0,0,0-689.154-4519.1Zm-3.953.556c1.3.847,2.045-1.147,2.045-1.147a1.7,1.7,0,0,1-1.2-.05Zm-6.583.1a.982.982,0,0,0,.947-.648.667.667,0,0,0-.449-.6c.2.848-.648.649-.648.649C-700.139-4518.44-699.69-4518.44-699.69-4518.44Zm-9.824-2.245c-.05.05,0,.15,0,.15a3.72,3.72,0,0,0,1.4.947.672.672,0,0,0-.4.35c.4.8,1.6.748,1.6.748a2.819,2.819,0,0,1,.03-1.659,8.63,8.63,0,0,1-1.027-.734,5.2,5.2,0,0,0-.6-.6l-.7-.549a4.292,4.292,0,0,1,.947.5,10.847,10.847,0,0,0,1.541,1.095,1.483,1.483,0,0,1,1.2-.347l.3-.549a1.376,1.376,0,0,0-.648-.947.621.621,0,0,0,0,.449,2.839,2.839,0,0,0-1.2-.749,1.774,1.774,0,0,0,0,.749,1.788,1.788,0,0,0-1.4-.9,1.106,1.106,0,0,0,.2.648,2.267,2.267,0,0,0-1.346-.249,2.724,2.724,0,0,0,.9,1.5l-.1.249a.867.867,0,0,0-.483-.207A.233.233,0,0,0-709.514-4520.685Zm13.764,2.194a3.852,3.852,0,0,0,2.942-1.794c.1-.7,1.147-3.591,1.147-3.591v-2.244H-695.8Zm-3.342-4.987c.6.2.2,1.247.2,1.247a1.884,1.884,0,0,1-.05,1.3,5.084,5.084,0,0,0,2.992,2.395l-.1-7.63-4.338.05v1.7a2.445,2.445,0,0,1,.258-.014C-698.961-4524.439-699.092-4523.478-699.092-4523.478Zm10.865,4.243a1.067,1.067,0,0,1-.024.685.767.767,0,0,1,.537-.087,1.408,1.408,0,0,0-.1-.765h0A.605.605,0,0,0-688.227-4519.234Zm-5.28.295.15.349.9-1.3-.25-.249Zm-17.1-1.3c.249.149.2.647.2.647a1.357,1.357,0,0,1,.449.749,1.2,1.2,0,0,1,.648-.1c-.174-1.221-1.035-1.3-1.249-1.3A.477.477,0,0,0-710.612-4520.235Zm22.092-.25a2.859,2.859,0,0,1,1.546,1.447l1.445-1.2-.2-.15-.6.5-.249-.2.6-.6-.35-.25-.449.7-.249-.35.549-.549-.249-.2-.4.549-.3-.249.4-.648-.249-.3-.349.8-.2-.2.3-.947-.2-.25A6.651,6.651,0,0,1-688.519-4520.485Zm-1.547,1.048a2.968,2.968,0,0,0,.061.358l.068-.035c.161-.444.071-.624.071-.624l.149-.1a1.238,1.238,0,0,1-.053.656,1.054,1.054,0,0,1,.419-.044,2.286,2.286,0,0,0,.083-.712l-.717-.089A.842.842,0,0,0-690.066-4519.437Zm-21.145.3a.511.511,0,0,1,.5-.348,1.975,1.975,0,0,0-.4-.6,1.113,1.113,0,0,0-1.546.3h.048C-712.392-4519.788-711.515-4519.749-711.21-4519.139Zm10.573-1.446a4.842,4.842,0,0,0,1.047,1.347.291.291,0,0,0,.3-.35,2.286,2.286,0,0,1-.6-.7v.05a2.048,2.048,0,0,1-.6-.8S-700.688-4520.983-700.637-4520.585Zm16.207.15c.4.149.349.4.349.4.549.05.7.749.7.749,1.247-.3.2-.947.2-.947a3.292,3.292,0,0,0-1.035-.25C-684.393-4520.485-684.43-4520.435-684.43-4520.435Zm-16.806.448c-.1.05-.249.149-.249.149l.349.5a.69.69,0,0,1,.1-.35l.4-.4-.2-.349Zm-2.244-1a1.115,1.115,0,0,1,.6,1.3.571.571,0,0,1,.5.35l.05-1a2.5,2.5,0,0,1-.549-1.2l-.249-.05Zm-9.825-.5a3.39,3.39,0,0,1-1.994.9l-.4.648.947.249.2.1.848.25a.538.538,0,0,1,.7-.449s.449-1.2,2.244-.8a.974.974,0,0,1,.7.1,2.8,2.8,0,0,1,.449.35l-.2-.648a.654.654,0,0,1,.7-.2,2.135,2.135,0,0,1-.349-.5,1.86,1.86,0,0,1-.349-1,2.484,2.484,0,0,1,1.2-.15v-.548h.349l-.648-.4a4.61,4.61,0,0,1-4.738.947,7.367,7.367,0,0,1-1.745-.748,2.554,2.554,0,0,0,2.493,1.446A4.559,4.559,0,0,1-713.3-4521.482Zm24.17,1.567a.959.959,0,0,1,.011.538.929.929,0,0,1,.709-.032,1.184,1.184,0,0,0-.149-.618Zm.871.438a1.044,1.044,0,0,1,.483-.2,2.286,2.286,0,0,0-.63-.411A1.094,1.094,0,0,1-688.264-4519.478Zm-11.377-.808a.712.712,0,0,0,.349.5.864.864,0,0,1,.548-.448l-.3-.45-.15.1s-.1,0-.249-.249A.709.709,0,0,1-699.641-4520.285Zm9.376-5.786a3.111,3.111,0,0,0-.848,1.3l-.648,2.243a6.9,6.9,0,0,0-.7,2.194c.349.5,1.4.35,1.4.35.149-.1.1-.7.1-.7a1.168,1.168,0,0,1-.05-.548c.249.05.3.35.3.35a5.175,5.175,0,0,1-.15.6c1.1-.7.15-2.045.15-2.045a3.613,3.613,0,0,1,.6-1.746c1.147-1,1.745-.647,1.745-.647a11.142,11.142,0,0,1,2.643.548c.648.2,2.943.6,2.943.6a.838.838,0,0,1,.2-.4c.649-.449,1.1-2.594,1.1-2.594,0-.349.149-.2.149-.2a1.127,1.127,0,0,1,.05.549,5.429,5.429,0,0,1-.5,2.094,6.835,6.835,0,0,0,3.241.549,5.259,5.259,0,0,0,2.593-.747,7.092,7.092,0,0,1,3.042-.449l-.05-.3c-1.247-.549-.4-1.2-.4-1.2l-.5-.7c-1.346-.1-5.535-2.294-5.535-2.294-3.591-2-5.486-1.646-5.486-1.646a6.355,6.355,0,0,0-1.3,4.389l.9.1a3.829,3.829,0,0,1,1.1-2.892c.349-.15.1.25.1.25a3.623,3.623,0,0,0-.748,3.142,25.717,25.717,0,0,0-3.84-.4,1.913,1.913,0,0,0-.512-.07A2.021,2.021,0,0,0-690.265-4526.071Zm.377,5.929.731.053.454-.113a2.852,2.852,0,0,0-.714-.134A.805.805,0,0,0-689.888-4520.142Zm-12.146-.592.3.4a.367.367,0,0,1,.149-.249l.5-.448-.3-.2Zm2.294.249a1.468,1.468,0,0,0-.149-1.047,3.772,3.772,0,0,1-.35.448l.33.519c0,.007.019.03.019.03l-.019-.03s0,0,.005,0A.569.569,0,0,1-699.74-4520.485Zm.2-1.246a1.929,1.929,0,0,1,.3.647,1.165,1.165,0,0,0,.149-1Zm-4.3.468a.663.663,0,0,1,.61-.717,14.521,14.521,0,0,1-2-.549,3.006,3.006,0,0,1-1.4-.748l-.449.15-.35.15v.149a3.753,3.753,0,0,1,1.447.549v-.2a1.808,1.808,0,0,1,1.256,1.015,2.441,2.441,0,0,1,.272-.017A.745.745,0,0,1-703.841-4521.264Zm14.474-1.166-.25.5-.149.05.349.2.35-.8.149-.2h-.149l-1-.5v.1l-.1.648.2.349.1-.6Zm5.436.449a.625.625,0,0,1-.011.115l.759.135c0-.3.2-.6.448-.6a.569.569,0,0,1,.476.439l.636-.3a.639.639,0,0,1-.014-.14c0-.35.2-.6.448-.6a.485.485,0,0,1,.393.236l.289-.413a4.488,4.488,0,0,1-1.63-.472l-.349.548h-1.1a25.232,25.232,0,0,1-2.848-.7l.006,0,.233.419a.343.343,0,0,1,.116-.021.492.492,0,0,1,.449.5.574.574,0,0,1-.043.225l.879.4a.485.485,0,0,1,.411-.371C-684.131-4522.58-683.931-4522.28-683.931-4521.981Zm11.459-1.993a.621.621,0,0,1,.51.646.691.691,0,0,1-.25.541v.794a3.91,3.91,0,0,0,.7-.337,1.144,1.144,0,0,1,0-.6s.1-.149-.2-.8a1.669,1.669,0,0,0-.787-.648Zm-17.194.147c.5.648.8.1.8.1a.785.785,0,0,0,.1-.5l-.15-.049c0,.6-.3.449-.3.449a.368.368,0,0,1-.3-.2C-689.766-4523.976-689.667-4523.826-689.667-4523.826Zm-11.72,0a.534.534,0,0,1,.4-.3,7.509,7.509,0,0,1,.349-3.989l-.05-1S-701.934-4527.417-701.386-4523.826Zm-1.895-.947.6.4h.847v-.4h-.9l.9-1v-.448l-.149.05h-1.147l-.15-.1v.549l.15-.05.748-.05Zm-1.047-1.446-.848.1.748.549.8.6a14.826,14.826,0,0,1,.05-2.394A1.986,1.986,0,0,0-704.328-4526.22Zm12.917-2.095a7.671,7.671,0,0,1,.548,2.493l.4-.7a5.877,5.877,0,0,0-.947-2.992Zm-4.389,2h4.139l.15-6.434H-695.8Zm-4.588-.051h4.338v-6.383l-4.538-.05Zm13.174-1.764a.642.642,0,0,1,.191.468.568.568,0,0,1-.343.517l.039.43.8.1a1.66,1.66,0,0,1-.1-1.148s-.219-.258-.53-.638Zm-19.159-.181c-.149.3-.548.9-.548.9l.7.7,1.7.05a6.359,6.359,0,0,1,1.2-1.6,7.412,7.412,0,0,1,2.294-4.239v-.249a.614.614,0,0,1-.449-.5.963.963,0,0,1,.4-.8c.2.2.2-.149.2-.149a.388.388,0,0,0-.249-.1l-.1.2-.449.7a18.863,18.863,0,0,1-1.446,2.543c-.4.4-1.7,1.846-1.7,1.846l-.2-.1a4.143,4.143,0,0,1-1.347-.3A3.721,3.721,0,0,1-706.373-4528.314Zm16.706-2.793a14,14,0,0,1,.8,1.9,6.523,6.523,0,0,1,.4,2.393l.748.05.195.024-.07-.382a.53.53,0,0,1-.374-.54c0-.35.2-.6.449-.6a.3.3,0,0,1,.041,0l.09-.428c-.122-.148-.25-.308-.382-.472-.2-.249-.449-.5-.648-.748a7.2,7.2,0,0,0-.5-.648c-.286-.327-.505-.588-.658-.588A.126.126,0,0,0-689.667-4531.107Zm-12.318,4.14.149.2.1-.6h-.2l-1.048-.149-.2-.149v.149l-.05.5.1-.1Zm11.819,0,.249-.149.4-.15.349.25h.5l-.6-.4.449-.5-.2-.6-.1.249-.449.6-.6.149-.15-.05Zm-17.155-.8a7.379,7.379,0,0,1,.3-1.147,2.668,2.668,0,0,0,.1-1.894,1.1,1.1,0,0,0,.648.448,2.586,2.586,0,0,1,0-1.645,2.386,2.386,0,0,0-.2-1.5l-.093-.361a4.564,4.564,0,0,0-.106,1.607,3.212,3.212,0,0,1-.5-.149,4.241,4.241,0,0,1-.449,2.094,2.567,2.567,0,0,0-.4.947,4.471,4.471,0,0,0-1.845-1,6.316,6.316,0,0,1-.6-.9c-.2.349-.4.25-.4.25a4.408,4.408,0,0,0-.6-1.1,2.628,2.628,0,0,1-.349-1.2,10.145,10.145,0,0,0,.6,1.046c.349.2.349.9.349.9a.712.712,0,0,0,.349-.5,2.833,2.833,0,0,0,1.646,1.347,3.345,3.345,0,0,1,.748.548,2.037,2.037,0,0,1,.349-1.147,2.546,2.546,0,0,0,.249-1.994.968.968,0,0,0,.7.548,2.794,2.794,0,0,1-.05-.848,6.474,6.474,0,0,0,.135-1.125l-.135-.521a3.938,3.938,0,0,1-.349-1.1.88.88,0,0,0-.4-1.3,11.945,11.945,0,0,0-4.638,2.044c-.3.2-.349.15-.349.15-.5.9.548,1.3.548,1.3a3.663,3.663,0,0,0,.4,2.394,4.6,4.6,0,0,1,.549,1.945,1.42,1.42,0,0,0,.448-.8,2.657,2.657,0,0,0,1.7,2.045,1.2,1.2,0,0,1,.8.6,2.912,2.912,0,0,0,.1-1A1.729,1.729,0,0,0-707.32-4527.767Zm20.413-2.06a.576.576,0,0,1,.183.415.568.568,0,0,1-.323.507l-.046.212.519.626a4.775,4.775,0,0,1,.449-1.5l-.585-.624Zm-14.529.664a.423.423,0,0,1-.149.4l-.2.15.4.149.05-.149.15-.2a.658.658,0,0,0-.15-.9s-.3-.3-.7.25c0,0-.05.3-.3.15,0,0-.249-.2.149-.548l.25-.1-.35-.249s-.648.549-.4,1c0,0,.3.647.9.049,0,0,.111-.2.214-.2C-701.519-4529.362-701.469-4529.312-701.436-4529.163Zm10.772.5.349-.15-.249-.249-.149-.4.947-.748h.149l-.249-.548-.1.2-1.047.8h-.2Zm1.446-2.594,1.547,1.868c0-.007,0-.015,0-.022a.507.507,0,0,1,.449-.549.41.41,0,0,1,.169.037l.185-.431-1.452-1.551c-1-1.446-1.7-.748-1.7-.748l-.7.25a2.683,2.683,0,0,1,.847.948,1.335,1.335,0,0,1,.225-.021C-689.254-4531.477-689.218-4531.257-689.218-4531.257Zm10.373,1.6.648-.749-.648-.1.05.349a.364.364,0,0,1-.449-.049s-.549-.449.249-.947a.378.378,0,0,0-.5.049,1.751,1.751,0,0,0-.1-.5l-.3.249a.4.4,0,0,0-.449-.449s.1,1.147-.6.748c0,0-.6-.449-.149-.947,0,0-.3-.15-.449,0a.642.642,0,0,0-.1-.45.243.243,0,0,0-.25.3,1.3,1.3,0,0,0-.4-.25,1.038,1.038,0,0,0,.249.349.578.578,0,0,1-.549.449s-.9-.25-.149-.948c0,0-.249-.2-.6.1,0,0-.149-.548-.6-.3,0,0-.1-.1-.449.05,0,0,.7.7-.249.948l-.1.349s.072-.006.208-.006A11.829,11.829,0,0,1-678.844-4529.661Zm-7.365-1.513a.445.445,0,0,1,.034.167.477.477,0,0,1-.218.43l.568.567a3.61,3.61,0,0,1,.947-1.3l.124-.6h-.124s-.2.741-.712.757a.863.863,0,0,1-.552-.192Zm-5.152.465-.05.7.8-1.7-.25-.448-.5.249v.4l.5-.349Zm-10.323.05a.889.889,0,0,0,.947.548v-.3s-.5.1-.648-.6a.4.4,0,0,1,.549-.449v-.4A.9.9,0,0,0-701.685-4530.658Zm22.989-.6.25.3.3.2A1.7,1.7,0,0,0-678-4532.8,6.735,6.735,0,0,1-678.7-4531.257Zm-3.989-1.745a11.7,11.7,0,0,1,3.74,1.546s2.393-4.788-1.446-7.83a1.514,1.514,0,0,0-1.447-1.3,3.81,3.81,0,0,0,.449,1.1,1.944,1.944,0,0,0-.648.8s-.417.332-.932.768a2.227,2.227,0,0,0,.932.729s.15.249-.249.049c0,0-.15.5-.549.25,0,0-.3-.15-.05-.7l-.2-.23a13.515,13.515,0,0,0-1.694,1.626l-.4-.05-.449.549.1.6c.051.15.3.25.3.25l.25-.149c.7,0,.349.05.349.05a1.051,1.051,0,0,1-.4.9l.6.549h.149s.35-.5.549-.8l1.247-.5-.149-.149s-.1.05-.2-.2c0,0-.2-.5,0-.349,0,0,1.8,2.045,2.494-.25,0,0-.1-1.046.249-.348,0,0,.249,1.995-1.4,1.944A3.166,3.166,0,0,0-682.685-4533Zm-3.092.2a.58.58,0,0,0-.306.8s.124.35.392.329a.737.737,0,0,0,.462-.332s.135-.806-.445-.806A.71.71,0,0,0-685.776-4532.8Zm7.879-.5a5.447,5.447,0,0,1,.449,1.2,5.5,5.5,0,0,0,.448-1.4,1.765,1.765,0,0,0-.8-.9A4.383,4.383,0,0,1-677.9-4533.3Zm-23.189-.15s-.149.35.6.3a27.614,27.614,0,0,1,8.628-.15.924.924,0,0,0,.648-.05s.249-.448-.349-.548a24.668,24.668,0,0,0-9.076,0,.19.19,0,0,0-.056-.007C-700.787-4533.907-700.977-4533.853-701.087-4533.451Zm23.489-1.247a1.524,1.524,0,0,1,.7.848,2.017,2.017,0,0,0-1.2-2.494A2.815,2.815,0,0,0-677.6-4534.7Zm-13.714.549,1.446-3.641-.249-.3-.3.848-.4-.8-.449,1.546.449-.1a1.709,1.709,0,0,1-.249.6s-1,.9-1.5-.3c0,0-.15-1.146.948-.648,0,0,.2-1.445-.948-.848a1.037,1.037,0,0,0-.449-1.346s-.7.349-.3,1.346c0,0-1.1-.648-.847.848,0,0,.6-.5.8.4a.853.853,0,0,1-.948.748,1.209,1.209,0,0,1-1.1-1.546s.449-.3.9.4l-.05-1.944a1.376,1.376,0,0,1-.9.7,2.207,2.207,0,0,1,.649-1.6l-2.1.049a2.929,2.929,0,0,1,.7,1.546,2.337,2.337,0,0,1-1.048-.847v2.244a2.805,2.805,0,0,1,.948-.6,1.752,1.752,0,0,1-1.2,1.646s-1-.149-.9-.7a.63.63,0,0,1,.9-.549.988.988,0,0,0,.05-.449s-.4-1.1-1.047-.05c0,0,0-.948-.6-1.147,0,0-.449.1-.4,1.2,0,0-1.147-.648-.7,1.047,0,0,.1-.4.748-.049,0,0,.5.2-.05.8a.99.99,0,0,1-1.6-.749l.449.2-.5-1.944-.449,1.2.847,2.693a29.99,29.99,0,0,1,4.734-.371A21.516,21.516,0,0,1-691.312-4534.149Zm5.784-.1a1.023,1.023,0,0,0,.649-.35v-.2a1.784,1.784,0,0,1-.649.25l-.3-.3a.726.726,0,0,1-.6.1C-686.425-4534.249-685.528-4534.249-685.528-4534.249Zm-27.926-3.241,1.047,1.795a14.625,14.625,0,0,1,4.788-2.045l-.05-1.995a2.9,2.9,0,0,0-2.743-.648v.249l.149.05.1.3.6-.1.049-.4a2.041,2.041,0,0,1,1.6.7s-.094.757-.348.923c-.115.075-.263.028-.45-.269,0,0-.349-.448.449-.6,0,0-.1-.7-.7-.05a.837.837,0,0,0-.449-.6.987.987,0,0,0,0,.748s-.548-.2-.349.848c0,0,.05-.149.449-.3,0,0,.348.149.05.5a.691.691,0,0,1-.323.319c-.164.064-.391.035-.675-.27,0,0-.2-.449.3-.35l-.2-.8-.249.3-.1-.1.15-.449-1.1.549.35.2v.2l-.4.05.25.548s.648-.3.548.25c0,0,.1.4-.548.749,0,0-.749,0-.749-.5a1.261,1.261,0,0,1,.549-.349s-.648-.748-.7.1a.63.63,0,0,0-.648-.5.742.742,0,0,0,.15.648s-.6-.049-.15.8c0,0,.249-.549.449-.3,0,0,.249.848-.449.549l-.35-.748a1.76,1.76,0,0,1,.35-1.147l.5.25.6-.5-.1-.349.25-.3-.2-.2A4,4,0,0,0-713.454-4537.49Zm35.158.548a7.807,7.807,0,0,0,1.346,1,2.562,2.562,0,0,0-1.8-2.045A3.331,3.331,0,0,1-678.3-4536.942Zm-1.8-2.394a9.41,9.41,0,0,1,1.247,1.048l1,.4s-.746-1.491-1.9-1.491A1.408,1.408,0,0,0-680.092-4539.336Zm-21.893.9.748-.848a1.021,1.021,0,0,0-.4-.106C-701.9-4539.392-702.152-4539.22-701.984-4538.438Zm19.05-.1a1.818,1.818,0,0,0,.4-.8l-.648-.4A2.676,2.676,0,0,1-682.934-4538.538Zm-1.346-1.845a1.533,1.533,0,0,1,.249.9l.8.8a2.21,2.21,0,0,0-.4-1.3l-.648-.5Zm-6.533,1.5a6.035,6.035,0,0,0-4.537-2.145v.9c.11,0,.219,0,.325,0A6.381,6.381,0,0,1-690.814-4538.887Zm-9.924-.2s2.544-1.2,4.04-1v-1A8.82,8.82,0,0,0-700.738-4539.086Zm9.675-.847.748.7c.119-.737-.046-.931-.25-.931A1,1,0,0,0-691.062-4539.934Zm-9.825.4.848-.648a.959.959,0,0,0-.494-.22C-700.745-4540.4-700.934-4540.223-700.887-4539.535Zm15.659-.749.9.7a1.9,1.9,0,0,0-.149-.6,5.707,5.707,0,0,0-.349-.549l-.648-.448A2.989,2.989,0,0,1-685.228-4540.284Zm-25.782.549.25-.2s.349-.35-.2-.749l-.25-.249.4-.05-.3-.7-.25.249v-.5l-.7.349.35.4h-.4l.3.748.25-.25S-711.808-4539.436-711.011-4539.735Zm14.562-.349h.848v-1h-.848Zm4.089-.648.9.5s.083-.862-.311-.862C-691.906-4541.1-692.095-4541-692.36-4540.732Zm5.685-.9a.642.642,0,0,0,.349.6l.849.748a1.983,1.983,0,0,0-.6-1.3.861.861,0,0,0-.426-.169A.158.158,0,0,0-686.675-4541.63Zm-12.866,1.146.9-.6a.992.992,0,0,0-.522-.247C-699.375-4541.328-699.564-4541.148-699.541-4540.483Zm5.885-1,.9.4c0-.622-.146-.809-.319-.809C-693.336-4541.89-693.656-4541.48-693.656-4541.48Zm-4.588.3,1-.4s-.3-.561-.577-.561C-698-4542.141-698.167-4541.916-698.244-4541.181Zm1.8-.25a1.379,1.379,0,0,0,.9.051s.4-.45.2-.748H-696.7S-697.146-4541.58-696.448-4541.431Zm1.445-.149,1,.051c-.1-.7-.5-.7-.5-.7a.388.388,0,0,0-.079-.009C-694.959-4542.237-695-4541.58-695-4541.58Zm-1.147-1.5-.5.6,1.147.05-.3-.748.648.5-.05-1.247-.3.4-.249-.25.4-.6h-1.3l.449.7-.149.149-.5-.449.05,1.2.5-.449ZM-676.3-4514.6l-.549-.049.2-.149-.05-1.7-.15-.15h.7c.748,0,.9,1,.9,1a.978.978,0,0,1-1.026,1.048Zm.05-.2a.889.889,0,0,0,.5-1c-.149-.6-.5-.6-.5-.6Zm1.5.149.05-.149-.05-1.745-.15-.1.3-.049a1.388,1.388,0,0,1,.9-.05.727.727,0,0,1-.05,1.048l.449.7a.344.344,0,0,1,.2.149.444.444,0,0,1-.4,0,1.317,1.317,0,0,1-.549-.7h-.249v.748l.05.149Zm.449-1.895v.8s.249.05.349-.1a.509.509,0,0,0,0-.647.264.264,0,0,0-.193-.128A.222.222,0,0,0-674.307-4516.545Zm-4.488,1.895-.7-1.047v.7l.05.2-.5-.05.05-.25.05-1.445-.149-.2h.4l.648.9-.05-.7-.05-.15.648.049-.1.15v1.7l.05.149Zm-38.349-.05h-.3c-.05-.05,0-.05,0-.05a.348.348,0,0,0,.2-.1v-1.546a.7.7,0,0,0-.249-.2h1.447l.05.35a1.155,1.155,0,0,0-.449-.1h-.3v.548h.149l.349-.1-.05.449-.249-.05h-.2v.6h.349a.552.552,0,0,0,.35-.15v.4Zm-1.945,0c.2-.149.2-.249.2-.249v-1.446a.551.551,0,0,0-.149-.35l.748.05c-.2.1-.15.4-.15.4l-.05,1.347.2.3Zm4.039-.748v-1a.711.711,0,0,0-.2-.2l.748.05a.845.845,0,0,0-.1.25v1c.05.4.348.35.348.35.35-.051.3-.5.3-.5v-1l-.1-.1h.548a.248.248,0,0,0-.05.149v1.048a.8.8,0,0,1-.748.7A.757.757,0,0,1-715.05-4515.448Zm33.213.449a1.188,1.188,0,0,1,0-1.7s.349-.4,1.1,0a1.189,1.189,0,0,1,.05,1.7,1.244,1.244,0,0,1-.628.2A.755.755,0,0,1-681.837-4515Zm.549-1.646c-.848.4-.249,1.3-.249,1.3.2.449.5.1.5.1a1.007,1.007,0,0,0,.1-1.047c-.069-.311-.21-.358-.29-.358A.185.185,0,0,0-681.289-4516.646Zm8.229.7c.15-1.146.948-1.047.948-1.047.947-.05.947,1.2.947,1.2a1.028,1.028,0,0,1-1,1C-673.01-4514.9-673.06-4515.947-673.06-4515.947Zm.7-.648s-.4.3-.1,1.247c0,0,.1.35.349.3a.752.752,0,0,0,.449-.848s.05-.748-.449-.8C-672.112-4516.695-672.312-4516.695-672.362-4516.6Zm-49.171,1.5.15-.149v-1.446l-.1-.25c1.1-.05,1.446.4,1.446.4a.934.934,0,0,1-.548,1.546,1.705,1.705,0,0,1-.308.028A1.55,1.55,0,0,1-721.533-4515.1Zm.6-.2a.562.562,0,0,0,.648-.4.839.839,0,0,0-.1-.6.617.617,0,0,0-.5-.4Zm50.268.2-.05-1.795-.149-.15.7-.049-.1.2.05,1.746.1.1-.6.051Zm-40.694,0-.05-1.6c0-.1-.2-.15-.2-.15l1.2-.1.149.349a1.316,1.316,0,0,0-.349-.05h-.3v.5h.3a.713.713,0,0,1,.149-.1l.05.448a.311.311,0,0,0-.2-.1h-.3v.549h.349c.1,0,.25-.15.25-.15v.35l-1.147.15Zm146.866-5.036a.8.8,0,0,1,.15-1.2c.6-.5,1.695-1.347,1.695-1.347a4.949,4.949,0,0,0,0-1.247l-.2-12.965s.3-.449-.5-.7a36.033,36.033,0,0,1-3.541-2s-.4-.349.1-1.1c.5-.8,6.982-4.738,6.982-4.738a.816.816,0,0,1,1.2,0c.7.6,10.024,5.486,10.024,5.486s.7.4-.05.9a7.383,7.383,0,0,1-1.7.748s-.349-.3-.6.7c-.3,1.1.1,13.913.1,13.913a.586.586,0,0,0,.3.748c.549.249,3.441,1.945,3.441,1.945s.6.5,0,.748c-.6.3-7.381,5.186-7.381,5.186Zm-51.814-2.194v-24.686a1.287,1.287,0,0,0-.748-1.047l-4.9-2.493.037,10.971h5.258l-5.233,7.544.031,9.081,3.657,2.475c.5.6-.3.7-.3.7l-7.58,4.737-11.271-5.983c-1.048-.7-.25-1.1-.25-1.1l2.444-1.546v-7.929h-5.366l.017,10.181,1.808,1.14a.611.611,0,0,1-.1,1l-7.53,4.238-9.825-5.186c-.848-.549.05-1,.05-1l2.793-1.6v-22.84l-5.386-3.89-.249-.1c-1.546-.847-.449-1.247-.449-1.247l7.779-4.987c.4-.349.748.15.748.15l7.081,4.139s9.575-5.087,10.223-5.485a.622.622,0,0,1,.748.1l8.078,4.488,8.129-5.087c.9-.748,1.147-.249,1.147-.249l9.525,5.585c.8.5.449.648.449.648v25.832a5.757,5.757,0,0,0,3.042,4.438c.748.6.4,1.048.4,1.048l-7.331,5.235C-615.71-4517.194-616.308-4522.33-616.308-4522.33Zm-26.381-27.129-.1,26.63c0,.149.449.25.449.25l1.157.729-.048-28.568C-642.606-4550.388-642.689-4549.459-642.689-4549.459Zm18.9,25.184c.05.2.649.449.649.449l.6.409-.027-8.188h-1.225Zm-16.738-8.75,4.421-6.56h.948v-7.431a2.34,2.34,0,0,0-.7-.8l-4.7-2.443Zm16.639-17.381.1,10.023v.8h1.2l-.038-11.281a2.441,2.441,0,0,0-.7-.13C-624.036-4551-623.889-4550.406-623.889-4550.406Zm-59.294,35.207.1-.149v-.848l-.648.848-.449-1.047v.947l-.4-.2.05-.1.05-1.447v-.249l.549.1.3,1.1.6-.848.5.049-.05.15v1.6l.1.2Zm138.238-4.937c-1-.648-.35-1.1-.35-1.1l1.8-1.745s.3-25.982-.2-27.329a3.537,3.537,0,0,0-2.095-1.846c-.349-.6.1-.648.1-.648s10.921-3.541,12.367-3.89c1.4-.348,1.346.349,1.346.349s-.3,31.568-.05,32.665.748.848.748.848,2.543,1.8,3.092,2.045a.6.6,0,0,1,.3.848l-6.184,4.788S-544.147-4519.588-544.945-4520.136ZM-669.22-4515.3v-1.6l-.249.05-.15.15-.05-.5h.15l.9-.2.1-.05.05.4h-.35v1.646l.05.149-.5.1Zm-33.061.014,0,.01Zm-6.634-.114-.051-1.446s-.348,0-.449.2l-.05-.4v-.049h.1l1.147-.1.05-.05.05.4a.437.437,0,0,0-.449-.05l.05,1.446.1.05-.6.1Zm-172.4-.149c-1.247.1-.4-.848-.4-.848,4.887-8.578,14.263-8.328,14.263-8.328.605-.012,1.2,0,1.774.041l.048-24.765-19.974-.261c-.948-.648.1-1,.1-1l9.525-6.981h25.184c5.436.5,4.987,7.48,4.987,7.48l-.1,25.732a20.559,20.559,0,0,0-13.067,9.176C-867.2-4517.643-881.315-4515.548-881.315-4515.548Zm16.5-17.925-.017,8.86a24.817,24.817,0,0,1,7.556,1.983l-.065-11.064-.067.053a5.241,5.241,0,0,0-3.669-2.007C-862.194-4535.648-863.481-4535.109-864.817-4533.473Zm0-1.269c3.283-3.334,6.239-1.258,7.465-.073l-.026-4.641c-1.336,1.25-4.446,3.351-7.43-.539Zm.013-6.748c3.345,5.542,7.076,1.241,7.419.824l-.045-7.747c.35-1.3-1.446-.947-1.446-.947l-5.913-.077Zm281.566,20.705a.506.506,0,0,0-.849.1l-6.483,5.236c-9.774-1.247-10.572-8.876-10.547-8.777-.673-9.425,3.067-11.818,3.067-11.818,4.687-6.134,16.606-10.922,16.606-10.922,1-.7,1.4-.1,1.4-.1s10.922,5.386,11.47,6.084c.6.648.3,1.147.3,1.147l-1.8,1.446c-.4.1-.349.7-.349.7v12.717l4.637,3.092a1.134,1.134,0,0,1,.2,1.2l-6.682,5.236Zm-2-1.5c1.845.848,2.594-.4,2.594-.4l.1-14.761-5.735-3.74a6.752,6.752,0,0,0-4.388,5.485,11.064,11.064,0,0,0,.921,7.428C-589.928-4524.6-585.231-4522.28-585.231-4522.28Zm-222.127,1.795a.8.8,0,0,1,.149-1.2c.6-.5,1.7-1.4,1.7-1.4a4.949,4.949,0,0,0,0-1.246l-.2-12.967s.3-.4-.5-.648c-.748-.3-3.541-2.044-3.541-2.044s-.4-.35.1-1.1,6.981-4.737,6.981-4.737a.8.8,0,0,1,1.2,0c.7.6,10.024,5.485,10.024,5.485s.7.449-.05.947a7.31,7.31,0,0,1-1.7.748s-.349-.349-.6.7c-.3,1.1.1,13.914.1,13.914a.587.587,0,0,0,.3.748c.5.249,3.441,1.945,3.441,1.945s.6.5,0,.749-7.38,5.136-7.38,5.136Zm-18.751-.3a.5.5,0,0,0-.847.1l-6.483,5.236c-9.775-1.247-10.572-8.876-10.548-8.777-.673-9.425,3.067-11.818,3.067-11.818,4.687-6.134,16.607-10.922,16.607-10.922,1-.7,1.4-.1,1.4-.1s10.921,5.386,11.47,6.084c.6.648.3,1.147.3,1.147l-1.8,1.446c-.4.1-.349.7-.349.7v12.717l4.638,3.092a1.136,1.136,0,0,1,.2,1.2l-6.683,5.236Zm-1.995-1.5c1.845.848,2.593-.4,2.593-.4l.1-14.761-5.735-3.74a6.752,6.752,0,0,0-4.389,5.485,11.061,11.061,0,0,0,.921,7.43C-832.8-4524.6-828.1-4522.28-828.1-4522.28Zm40.294,1.795c-1-.7-.349-1.1-.349-1.1l1.8-1.794s.3-25.534-.2-26.88a3.705,3.705,0,0,0-2.094-1.9c-.35-.548.1-.648.1-.648s10.971-3.54,12.368-3.89c1.446-.349,1.346.35,1.346.35s-.3,31.218-.05,32.315.748.8.748.8,2.544,1.8,3.092,2.044a.6.6,0,0,1,.3.847l-6.184,4.788S-787.012-4519.986-787.81-4520.485Zm82.683,3.74c-.2-1.047.449-1.2.449-1.2a.836.836,0,0,1,.7.9c-.2.35-.4.2-.4.2-.249-.249-.4-.05-.4-.05,0,.192-.064.247-.137.247A.415.415,0,0,1-705.126-4516.745Zm-.8-.648a.333.333,0,0,0-.25-.349c-.15-.6.149-.6.149-.6a.813.813,0,0,1,.8.149.92.92,0,0,1-.249,1.048.671.671,0,0,1-.086.005A.335.335,0,0,1-705.924-4517.394Zm1.646-1.1s.1-.8,1.047-.548c0,0,.349.448-.15.548,0,0-.1.15.1.4,0,0,.15.5-.2.5C-703.48-4517.593-704.179-4517.992-704.278-4518.491Zm-1.845-.249s-.3-.5.149-.6c0,0,.2,0,.1-.5a.357.357,0,0,1,.3-.349s.6-.05.6.9c0,0,.149.4-.1.449a1.517,1.517,0,0,1-.8.249.08.08,0,0,1-.032.005C-705.947-4518.585-706.024-4518.607-706.123-4518.739Zm1.2-1.347c0-.8.6-.25.6-.25a.384.384,0,0,0,.4.25c.548,0,.2.548.2.548a1.135,1.135,0,0,1-.7.45C-704.976-4519.737-704.927-4520.086-704.927-4520.086Zm-178.981-1.2a8.84,8.84,0,0,0,1.745-4.438v-17.2a1.013,1.013,0,0,1,.2-.7l8.927-4.688c1.845-.847,1.5.4,1.5.4v14.312a12.455,12.455,0,0,1-4.887,9.326c-1.4,1.895-6.732,4.089-6.732,4.089a2.055,2.055,0,0,1-.685.161C-884.677-4520.024-883.908-4521.283-883.908-4521.283Zm204.515-2.692a8.628,8.628,0,0,0,.847-2.194s.149-.748.25.1a6.266,6.266,0,0,1-.6,1.9s-.229.316-.384.316C-679.328-4523.859-679.369-4523.892-679.393-4523.976Zm-.948-.25a4.751,4.751,0,0,0,.948-2.194s.149-.6.249-.05a4.312,4.312,0,0,1-.948,2.394.685.685,0,0,1-.216.057C-680.386-4524.02-680.434-4524.062-680.341-4524.226Zm-.848-.1a6.259,6.259,0,0,0,1-2.544s.1-.35.15.1a6.675,6.675,0,0,1-.848,2.543.669.669,0,0,1-.259.108C-681.213-4524.117-681.249-4524.165-681.189-4524.324Zm89.449-3.943-.023-.047a.559.559,0,0,1,.027.053Zm-242.873,0-.024-.049a.513.513,0,0,1,.027.053Zm124.151-5.634c.549.947,1.1.5,1.1.5.109-.109.087-.429.065-.6a1.422,1.422,0,0,1-.464,0,1,1,0,0,1-.249-.7c-.25-.548-.4-.1-.4-.1a.748.748,0,0,1-1.2-.4c.7.2.948-.1.948-.1a.584.584,0,0,1,.848.5,1.263,1.263,0,0,0,.15.6,1.126,1.126,0,0,0,.748-.2c.2-.249-.1-.5-.1-.5a3.533,3.533,0,0,0-.2-.548c0-.8.548-.749.548-.749a.711.711,0,0,0,.6-.3.892.892,0,0,1-.549.947.5.5,0,0,0-.249.549c.349.6.05.648.05.648a.558.558,0,0,1-.388.33.524.524,0,0,0,.537.369,1.082,1.082,0,0,0,.549-.9c.249.7,0,.9,0,.9a.44.44,0,0,1-.15.649,1.7,1.7,0,0,1-.449,1.247C-710.412-4532.753-710.462-4533.9-710.462-4533.9Zm1.746,1.645a2.022,2.022,0,0,0,.2-1.146.953.953,0,0,1-.648-.1c-.149.549-.5.5-.5.5A2.259,2.259,0,0,0-708.717-4532.255Zm12.118-3.041.648-.6.7.6-.7.448Zm-2.643.249c0-.1.2-.249.5-.249.25-.05.5,0,.5.1,0,.149-.2.249-.448.3a.964.964,0,0,1-.159.014C-699.075-4534.884-699.242-4534.966-699.242-4535.047Zm5.935.1c-.249-.05-.5-.15-.449-.249,0-.149.2-.2.5-.149.249.05.5.149.449.249,0,.113-.113.168-.3.168A1.224,1.224,0,0,1-693.307-4534.947Zm135.3-12.168a8.532,8.532,0,0,1-1.2-5.885,6.61,6.61,0,0,1,3.042-3.79,3.4,3.4,0,0,1,3.641.25s2.344,1,1.346,4.688a11.154,11.154,0,0,1-5.586,5.436,1.047,1.047,0,0,1-.157.01A1.123,1.123,0,0,1-558.011-4547.115Zm-242.864-.4a8.529,8.529,0,0,1-1.2-5.885,6.6,6.6,0,0,1,3.042-3.789,3.524,3.524,0,0,1,3.64.25s2.344,1,1.347,4.737a10.962,10.962,0,0,1-5.586,5.387,1.043,1.043,0,0,1-.157.01A1.124,1.124,0,0,1-800.875-4547.515Z" transform="translate(886.503 4558.5)" fill="#78736b" stroke="rgba(0,0,0,0)" stroke-width="1"/>
</svg>
