<svg xmlns="http://www.w3.org/2000/svg" width="293.051" height="84.914" viewBox="0 0 293.051 84.914">
  <path id="Financial_Times" data-name="Financial Times" d="M212.955-4261.084V-4345h84.122v83.914Zm56.758-70.7v31.969a4.789,4.789,0,0,1-.264,1.8,1.963,1.963,0,0,1-.936,1.04c-.923.5-2.449.6-4.774.6v1.462h19v-1.462c-2.317,0-3.836-.1-4.743-.6-.841-.462-1.168-1.256-1.168-2.836v-31.969h2.224c7.5,0,9.66,1.146,10.55,9.216h1.208l-.191-11.187a27.778,27.778,0,0,1-5.4.318h-23.9a27.752,27.752,0,0,1-5.4-.318l-.19,11.187h1.207c.426-4.168,1.225-6.38,2.757-7.635a6.478,6.478,0,0,1,3.043-1.275,25.748,25.748,0,0,1,4.623-.306Zm-47.031-.191c1.814,0,2.934.086,3.662.541s1.041,1.3,1.041,2.828v28.854c0,1.528-.312,2.374-1.041,2.828s-1.849.541-3.662.541v1.462h17.732v-1.462c-2.728,0-4.1-.187-4.886-.667-.857-.522-1.025-1.409-1.025-2.765v-14.109h5.4a16.808,16.808,0,0,1,2.987.191,3.226,3.226,0,0,1,1.652.715c.766.7.958,1.924,1.208,3.861H246.9v-11.313h-1.144c-.25,1.937-.442,3.159-1.208,3.861a3.226,3.226,0,0,1-1.652.714,16.808,16.808,0,0,1-2.987.191h-5.4v-15.952h5.276a34.275,34.275,0,0,1,4.8.238,7.364,7.364,0,0,1,3.123,1.049,5.047,5.047,0,0,1,1.848,2.359,16.093,16.093,0,0,1,.972,4.171h1.08l-.127-9.6H222.683Zm184.167,57.736c-.559,0-.839.56-1.079,1.319h-.6l-.52-8.191.839-.041c.639,4.476,3.557,7.393,6.993,7.393,2.6,0,4.8-1.319,4.8-4.236,0-2.2-1.4-3.316-3.8-4.635l-3.8-2c-2.877-1.559-4.6-3.237-4.6-6.274,0-3.8,3.236-6.712,7.472-6.712,2.877,0,4.515,1.4,5.355,1.4.559,0,.8-.359,1.039-1.039h.519l.36,7.073-.759.041c-.439-3.557-2.957-6.273-6.233-6.273a3.8,3.8,0,0,0-4.116,3.755c0,2.318,1.718,3.237,3.636,4.316l3.277,1.758c3.117,1.678,5.315,3.4,5.315,6.633,0,4.276-3.676,7.354-8.312,7.354C409.407-4272.6,407.768-4274.236,406.849-4274.236Zm-43.716,1.639-7.752-22.418-1.718,19.021v.319c0,1.639,1.238,1.758,3.316,1.758v.92h-8.271v-.92c2.2,0,3.317-.16,3.516-2.077l1.718-18.261c0-.16.04-.32.04-.4,0-1.479-.919-1.638-2.917-1.638v-.919h8.072l5.714,16.823,5.874-16.823h7.912v.919c-2.038,0-2.877.16-2.877,1.6v.44l1.759,18.3c.16,1.838.919,2.037,3.076,2.037v.92H370.326v-.92c1.918,0,2.757-.16,2.757-1.518v-.519l-1.838-19.061-7.793,22.418Zm18.981-.4v-.92c2.2,0,2.957-.2,2.957-2.117v-18.142c0-1.917-.759-2.118-2.957-2.118v-.919h18.3l.08,6.034h-.68c-.559-4.4-1.878-4.915-6.673-4.915h-3.6v10.069h3.836c3.157,0,3.277-.52,3.6-3h.719v7.073h-.719c-.32-2.478-.44-2.957-3.6-2.957h-3.836v8.991c0,1.6.8,1.8,2.118,1.8h2c4.675,0,6.234-.28,7.592-5.794h.719l-.719,6.913Zm-45.274,0v-.92c2.2,0,2.957-.2,2.957-2.117v-18.142c0-1.917-.759-2.118-2.957-2.118v-.919h10.35v.919c-2.158,0-2.917.2-2.917,2.118v18.142c0,1.918.759,2.117,2.917,2.117v.92Zm-18.981,0v-.92c3,0,3.757-.279,3.757-2.157v-20.1h-1.479c-4.636,0-6.034.719-6.554,5.795h-.759l.12-7.033a17.4,17.4,0,0,0,3.4.2h15.025a17.4,17.4,0,0,0,3.4-.2l.12,7.033h-.759c-.559-5.076-1.918-5.795-6.633-5.795h-1.4v20.1c0,1.878.719,2.157,3.716,2.157v.92Zm106.253-48.062a12.364,12.364,0,0,1,12.468-12.707c3.236,0,4.995,1.4,5.874,1.4.559,0,.759-.36,1.039-1.04h.519l.36,7.233-.8.039c-.6-4-2.917-6.433-6.953-6.433-4.475,0-7.912,3.956-7.912,9.87,0,7.552,4.875,11.908,9.67,11.908a7.38,7.38,0,0,0,6.114-2.637l.639.639a10.479,10.479,0,0,1-8.711,4.036A12.145,12.145,0,0,1,424.112-4321.06Zm-5.475,12.308-16.7-20.739v17.182c0,1.959,1.359,2.238,3.636,2.238v.919H396.94v-.919c2.277,0,3.556-.279,3.556-2.238v-18.86c-1.119-1.119-1.878-1.279-3.676-1.279v-.919h7.792L417.6-4316.9v-13.307c0-1.958-1.359-2.238-3.636-2.238v-.919h8.632v.919c-2.278,0-3.557.28-3.557,2.238v21.458Zm-52.067,0-16.7-20.739v17.182c0,1.959,1.359,2.238,3.636,2.238v.919h-8.631v-.919c2.277,0,3.556-.279,3.556-2.238v-18.86c-1.119-1.119-1.878-1.279-3.677-1.279v-.919h7.792L365.53-4316.9v-13.307c0-1.958-1.359-2.238-3.636-2.238v-.919h8.631v.919c-2.277,0-3.556.28-3.556,2.238v21.458Zm119.2-.4v-.919c2.2,0,2.957-.2,2.957-2.118v-18.141c0-1.919-.76-2.119-2.957-2.119v-.919h10.35v.919c-2.2,0-2.917.2-2.917,2.119v18.221c0,1.4.52,1.838,2.038,1.838h2.2c4.036,0,5.354-.88,6.713-6.434h.8l-.8,7.553Zm-38.641,0v-.919c2.2,0,2.957-.2,2.957-2.118v-18.141c0-1.919-.759-2.119-2.957-2.119v-.919h10.35v.919c-2.158,0-2.917.2-2.917,2.119v18.141c0,1.918.759,2.118,2.917,2.118v.919Zm-114.125,0v-.919c2.2,0,2.957-.2,2.957-2.118v-18.141c0-1.919-.759-2.119-2.957-2.119v-.919h10.349v.919c-2.158,0-2.917.2-2.917,2.119v18.141c0,1.918.76,2.118,2.917,2.118v.919Zm-20.34,0v-.919c2.2,0,2.957-.2,2.957-2.118v-18.141c0-1.919-.759-2.119-2.957-2.119v-.919h18.1l.08,6.034h-.68c-.559-4.4-1.918-4.915-6.753-4.915H320.1v10.03h3.4c3.2,0,3.357-.52,3.677-3h.719v7.113h-.719c-.32-2.478-.48-3-3.677-3h-3.4v8.872c0,1.758.479,2.158,3.716,2.158v.919Zm161.518,0v-.918c1.958,0,2.757-.08,2.757-.879a3.537,3.537,0,0,0-.36-1.239l-2.6-6.673h-7.512l-2.358,6.474a2.976,2.976,0,0,0-.2.879c0,1.159,1.2,1.438,3.077,1.438v.918h-8.232v-.918c2.2,0,3.117-.32,3.836-2.278l7.952-21.219h2.2l8.511,21.379c.76,1.878,1.119,2.118,3.237,2.118v.918Zm-7.313-10.869H473.5l-3.436-8.792Zm-81.2,10.869v-.918c1.958,0,2.757-.08,2.757-.879a3.538,3.538,0,0,0-.36-1.239l-2.6-6.673h-7.512l-2.358,6.474a2.961,2.961,0,0,0-.2.879c0,1.159,1.2,1.438,3.077,1.438v.918h-8.232v-.918c2.2,0,3.117-.32,3.836-2.278l7.952-21.219h2.2l8.511,21.379c.76,1.878,1.119,2.118,3.237,2.118v.918Zm-7.312-10.869h6.633l-3.436-8.792Z" transform="translate(-212.455 4345.498)" fill="#78736b" stroke="rgba(0,0,0,0)" stroke-width="1"/>
</svg>
