<svg xmlns="http://www.w3.org/2000/svg" width="500.001" height="122.801" viewBox="0 0 500.001 122.801">
  <path id="Trustpilot_Logo" data-name="Trustpilot Logo" d="M257.389-5908.2v-62.031h9.461v6.135h.176a12.347,12.347,0,0,1,5.87-5.652,19.478,19.478,0,0,1,8.148-1.708,21.625,21.625,0,0,1,9.331,1.884,18.4,18.4,0,0,1,6.614,5.169,22.442,22.442,0,0,1,3.943,7.666,32.465,32.465,0,0,1,1.314,9.374,33.146,33.146,0,0,1-1.182,8.849,23.018,23.018,0,0,1-3.592,7.58,17.981,17.981,0,0,1-6.089,5.257,18.12,18.12,0,0,1-8.674,1.97,24.769,24.769,0,0,1-4.38-.393,18.938,18.938,0,0,1-4.2-1.271,16.471,16.471,0,0,1-3.725-2.234,12.356,12.356,0,0,1-2.847-3.2h-.176v22.605Zm12.835-50.991q-3.2,4.381-3.2,11.651a23.172,23.172,0,0,0,.832,6.353,14.271,14.271,0,0,0,2.5,5.039,12.432,12.432,0,0,0,3.985,3.329,11.351,11.351,0,0,0,5.388,1.226,11.144,11.144,0,0,0,5.782-1.4,12.2,12.2,0,0,0,3.9-3.636,14.739,14.739,0,0,0,2.19-5.081,25.774,25.774,0,0,0,.658-5.827,22.507,22.507,0,0,0-.79-5.958,16.215,16.215,0,0,0-2.364-5.125,12.237,12.237,0,0,0-3.943-3.592,10.719,10.719,0,0,0-5.432-1.357Q273.42-5963.57,270.224-5959.19Zm-325.7,42.083,14.135-43.506-37.012-26.9,45.746.007,14.131-43.5,14.132,43.5,45.745.007L4.4-5960.6l-22.864,16.612,26.067-6.75,10.928,33.633-37-26.883-37,26.886h0Zm415.139-8.4a20.635,20.635,0,0,1-7.183-4.951,21.109,21.109,0,0,1-4.468-7.535,28.976,28.976,0,0,1-1.533-9.637,28.707,28.707,0,0,1,1.533-9.551,21.135,21.135,0,0,1,4.468-7.535,20.631,20.631,0,0,1,7.183-4.949,24.693,24.693,0,0,1,9.681-1.8,24.7,24.7,0,0,1,9.682,1.8,20.659,20.659,0,0,1,7.183,4.949,21.179,21.179,0,0,1,4.468,7.535,28.746,28.746,0,0,1,1.533,9.551,29.015,29.015,0,0,1-1.533,9.637,21.153,21.153,0,0,1-4.468,7.535,20.662,20.662,0,0,1-7.183,4.951,24.7,24.7,0,0,1-9.682,1.795A24.693,24.693,0,0,1,359.665-5925.5Zm3.9-36.667a12.389,12.389,0,0,0-4.031,3.636,15.522,15.522,0,0,0-2.322,5.125,23.105,23.105,0,0,0-.743,5.783,22.924,22.924,0,0,0,.743,5.826,16.071,16.071,0,0,0,2.322,5.125,12.145,12.145,0,0,0,4.031,3.68,11.442,11.442,0,0,0,5.782,1.4,11.451,11.451,0,0,0,5.783-1.4,12.16,12.16,0,0,0,4.031-3.68,16.068,16.068,0,0,0,2.32-5.125,22.925,22.925,0,0,0,.745-5.826,23.108,23.108,0,0,0-.745-5.783,15.52,15.52,0,0,0-2.32-5.125,12.4,12.4,0,0,0-4.031-3.636,11.471,11.471,0,0,0-5.783-1.4A11.462,11.462,0,0,0,363.564-5962.169Zm-170.526,37.5a18.416,18.416,0,0,1-6.307-2.935,14.149,14.149,0,0,1-4.206-4.905,15.583,15.583,0,0,1-1.621-6.965h9.988q.438,4.381,3.33,6.133a13.1,13.1,0,0,0,6.92,1.751,26.522,26.522,0,0,0,3.2-.218,13.865,13.865,0,0,0,3.374-.833,6.335,6.335,0,0,0,2.584-1.8,4.314,4.314,0,0,0,.92-3.11,4.412,4.412,0,0,0-1.4-3.153,9.754,9.754,0,0,0-3.374-1.972,32.779,32.779,0,0,0-4.686-1.27q-2.629-.527-5.346-1.138a49.623,49.623,0,0,1-5.387-1.491,17.263,17.263,0,0,1-4.644-2.366,10.913,10.913,0,0,1-3.286-3.81,12.163,12.163,0,0,1-1.226-5.739,10.3,10.3,0,0,1,1.8-6.177,13.765,13.765,0,0,1,4.556-4.029,19.88,19.88,0,0,1,6.133-2.148,36.157,36.157,0,0,1,6.44-.613,29.55,29.55,0,0,1,6.7.745,18.2,18.2,0,0,1,5.782,2.41,14.175,14.175,0,0,1,4.294,4.336,15.053,15.053,0,0,1,2.146,6.44H209.29q-.7-3.592-3.286-4.819a13.644,13.644,0,0,0-5.914-1.226,21.167,21.167,0,0,0-2.5.174,11.593,11.593,0,0,0-2.715.659,5.691,5.691,0,0,0-2.148,1.4,3.346,3.346,0,0,0-.875,2.408,3.808,3.808,0,0,0,1.27,2.98,9.99,9.99,0,0,0,3.33,1.883,32.525,32.525,0,0,0,4.686,1.271q2.629.524,5.432,1.138,2.715.615,5.344,1.49a17.223,17.223,0,0,1,4.688,2.366,11.52,11.52,0,0,1,3.33,3.767,11.4,11.4,0,0,1,1.27,5.608,12.169,12.169,0,0,1-1.841,6.832,14.519,14.519,0,0,1-4.774,4.556,21.681,21.681,0,0,1-6.528,2.541,32.958,32.958,0,0,1-7.1.789A30.853,30.853,0,0,1,193.038-5924.671Zm-54.932-3.46q-3.987-4.423-3.987-13.362v-28.737h9.988v27.774q0,5.96,2.278,8.411a8.291,8.291,0,0,0,6.4,2.452,12.614,12.614,0,0,0,5.257-.962,9.287,9.287,0,0,0,3.416-2.585,9.919,9.919,0,0,0,1.884-3.9,20.247,20.247,0,0,0,.569-4.907v-26.285H173.9v45.3h-9.813v-6.309h-.176a13.724,13.724,0,0,1-5.476,5.476,14.883,14.883,0,0,1-7.4,2.058Q142.092-5923.708,138.105-5928.131Zm270.71,2.891a8.44,8.44,0,0,1-3.767-2.19,7.543,7.543,0,0,1-1.841-3.636,27.3,27.3,0,0,1-.569-4.995v-26.721H395.1v-7.449h7.535v-13.58h9.988v13.58h9.024v7.449h-9.024v24.181a24.453,24.453,0,0,0,.13,2.715,4.683,4.683,0,0,0,.615,1.929,2.916,2.916,0,0,0,1.445,1.182,7.086,7.086,0,0,0,2.628.4c.7,0,1.4-.014,2.1-.045a10.372,10.372,0,0,0,2.1-.306v7.71q-1.666.175-3.242.35a29.391,29.391,0,0,1-3.242.175A22.1,22.1,0,0,1,408.815-5925.241Zm-171.271,0a8.448,8.448,0,0,1-3.767-2.19,7.543,7.543,0,0,1-1.841-3.636,27.3,27.3,0,0,1-.569-4.995v-26.721h-7.535v-7.449h7.535v-13.58h9.988v13.58h9.024v7.449h-9.024v24.181a24.054,24.054,0,0,0,.132,2.715,4.683,4.683,0,0,0,.613,1.929,2.923,2.923,0,0,0,1.445,1.182,7.09,7.09,0,0,0,2.629.4c.7,0,1.4-.014,2.1-.045a10.372,10.372,0,0,0,2.1-.306v7.71q-1.664.175-3.242.35a29.363,29.363,0,0,1-3.241.175A22.106,22.106,0,0,1,237.545-5925.241Zm91.237.308v-62.555h9.988v62.555Zm-18.914,0v-45.3h9.988v45.3Zm-208.354,0v-45.3h9.375v8.762h.176a10.064,10.064,0,0,1,1.707-3.592,16.632,16.632,0,0,1,3.067-3.2,15.484,15.484,0,0,1,3.987-2.322,11.956,11.956,0,0,1,4.468-.876,22.03,22.03,0,0,1,2.41.087q.656.089,1.358.176v9.637q-1.051-.175-2.146-.308a17.954,17.954,0,0,0-2.146-.13,11.5,11.5,0,0,0-4.775,1.006,10.991,10.991,0,0,0-3.9,2.979,14.6,14.6,0,0,0-2.628,4.863,20.976,20.976,0,0,0-.964,6.658v21.554Zm-28.648,0v-53.094h-19.8v-9.461h50.641v9.461H83.818v53.094Zm237-53.094v-9.461h9.988v9.461Z" transform="translate(78.351 6031)" fill="#b7b0a2"/>
</svg>
