<svg id="Group_2" data-name="Group 2" xmlns="http://www.w3.org/2000/svg" xmlns:xlink="http://www.w3.org/1999/xlink" width="353.696" height="224" viewBox="0 0 353.696 224">
  <defs>
    <clipPath id="clip-path">
      <rect id="Rectangle_2" data-name="Rectangle 2" width="353.696" height="224" fill="none"/>
    </clipPath>
  </defs>
  <g id="Group_1" data-name="Group 1" clip-path="url(#clip-path)">
    <path id="Path_1" data-name="Path 1" d="M11.236,41.522H25.955c15.486,0,24.845-7.828,24.845-20.761S41.44,0,25.955,0H2.727V59.56h8.509Zm0-34.119H25.7c10.891,0,16.592,4.85,16.592,13.358S36.591,34.12,25.7,34.12H11.236Z" transform="translate(-0.798 0)" fill="#ea2427"/>
    <path id="Path_2" data-name="Path 2" d="M89.88,42.9c0-9.87,5.445-15.23,14.209-15.23a14.452,14.452,0,0,1,1.872.085V19.846c-7.913,0-13.529,2.723-16.421,8V20.272H81.712V65.367H89.88Z" transform="translate(-23.91 -5.807)" fill="#ea2427"/>
    <path id="Path_3" data-name="Path 3" d="M142.877,65.877c13.528,0,23.4-9.614,23.4-23.057s-9.87-22.973-23.4-22.973-23.483,9.529-23.483,22.973,9.955,23.057,23.483,23.057m0-38.883c8.678,0,15.145,6.211,15.145,15.826S151.556,58.73,142.877,58.73s-15.23-6.3-15.23-15.911,6.552-15.826,15.23-15.826" transform="translate(-34.936 -5.807)" fill="#ea2427"/>
    <path id="Path_4" data-name="Path 4" d="M295.265,65.877c7.488,0,13.7-2.552,17.783-7.317l-4.51-5.275A16.837,16.837,0,0,1,295.52,58.73c-8.934,0-15.315-5.275-16.336-13.188h36.586c.085-.766.17-1.787.17-2.467,0-13.869-9.274-23.229-22.292-23.229s-22.632,9.615-22.632,22.973c0,13.443,9.7,23.057,24.249,23.057m-1.616-39.139a14.063,14.063,0,0,1,14.465,12.933H279.184a14.056,14.056,0,0,1,14.464-12.933" transform="translate(-79.301 -5.807)" fill="#ea2427"/>
    <path id="Path_5" data-name="Path 5" d="M354.418,42.9c0-9.87,5.445-15.23,14.209-15.23a14.453,14.453,0,0,1,1.872.085V19.846c-7.913,0-13.529,2.723-16.421,8V20.272H346.25V65.367h8.168Z" transform="translate(-101.315 -5.807)" fill="#ea2427"/>
    <path id="Path_6" data-name="Path 6" d="M393.491,47.846c0,9.1,5.19,14.124,14.294,14.124,3.659,0,7.4-1.021,9.87-3.148L415.1,52.952a10.289,10.289,0,0,1-6.381,2.127c-4.51,0-7.062-2.723-7.062-7.573V23.087h12.933V16.365H401.659V6.495h-8.168v9.87h-7.658v6.722h7.658Z" transform="translate(-112.898 -1.9)" fill="#ea2427"/>
    <path id="Path_7" data-name="Path 7" d="M450.163,68.606c-2.212,5.19-4.679,6.977-8.593,6.977a11.54,11.54,0,0,1-8.083-3.318L430,78.391c2.808,2.723,7.232,4.169,11.572,4.169,6.891,0,12.082-2.978,16.081-12.507l21.866-49.6h-8l-15.57,36.076L440.208,20.448H431.7l19.91,45.01Z" transform="translate(-125.821 -5.983)" fill="#ea2427"/>
    <path id="Path_8" data-name="Path 8" d="M0,115.572H17.782v47.392H32.928V115.572H50.881V103.32H0Z" transform="translate(0 -30.232)" fill="#ea2427"/>
    <path id="Path_9" data-name="Path 9" d="M108.733,163.68c16.677,0,27.142-9.955,27.142-25.7V103.44h-15.06v34.545c0,8.083-4.85,13.017-12,13.017-7.232,0-12.422-4.935-12.422-13.017V103.44H81.251v34.545c0,15.74,10.721,25.7,27.482,25.7" transform="translate(-23.775 -30.267)" fill="#ea2427"/>
    <path id="Path_10" data-name="Path 10" d="M167.908,78.98v59.56h15.145V121.778h11.912l8.849,16.762H221l-12.507-19.655c6.977-3.488,10.805-10.04,10.805-19.144,0-12.531-8.042-19.9-22.185-20.687V58.56c3.743,4.85,9.359,7.317,15.74,7.317,13.188,0,22.8-9.189,22.8-23.057,0-13.784-9.615-22.973-22.8-22.973-6.637,0-12.423,2.552-16.081,7.572V20.272h-7.827V78.98Zm37.011,21.271c0,6.3-3.829,9.615-10.38,9.615H183.053V90.892h11.487c6.551,0,10.38,3.149,10.38,9.36m7.254-73.258c8.678,0,15.23,6.3,15.23,15.826,0,9.614-6.552,15.911-15.23,15.911-8.593,0-15.145-6.3-15.145-15.911,0-9.529,6.552-15.826,15.145-15.826" transform="translate(-49.131 -5.807)" fill="#ea2427"/>
    <path id="Path_11" data-name="Path 11" d="M291,163H309.12l-23.568-34.884,22.122-24.675H290.146l-22.8,25.78V103.44H252.2V163h15.145V148.365l7.913-8.764Z" transform="translate(-73.795 -30.267)" fill="#ea2427"/>
    <path id="Path_12" data-name="Path 12" d="M385.88,151.088H353.463v-12h28.418V127.179H353.463V115.352h31.481V103.44H338.318V163H385.88Z" transform="translate(-98.994 -30.267)" fill="#ea2427"/>
    <path id="Path_13" data-name="Path 13" d="M437.952,129.391,423.573,103.44H408.428L430.464,144.2V163h15.06V143.77l21.612-40.33H451.991Z" transform="translate(-119.509 -30.267)" fill="#ea2427"/>
    <path id="Path_14" data-name="Path 14" d="M23.447,241.067c.4-4.358.832-5.308,1.783-5.308s2.377.871,3.8,2.1h.079a3.933,3.933,0,0,0,.753-1.783c0-1.228-1.347-2.179-3.248-2.179-3.169,0-5.665,2.733-6.338,7.171l-3.13.119.079.4c.158.753.792,1.228,2.813,1.347l-1.426,12.123c-.673,5.822-1.149,6.615-1.743,6.615a6.16,6.16,0,0,1-3.843-1.981,2.255,2.255,0,0,0-1.307,1.9c0,1.108,1.585,1.9,3.644,1.9a4.72,4.72,0,0,0,3.882-1.981c1.228-1.5,2.179-3.883,2.813-8.835l1.228-9.666h3.248l.475-1.94Z" transform="translate(-3.43 -68.44)" fill="#ea2427"/>
    <path id="Path_15" data-name="Path 15" d="M41.128,243.584c-4,0-8.121,4.041-8.121,10.1,0,3.725,2.218,6.023,5.427,6.023,4,0,8.121-4.041,8.121-10.1,0-3.724-2.258-6.021-5.427-6.021m-1.862,14.182c-1.505,0-2.733-1.466-2.733-4.833,0-4.794,1.624-7.409,3.724-7.409,1.545,0,2.773,1.466,2.773,4.833,0,4.833-1.664,7.408-3.763,7.408" transform="translate(-9.658 -71.275)" fill="#ea2427"/>
    <path id="Path_16" data-name="Path 16" d="M64.109,243.584c-1.228,0-3.328,1.9-4.476,5.03h-.04c0-3.961-.713-5.03-1.822-5.03a10.222,10.222,0,0,0-3.8,1.109l.357.991a3.751,3.751,0,0,1,2.218.395,3.892,3.892,0,0,1,.158,1.268,38.642,38.642,0,0,1-.515,4.952l-1.149,7.409,3.8-.318a30.071,30.071,0,0,1,.436-6.932c.792-3.844,2.773-5.308,6.536-5.546-.04-2.06-.713-3.328-1.7-3.328" transform="translate(-15.791 -71.275)" fill="#ea2427"/>
    <path id="Path_17" data-name="Path 17" d="M85.233,254.495c-.436-.238-.673-.673-.673-1.5a31.965,31.965,0,0,1,.555-4.4l2.1-13.468a2.482,2.482,0,0,0-1.307-1.228,10.615,10.615,0,0,0-5.506,1.623l.555,1.109a4.459,4.459,0,0,1,1.664-.316c.594,0,.99.238.99,1.07a69.2,69.2,0,0,1-1.109,8.4c-.555,3.447-1.109,6.774-1.109,7.923a3.106,3.106,0,0,0,2.377,3.169,8.045,8.045,0,0,0,4.041-1.941l-.4-1.07a7.216,7.216,0,0,1-2.179.633" transform="translate(-23.526 -68.44)" fill="#ea2427"/>
    <path id="Path_18" data-name="Path 18" d="M96.959,237.179a1.573,1.573,0,0,0,1.585,1.7,2.013,2.013,0,0,0,2.06-2.218,1.588,1.588,0,0,0-1.545-1.7,2.164,2.164,0,0,0-2.1,2.218" transform="translate(-28.371 -68.751)" fill="#ea2427"/>
    <path id="Path_19" data-name="Path 19" d="M100.026,257.766l-.4-1.109a6.585,6.585,0,0,1-2.179.673c-.436-.238-.673-.673-.673-1.5a28.466,28.466,0,0,1,.792-4.833,25.945,25.945,0,0,0,.594-4.437c0-1.941-.911-2.972-2.1-2.972a10.243,10.243,0,0,0-3.922,1.15l.317.951a5.139,5.139,0,0,1,2.3.357,4.13,4.13,0,0,1,.2,1.228,32.18,32.18,0,0,1-.713,5.109,23.686,23.686,0,0,0-.634,4.16,3.188,3.188,0,0,0,2.337,3.169,8.018,8.018,0,0,0,4.08-1.941" transform="translate(-26.962 -71.275)" fill="#ea2427"/>
    <path id="Path_20" data-name="Path 20" d="M112.519,241.067h-3.565c.4-4.358.832-5.308,1.783-5.308s2.377.871,3.8,2.1h.079a3.933,3.933,0,0,0,.753-1.783c0-1.228-1.347-2.179-3.248-2.179-3.169,0-5.665,2.733-6.338,7.171l-3.13.119.079.4c.158.753.792,1.228,2.813,1.347l-1.426,12.123c-.673,5.822-1.149,6.615-1.743,6.615a6.16,6.16,0,0,1-3.843-1.981,2.255,2.255,0,0,0-1.307,1.9c0,1.108,1.585,1.9,3.644,1.9a4.72,4.72,0,0,0,3.882-1.981c1.228-1.5,2.179-3.883,2.813-8.835l1.228-9.666h3.248Z" transform="translate(-28.45 -68.44)" fill="#ea2427"/>
    <path id="Path_21" data-name="Path 21" d="M130.209,246.712a3.129,3.129,0,0,0-3.446-3.13c-4.556,0-8.6,5.427-8.6,10.735,0,3.408,2.179,5.388,5.071,5.388a10.238,10.238,0,0,0,5.784-2.179l-.436-1.109a10.48,10.48,0,0,1-3.644.713c-2.179,0-3.367-1.031-3.367-3.685a2.853,2.853,0,0,1,.04-.713c5.546-.832,8.6-3.208,8.6-6.021m-4.635-1.228c.792,0,1.347.475,1.347,1.625,0,1.941-1.505,3.446-5.189,4.239.317-3.447,2.258-5.864,3.843-5.864" transform="translate(-34.576 -71.274)" fill="#ea2427"/>
    <path id="Path_22" data-name="Path 22" d="M143.982,250.2c-2.337-1.7-2.852-2.3-2.852-3.011,0-.673.872-1.386,1.981-1.386a4.012,4.012,0,0,1,3.209,1.941,2.056,2.056,0,0,0,1.347-1.822c0-1.188-1.347-2.338-3.367-2.338-2.694,0-5.586,2.854-5.586,4.992,0,1.307.436,2.3,2.733,4.08,2.654,2.02,3.248,2.694,3.248,3.485,0,.872-.753,1.545-2.06,1.545a4.292,4.292,0,0,1-4.159-4.04l-.079-.04a3.107,3.107,0,0,0-1.9,2.773c0,1.744,1.783,3.367,4.674,3.367,3.446,0,6.1-2.535,6.1-5.149,0-1.307-.634-2.377-3.288-4.4" transform="translate(-39.939 -71.274)" fill="#ea2427"/>
    <path id="Path_23" data-name="Path 23" d="M163.9,244.154l.475-1.94h-3.565l.634-4.4-3.446,1.347-.475,3.13-2.813.079.079.4c.119.673.594,1.148,2.5,1.307l-.99,7.012a24.065,24.065,0,0,0-.4,3.842,2.794,2.794,0,0,0,3.011,3.091A8.622,8.622,0,0,0,163.9,255.8l-.4-1.11a7.525,7.525,0,0,1-3.09.832c-.792,0-1.188-.435-1.188-1.5,0-1.109.2-2.694,1.307-9.865Z" transform="translate(-45.268 -69.587)" fill="#ea2427"/>
    <path id="Path_24" data-name="Path 24" d="M181.654,253.725c2.06-4.872,2.575-6.774,2.575-8,0-1.267-.555-1.979-1.505-2.059a3.293,3.293,0,0,0-1.07.039,8.01,8.01,0,0,0-2.852,1.031l.317.951a9.525,9.525,0,0,1,2.06.395,50.65,50.65,0,0,1-2.575,8.2c-.753,1.861-1.783,2.852-2.535,2.852-.673,0-1.03-.95-1.03-3.288,0-1.822.158-3.486.158-5.268,0-4.121-.951-4.992-2.139-4.992a9.688,9.688,0,0,0-3.882,1.15l.317.951a4.39,4.39,0,0,1,2.179.357,10.13,10.13,0,0,1,.4,3.169c0,2.614-.079,3.961-.079,5.071,0,3.565,1.109,4.912,2.654,4.912a4.187,4.187,0,0,0,2.694-1.268l.158.04c-1.585,4.041-3.209,6.458-4.08,6.458a7.487,7.487,0,0,1-4.556-1.9,2.293,2.293,0,0,0-1.188,1.9c0,1.108,1.7,1.9,3.526,1.9,3.724,0,6.338-2.576,10.458-12.6" transform="translate(-49.062 -71.275)" fill="#ea2427"/>
    <path id="Path_25" data-name="Path 25" d="M193.02,253.7a3.106,3.106,0,0,0,2.377,3.169,8.045,8.045,0,0,0,4.041-1.941l-.4-1.069a7.236,7.236,0,0,1-2.179.632c-.436-.238-.673-.673-.673-1.5a31.963,31.963,0,0,1,.555-4.4l2.1-13.468a2.485,2.485,0,0,0-1.307-1.228,10.615,10.615,0,0,0-5.506,1.623l.555,1.109a4.459,4.459,0,0,1,1.664-.316c.594,0,.99.238.99,1.07a69.2,69.2,0,0,1-1.109,8.4c-.555,3.447-1.109,6.774-1.109,7.923" transform="translate(-56.189 -68.44)" fill="#ea2427"/>
    <path id="Path_26" data-name="Path 26" d="M215.663,257.528l-.436-1.109a10.48,10.48,0,0,1-3.644.713c-2.179,0-3.367-1.031-3.367-3.685a2.853,2.853,0,0,1,.04-.713c5.546-.832,8.6-3.208,8.6-6.021a3.129,3.129,0,0,0-3.446-3.13c-4.556,0-8.6,5.427-8.6,10.735,0,3.408,2.179,5.388,5.071,5.388a10.238,10.238,0,0,0,5.784-2.179m-3.446-12.043c.792,0,1.347.475,1.347,1.625,0,1.941-1.505,3.446-5.189,4.239.317-3.447,2.258-5.864,3.843-5.864" transform="translate(-59.929 -71.274)" fill="#ea2427"/>
    <path id="Path_27" data-name="Path 27" d="M251.762,250.637a4.843,4.843,0,0,0,1.981.475c1.7,0,3.011-1.623,2.773-4.12l-.872-.317c-.04,1.267-.515,1.981-1.7,1.981a5.655,5.655,0,0,1-2.179-.594,6.031,6.031,0,0,0-2.5-.714c-1.585,0-2.813.99-3.288,3.566l.792.475c.4-1.268.911-1.743,1.862-1.743a3.375,3.375,0,0,1,1.9.555c-.673,4.159-3.248,6.852-6.932,6.852-3.011,0-5.308-1.663-6.259-5.11l4.6-2.258c5.863-2.931,7.051-4.873,7.051-6.5a1.9,1.9,0,0,0-1.585-1.9,9.032,9.032,0,0,1-4.239,6.3,3.228,3.228,0,0,0,.713-2.02c0-1.545-1.109-2.654-3.288-2.654-3.724,0-6.774,3.447-6.774,8.161,0,4.833,3.209,8.041,8.319,8.041,5.189,0,8.6-3.248,9.626-8.477m-14.776-1.267c0-3.091,1.505-4.952,2.971-4.952.792,0,1.347.594,1.347,1.783a4.528,4.528,0,0,1-2.813,4l-1.386.713a8.148,8.148,0,0,1-.119-1.545" transform="translate(-68.417 -70.603)" fill="#ea2427"/>
    <path id="Path_28" data-name="Path 28" d="M277.283,256.538a3.188,3.188,0,0,0,2.337,3.169,8.017,8.017,0,0,0,4.08-1.941l-.4-1.109a6.588,6.588,0,0,1-2.179.673c-.436-.238-.673-.673-.673-1.5a28.466,28.466,0,0,1,.792-4.833,25.929,25.929,0,0,0,.594-4.436c0-1.941-.911-2.972-2.1-2.972a10.244,10.244,0,0,0-3.922,1.15l.317.95a5.139,5.139,0,0,1,2.3.357,4.135,4.135,0,0,1,.2,1.228,32.179,32.179,0,0,1-.713,5.109,23.694,23.694,0,0,0-.634,4.16" transform="translate(-80.706 -71.275)" fill="#ea2427"/>
    <path id="Path_29" data-name="Path 29" d="M280.633,237.179a1.573,1.573,0,0,0,1.585,1.7,2.013,2.013,0,0,0,2.06-2.218,1.588,1.588,0,0,0-1.545-1.7,2.164,2.164,0,0,0-2.1,2.218" transform="translate(-82.115 -68.751)" fill="#ea2427"/>
    <path id="Path_30" data-name="Path 30" d="M304.768,257.766l-.4-1.07a6.75,6.75,0,0,1-2.1.633,1.472,1.472,0,0,1-.753-1.5,28.832,28.832,0,0,1,.713-4.4,24.779,24.779,0,0,0,.594-4.159c0-2.259-1.347-3.685-3.05-3.685-1.862,0-3.843,1.7-5.784,5.03h-.079c0-3.961-.713-5.03-1.822-5.03a9.517,9.517,0,0,0-3.843,1.15l.317.951a4.365,4.365,0,0,1,2.337.4,4.273,4.273,0,0,1,.158,1.268,31.093,31.093,0,0,1-.594,5.031l-1.109,7.329,3.763-.318a26.468,26.468,0,0,1,.594-6.972c.634-3.089,3.644-6.021,5.348-6.219a2.607,2.607,0,0,1,.515,1.861,26.33,26.33,0,0,1-.594,4.318,24.041,24.041,0,0,0-.634,4.2,3.2,3.2,0,0,0,2.377,3.13,7.892,7.892,0,0,0,4.041-1.941" transform="translate(-84.344 -71.275)" fill="#ea2427"/>
    <path id="Path_31" data-name="Path 31" d="M317.378,259.708c4.2,0,9.389-8.28,9.389-13.985,0-1.386-.634-2.138-1.783-2.138a7.518,7.518,0,0,0-3.644,1.15l.317.951a10.034,10.034,0,0,1,1.7.395c-.2,6.537-3.288,11.569-4.872,11.569-.594,0-.911-.674-.911-3.8,0-1.822.158-3.486.158-5.268,0-4.121-.951-4.992-2.139-4.992a9.688,9.688,0,0,0-3.882,1.15l.317.951a4.39,4.39,0,0,1,2.179.357,10.13,10.13,0,0,1,.4,3.169c0,2.614-.079,3.961-.079,5.071,0,4.437.872,5.427,2.852,5.427" transform="translate(-91.21 -71.275)" fill="#ea2427"/>
    <path id="Path_32" data-name="Path 32" d="M346.464,246.712a3.129,3.129,0,0,0-3.446-3.13c-4.556,0-8.6,5.427-8.6,10.735,0,3.408,2.179,5.388,5.071,5.388a10.238,10.238,0,0,0,5.784-2.179l-.436-1.109a10.479,10.479,0,0,1-3.644.713c-2.179,0-3.367-1.031-3.367-3.685a2.853,2.853,0,0,1,.04-.713c5.546-.832,8.6-3.208,8.6-6.021m-4.635-1.228c.792,0,1.347.475,1.347,1.625,0,1.941-1.505,3.446-5.189,4.239.317-3.447,2.258-5.864,3.843-5.864" transform="translate(-97.854 -71.274)" fill="#ea2427"/>
    <path id="Path_33" data-name="Path 33" d="M359.365,245.8a4.012,4.012,0,0,1,3.209,1.941,2.057,2.057,0,0,0,1.347-1.822c0-1.188-1.347-2.338-3.367-2.338-2.694,0-5.586,2.853-5.586,4.992,0,1.307.436,2.3,2.733,4.08,2.654,2.02,3.248,2.694,3.248,3.485,0,.872-.753,1.545-2.06,1.545a4.292,4.292,0,0,1-4.159-4.04l-.079-.04a3.106,3.106,0,0,0-1.9,2.773c0,1.744,1.783,3.367,4.674,3.367,3.446,0,6.1-2.535,6.1-5.149,0-1.307-.634-2.377-3.288-4.4-2.337-1.7-2.852-2.3-2.852-3.011,0-.673.871-1.386,1.981-1.386" transform="translate(-103.217 -71.275)" fill="#ea2427"/>
    <path id="Path_34" data-name="Path 34" d="M377.694,237.816l-3.446,1.347-.475,3.13-2.813.079.079.4c.119.673.594,1.148,2.5,1.307l-.99,7.012a24.068,24.068,0,0,0-.4,3.842,2.794,2.794,0,0,0,3.011,3.091,8.622,8.622,0,0,0,4.991-2.219l-.4-1.11a7.525,7.525,0,0,1-3.09.832c-.792,0-1.188-.435-1.188-1.5,0-1.109.2-2.694,1.307-9.865h3.367l.475-1.94h-3.565Z" transform="translate(-108.546 -69.587)" fill="#ea2427"/>
    <path id="Path_35" data-name="Path 35" d="M408.447,257.329a1.517,1.517,0,0,1-.713-1.5,24.587,24.587,0,0,1,.713-4.4,24.767,24.767,0,0,0,.594-4.159c0-2.259-1.347-3.685-3.13-3.685-1.505,0-3.526,1.585-5.348,5.031h-.079c.04-.436.079-.91.079-1.346,0-2.021-.753-3.685-2.694-3.685-1.664,0-3.763,1.545-5.664,5.031h-.08c0-3.961-.713-5.031-1.822-5.031a9.528,9.528,0,0,0-3.843,1.15l.317.951a4.363,4.363,0,0,1,2.337.4,4.075,4.075,0,0,1,.158,1.268,32.037,32.037,0,0,1-.555,4.952l-1.149,7.408,3.8-.318a25.113,25.113,0,0,1,.555-6.971c.634-3.051,3.8-6.021,5.269-6.219a2.626,2.626,0,0,1,.476,1.86,39.478,39.478,0,0,1-.515,4.2l-1.189,7.448,3.763-.318a28.554,28.554,0,0,1,.555-6.971c.634-3.051,3.724-6.062,5.031-6.219a2.627,2.627,0,0,1,.475,1.86,22.175,22.175,0,0,1-.555,4.279,20.793,20.793,0,0,0-.673,4.239,3.209,3.209,0,0,0,2.337,3.129,8.018,8.018,0,0,0,4.08-1.941l-.4-1.07a7.318,7.318,0,0,1-2.139.633" transform="translate(-113.081 -71.274)" fill="#ea2427"/>
    <path id="Path_36" data-name="Path 36" d="M435.381,246.712a3.129,3.129,0,0,0-3.446-3.13c-4.556,0-8.6,5.427-8.6,10.735,0,3.408,2.179,5.388,5.071,5.388a10.238,10.238,0,0,0,5.784-2.179l-.436-1.109a10.48,10.48,0,0,1-3.645.713c-2.179,0-3.367-1.031-3.367-3.685a2.853,2.853,0,0,1,.04-.713c5.546-.832,8.6-3.208,8.6-6.021m-4.635-1.228c.792,0,1.347.475,1.347,1.625,0,1.941-1.505,3.446-5.189,4.239.317-3.447,2.258-5.864,3.843-5.864" transform="translate(-123.872 -71.274)" fill="#ea2427"/>
    <path id="Path_37" data-name="Path 37" d="M456.439,257.329a1.472,1.472,0,0,1-.753-1.5,28.85,28.85,0,0,1,.713-4.4,24.766,24.766,0,0,0,.594-4.159c0-2.259-1.347-3.685-3.05-3.685-1.862,0-3.843,1.7-5.784,5.031h-.079c0-3.961-.713-5.031-1.822-5.031a9.528,9.528,0,0,0-3.843,1.15l.317.951a4.365,4.365,0,0,1,2.337.4,4.275,4.275,0,0,1,.158,1.268,31.1,31.1,0,0,1-.594,5.03l-1.109,7.329,3.763-.318a26.461,26.461,0,0,1,.594-6.971c.634-3.09,3.644-6.021,5.348-6.219a2.6,2.6,0,0,1,.515,1.86,26.317,26.317,0,0,1-.594,4.318,24.04,24.04,0,0,0-.634,4.2,3.2,3.2,0,0,0,2.377,3.129,7.892,7.892,0,0,0,4.041-1.941l-.4-1.07a6.752,6.752,0,0,1-2.1.633" transform="translate(-129.454 -71.274)" fill="#ea2427"/>
    <path id="Path_38" data-name="Path 38" d="M474.127,237.816l-3.446,1.347-.475,3.13-2.813.079.079.4c.119.673.594,1.148,2.5,1.307l-.99,7.012a24.068,24.068,0,0,0-.4,3.842,2.794,2.794,0,0,0,3.011,3.091,8.622,8.622,0,0,0,4.991-2.219l-.4-1.11a7.525,7.525,0,0,1-3.09.832c-.792,0-1.188-.435-1.188-1.5,0-1.109.2-2.694,1.307-9.865h3.367l.475-1.94h-3.565Z" transform="translate(-136.763 -69.587)" fill="#ea2427"/>
    <path id="Path_39" data-name="Path 39" d="M158.281,295.8a4.012,4.012,0,0,1,3.209,1.941,2.057,2.057,0,0,0,1.347-1.822c0-1.188-1.347-2.338-3.367-2.338-2.694,0-5.586,2.853-5.586,4.992,0,1.307.436,2.3,2.733,4.08,2.654,2.02,3.248,2.694,3.248,3.485,0,.872-.753,1.545-2.06,1.545a4.292,4.292,0,0,1-4.159-4.04l-.079-.04a3.106,3.106,0,0,0-1.9,2.773c0,1.744,1.783,3.367,4.674,3.367,3.446,0,6.1-2.535,6.1-5.149,0-1.307-.634-2.377-3.288-4.4-2.337-1.7-2.852-2.3-2.852-3.011,0-.673.872-1.386,1.981-1.386" transform="translate(-44.378 -85.905)" fill="#ea2427"/>
    <path id="Path_40" data-name="Path 40" d="M174.636,287.179a1.573,1.573,0,0,0,1.585,1.7,2.013,2.013,0,0,0,2.06-2.218,1.588,1.588,0,0,0-1.545-1.7,2.164,2.164,0,0,0-2.1,2.218" transform="translate(-51.1 -83.382)" fill="#ea2427"/>
    <path id="Path_41" data-name="Path 41" d="M175.128,307.329c-.436-.238-.673-.673-.673-1.5a28.467,28.467,0,0,1,.792-4.833,25.939,25.939,0,0,0,.594-4.436c0-1.942-.911-2.972-2.1-2.972a10.256,10.256,0,0,0-3.922,1.15l.317.951a5.139,5.139,0,0,1,2.3.357,4.13,4.13,0,0,1,.2,1.228,32.18,32.18,0,0,1-.713,5.11,23.687,23.687,0,0,0-.634,4.16,3.188,3.188,0,0,0,2.337,3.169,8.018,8.018,0,0,0,4.08-1.941l-.4-1.109a6.587,6.587,0,0,1-2.179.673" transform="translate(-49.691 -85.905)" fill="#ea2427"/>
    <path id="Path_42" data-name="Path 42" d="M196.275,307.329a1.472,1.472,0,0,1-.753-1.5,28.849,28.849,0,0,1,.713-4.4,24.767,24.767,0,0,0,.594-4.159c0-2.259-1.347-3.685-3.05-3.685-1.862,0-3.843,1.7-5.784,5.031h-.079c0-3.961-.713-5.031-1.822-5.031a9.528,9.528,0,0,0-3.843,1.15l.317.951a4.365,4.365,0,0,1,2.337.4,4.274,4.274,0,0,1,.158,1.268,31.1,31.1,0,0,1-.594,5.03l-1.109,7.329,3.763-.318a26.463,26.463,0,0,1,.594-6.971c.634-3.09,3.645-6.021,5.348-6.219a2.6,2.6,0,0,1,.515,1.86,26.318,26.318,0,0,1-.594,4.318,24.038,24.038,0,0,0-.634,4.2,3.2,3.2,0,0,0,2.377,3.129,7.892,7.892,0,0,0,4.041-1.941l-.4-1.07a6.752,6.752,0,0,1-2.1.633" transform="translate(-53.328 -85.905)" fill="#ea2427"/>
    <path id="Path_43" data-name="Path 43" d="M216.276,293.584c-4,0-8.359,4.793-8.359,10.735,0,3.407,2.218,5.388,4.991,5.388a10.238,10.238,0,0,0,5.784-2.179l-.4-1.109a10.878,10.878,0,0,1-3.684.712c-1.981,0-3.288-.95-3.288-4.08a12.051,12.051,0,0,1,1.426-5.9,2.513,2.513,0,0,1,2.3-1.387c.911,0,1.783.674,2.813,2.06a2.515,2.515,0,0,0,1.505-2.138c0-1.07-1.07-2.1-3.09-2.1" transform="translate(-60.838 -85.905)" fill="#ea2427"/>
    <path id="Path_44" data-name="Path 44" d="M237.774,296.712a3.129,3.129,0,0,0-3.446-3.129c-4.556,0-8.6,5.427-8.6,10.735,0,3.408,2.179,5.388,5.071,5.388a10.238,10.238,0,0,0,5.784-2.179l-.436-1.109a10.48,10.48,0,0,1-3.644.713c-2.179,0-3.367-1.031-3.367-3.685a2.853,2.853,0,0,1,.04-.713c5.546-.832,8.6-3.208,8.6-6.021m-4.635-1.228c.792,0,1.347.475,1.347,1.625,0,1.941-1.505,3.446-5.189,4.239.317-3.447,2.258-5.864,3.843-5.864" transform="translate(-66.051 -85.905)" fill="#ea2427"/>
    <path id="Path_45" data-name="Path 45" d="M263.572,305.8a12.991,12.991,0,0,1-4.6-.912c5.9-3.526,8.319-7.012,8.319-9.825,0-3.011-2.179-4.95-5.665-4.95-3.644,0-6.5,2.336-6.5,4.118,0,1.15,1.624,2.1,2.139,2.179,1.07-2.615,3.011-4.556,4.476-4.556,1.149,0,2.218,1.188,2.218,3.408-.079,3.248-2.5,6.258-10.854,12.28l.832,1.228a6.51,6.51,0,0,1,3.367-1.347c1.941,0,3.684,1.466,6.259,1.466,2.139,0,3.486-1.387,4-4.833l-.2-.04a4.915,4.915,0,0,1-3.8,1.783" transform="translate(-74.063 -84.889)" fill="#ea2427"/>
    <path id="Path_46" data-name="Path 46" d="M287.141,290.113c-5.308,0-9.23,5.308-9.23,11.13,0,4.636,2.615,7.527,6.695,7.527,5.546,0,9.111-5.23,9.111-10.933,0-4.873-2.615-7.725-6.576-7.725M285,306.908c-1.9,0-3.367-1.623-3.367-5.665,0-4.793,2.1-9.269,5.189-9.269,1.941,0,3.209,1.744,3.209,5.7,0,4.991-1.941,9.229-5.031,9.229" transform="translate(-81.319 -84.889)" fill="#ea2427"/>
    <path id="Path_47" data-name="Path 47" d="M314.01,290.113c-5.308,0-9.23,5.308-9.23,11.13,0,4.636,2.615,7.527,6.695,7.527,5.546,0,9.111-5.23,9.111-10.933,0-4.873-2.615-7.725-6.576-7.725m-2.139,16.795c-1.9,0-3.367-1.623-3.367-5.665,0-4.793,2.1-9.269,5.189-9.269,1.941,0,3.209,1.744,3.209,5.7,0,4.991-1.941,9.229-5.031,9.229" transform="translate(-89.181 -84.889)" fill="#ea2427"/>
    <path id="Path_48" data-name="Path 48" d="M340.989,290.429l-1.07-.316-9.111,5.981.871,1.347,5.546-3.566-1.585,10.538c-.277,1.782-1.03,2.456-3.763,2.813l-.277,1.148h10.141l.317-1.148-3.328-.713Z" transform="translate(-96.797 -84.889)" fill="#ea2427"/>
  </g>
</svg>
