<svg xmlns="http://www.w3.org/2000/svg" width="244.389" height="80.266" viewBox="0 0 244.389 80.266">
  <path id="The_Guardian_2018" d="M55.356,42.842c.829-.414,1.74-.911,2.568-1.326.331-.166,1.491-.58,1.657-.911a3.342,3.342,0,0,0,0-.911V7.879c0-.083.083-.663,0-.746s-.746,0-.829,0H56.93c-.663,0-.58.083-.994.58-1.574,2.071-3.148,4.143-4.723,6.3-.746.994-1.491,1.906-2.154,2.9-.5.663-.5.746-1.408.746l.249-5.468c.083-1.326.083-2.651.166-3.977,0-.5.083-.994.083-1.491,0-.166-.083-.663,0-.746.166-.249,1.657-.083,2.071-.083H81.206a4.683,4.683,0,0,1,1.077,0c.166.083.083.58.083.829.083,1.077.083,2.237.166,3.314.083,2.4.166,4.723.331,7.125v.5c-.414,0-.746.083-1.077-.166a5.319,5.319,0,0,1-.829-1.077c-.994-1.326-1.988-2.734-3.065-4.06L74.909,8.376c-.166-.249-.414-.829-.746-.994-.249-.166-.746-.083-1.077-.083H71.761a3.992,3.992,0,0,0-.994,0c-.083.083,0,.083-.083.249a9.365,9.365,0,0,0,0,2.154V38.534a7.984,7.984,0,0,0,0,1.988c.166.58,1.491.994,2.071,1.243a9.843,9.843,0,0,1,2.071,1.077,1.607,1.607,0,0,1,.166,1.243c-.083.083-.5,0-.58,0H56.185c-.166,0-.746.083-.829,0a6.214,6.214,0,0,1,0-1.243ZM86.094,41.35V6.222a6.12,6.12,0,0,0,0-1.74c-.166-.58-1.16-.663-1.74-.911-.331-.083-1.408-.331-1.574-.663V2.245h.249A7.113,7.113,0,0,1,84.437,2c.746-.166,1.491-.249,2.154-.414,1.657-.331,3.4-.663,5.054-.911C92.639.5,93.633.256,94.628.091c.249,0,1.243-.166,1.326,0,.083.083,0,.414,0,.5v17.15a14.73,14.73,0,0,1,13.008-3.811c3.811.911,5.054,4.474,5.054,8.119.083,4.64,0,9.2,0,13.836v3.728a6.715,6.715,0,0,0,0,1.823c.083.166.414.249.58.414.58.331,1.243.663,1.823.994.083.083.331.166.331.249a1.7,1.7,0,0,1,0,.911c-.083.166-.083.083-.331.083a15.06,15.06,0,0,1-2.734,0H101.753c-.083,0-.5.083-.58,0a2.365,2.365,0,0,1,0-1.077c.249-.331,1.243-.663,1.574-.911.249-.166.994-.414,1.16-.663s0-1.16,0-1.408v-3.4c0-4.805.083-9.694,0-14.5,0-1.408-.249-3.065-1.657-3.811a5.479,5.479,0,0,0-2.568-.5,7.058,7.058,0,0,0-1.906.331,4.384,4.384,0,0,0-1.74.911c-.249.331-.083.829-.083,1.243V39.859a5.008,5.008,0,0,0,0,1.574,1.307,1.307,0,0,0,.663.414c.58.331,1.326.663,1.906.994.083.083.249.083.249.166a1.7,1.7,0,0,1,0,.911C98.687,44,98.6,44,98.439,44c-.911.083-1.906,0-2.817,0H83.691c-.083,0-.5.083-.58,0a2.468,2.468,0,0,1,.083-1.077,5.276,5.276,0,0,1,1.491-.829,10.881,10.881,0,0,0,1.408-.746Zm39.354-11.433c.166,3.645,1.326,7.705,4.64,9.694a10.325,10.325,0,0,0,5.882,1.16c2.4-.249,4.391-1.408,6.462-2.486a6.228,6.228,0,0,1,0,1.243,4.806,4.806,0,0,1-.829.994,14.81,14.81,0,0,1-1.16,1.077,15.049,15.049,0,0,1-4.64,2.568,17.932,17.932,0,0,1-10.025.166,12.9,12.9,0,0,1-6.628-3.894A14.21,14.21,0,0,1,116,33.231c-.911-5.717.166-12.262,4.888-16.073,4.143-3.314,10.771-3.977,15.659-1.988,5.965,2.4,6.959,9.2,6.959,14.83H127.685a20.19,20.19,0,0,0-2.237-.083Zm-.166-1.408c1.657-.083,3.314-.166,5.054-.331.994-.083,2.071-.083,3.065-.166a2.294,2.294,0,0,0,.746-.083c.249-.166.083-1.823.083-2.154-.083-2.983-.166-6.628-1.906-9.2-1.243-1.823-3.148-1.491-4.308.166C125.614,19.975,125.282,24.78,125.282,28.509ZM-.154,58.749c0-4.64.911-9.445,3.48-13.339A18.885,18.885,0,0,1,14.1,37.871a36.529,36.529,0,0,1,16.4-.331c1.16.249,2.32.5,3.4.829.166.083.911.249.994.414v.249a14.062,14.062,0,0,1,.083,3.231c.083,2.568.083,5.22.166,7.788a5.414,5.414,0,0,1-1.16,0c-.166-.083-.331-.5-.414-.663-.663-.994-1.326-1.988-1.906-3.065-1.408-2.237-2.9-4.474-4.308-6.711-.746-1.243-2.817-1.243-4.143-1.243a8.169,8.169,0,0,0-4.225.994c-2.817,1.74-4.143,5.137-4.888,8.2-1.16,4.888-1.077,10.025-.829,15,.249,3.811.58,7.871,2.071,11.351a7.1,7.1,0,0,0,4.888,4.557,7.189,7.189,0,0,0,2.32.083c.5-.083,2.237-.166,2.486-.663a2.252,2.252,0,0,0,0-.746V63.555c0-.58.166-.829-.331-1.16a20.954,20.954,0,0,1-1.823-1.077c-.414-.249-1.243-.5-1.491-.829a1.626,1.626,0,0,1-.083-1.243c.083-.166.083-.083.331-.083a12.459,12.459,0,0,1,2.486,0H36.963c.829,0,1.74-.083,2.568,0h.331a4.014,4.014,0,0,1,0,1.408,5.041,5.041,0,0,1-1.326.746,20.957,20.957,0,0,0-1.823,1.077c-.663.331-.58.331-.58,1.077v13.5a2.253,2.253,0,0,1,0,.746c-.166.414-1.906.663-2.4.829a37.587,37.587,0,0,1-4.391.994,43.894,43.894,0,0,1-8.7.58C16,79.959,11.114,78.965,7.3,76.148A17.445,17.445,0,0,1,.84,66.123,24.387,24.387,0,0,1-.154,58.749ZM38.04,51.21c0-.166-.083-.829,0-.911s.166,0,.249-.083a5.9,5.9,0,0,1,1.74-.331c1.906-.331,3.811-.663,5.8-.994,1.491-.249,2.983-.58,4.391-.746a2.417,2.417,0,0,1,1.326.083c.414.083.249,0,.331.331a19.97,19.97,0,0,1,0,3.148V69.023c0,2.071-.58,5.882,1.408,7.125a4.811,4.811,0,0,0,3.563.414c.911-.166,2.651-.829,2.983-1.823a2.777,2.777,0,0,0,0-.829v-20.3a2.777,2.777,0,0,0,0-.829A4.62,4.62,0,0,0,58.5,52.2c-.5-.166-.911-.414-1.408-.58-.166-.083-.746-.166-.829-.331a1.7,1.7,0,0,1,0-.911c.083-.083.083,0,.166-.083a5.2,5.2,0,0,1,1.574-.249c3.4-.58,6.877-1.326,10.356-1.823a3.138,3.138,0,0,1,1.243,0c.414.083.249-.083.331.331a16.939,16.939,0,0,1,0,2.9V75.319a3.977,3.977,0,0,0,0,.994c.083.249,0,.166.414.331.829.331,1.74.746,2.568,1.077.249.083.331.083.414.249s.083.746,0,.746c-.166.166-.994.083-1.16.166-1.823.249-3.645.414-5.551.663-1.657.166-3.314.414-4.888.58a2.02,2.02,0,0,1-.994,0A2.057,2.057,0,0,1,60,80.042a3.992,3.992,0,0,1,0-.994V77.639c0-.249.166-.911,0-1.16s-.5.083-.746.249a13.806,13.806,0,0,1-11.433,3.314,7.206,7.206,0,0,1-5.3-4.06,11.516,11.516,0,0,1-.911-4.971v-17.4a2.777,2.777,0,0,0,0-.829c-.166-.249-1.16-.5-1.408-.663C39.366,51.79,38.7,51.541,38.04,51.21Zm78.128-3.148c.166,0,.911,0,.994.166.083.083,0,.663,0,.746v7.291a3.356,3.356,0,0,0,0,.911v.166c.331.331.414-.746.5-.829.746-3.065,2.154-6.628,5.3-7.871a6.644,6.644,0,0,1,1.74-.414c.5,0,1.906-.166,2.154.249a2.252,2.252,0,0,1,0,.746v8.451a15.261,15.261,0,0,0-6.131.083,9.315,9.315,0,0,0-2.568.829c-.414.166-.5.083-.58.414a6.228,6.228,0,0,0,0,1.243v15.99c0,.166-.083.414,0,.58.166.249.746.414.994.5.414.249.911.5,1.326.746.166.083.414.166.5.331a2.738,2.738,0,0,1,0,1.16c-.083.083-.58,0-.746,0H105.9a4.5,4.5,0,0,1-1.491,0h-.249a4.684,4.684,0,0,1,0-1.077c.166-.5,1.243-.829,1.74-1.077.331-.166.994-.414,1.16-.746a2.777,2.777,0,0,0,0-.828V52.784c0-.083.083-.5,0-.58a1.561,1.561,0,0,0-.663-.166,10.016,10.016,0,0,0-1.491-.414c-.5-.166-1.74-.249-1.326-1.077.083-.249.414-.166.746-.249,3.645-.663,7.208-1.326,10.853-1.988a4.369,4.369,0,0,1,.994-.249Zm31.235.746V40.273a3.991,3.991,0,0,0,0-.994c-.083-.166-.414-.249-.663-.331-.663-.249-1.326-.5-2.071-.746-.5-.166-.746-.083-.746-.663,0-.5-.083-.331.331-.414a17.7,17.7,0,0,1,2.9-.5c2.734-.5,5.385-.994,8.119-1.491a6.2,6.2,0,0,1,1.74-.166c.663.083.746-.083.746.5.083,1.326,0,2.734,0,4.06V75.816c0,.331-.083.331.166.5a8.078,8.078,0,0,0,1.823.663c.331.083,1.243.249,1.408.5a2.365,2.365,0,0,1,0,1.077,1.824,1.824,0,0,1-.663.083c-1.16.166-2.237.331-3.4.414-2.568.331-5.137.663-7.788.994-.414.083-1.408.249-1.574-.083a6.121,6.121,0,0,1,0-1.74c0-.249.166-1.326,0-1.491s-1.988,1.491-2.237,1.657a11.468,11.468,0,0,1-3.231,1.491,12.128,12.128,0,0,1-5.717.083c-7.954-1.823-9.611-11.268-8.948-18.144a16.575,16.575,0,0,1,3.977-9.942,13.387,13.387,0,0,1,8.7-3.894,14.744,14.744,0,0,1,7.125.829Zm0,26.429V51.044c0-.5-.083-.58-.663-.911a4.616,4.616,0,0,0-3.894-.414c-1.906.746-2.817,2.983-3.314,4.805a33.367,33.367,0,0,0-.994,10.356c.083,2.983.166,6.628,1.823,9.279A4.819,4.819,0,0,0,147.4,75.237Zm27.424-27.175c.414.083.911-.083,1.077.331a4.683,4.683,0,0,1,0,1.077V75.4a5.428,5.428,0,0,0,0,1.16c.083.331.414.414.746.58.5.249.911.5,1.408.746.166.083.663.249.746.5a5.429,5.429,0,0,1,0,1.16h-.249a12.178,12.178,0,0,1-1.74,0H164.222c-.331,0-1.243.166-1.491,0a1.6,1.6,0,0,1-.083-1.243c.166-.249.746-.414.994-.5.5-.249.994-.58,1.491-.829.414-.249.331-.166.331-.5a30.535,30.535,0,0,0,0-3.894V54.11a6.229,6.229,0,0,0,0-1.243c-.083-.331-.5-.331-.828-.5-.58-.249-1.077-.414-1.657-.663-.166-.083-.829-.166-.994-.414a2.019,2.019,0,0,1,0-.994c.083-.083.249,0,.331-.083a16.544,16.544,0,0,1,2.154-.414c1.077-.166,2.071-.414,3.148-.58,2.071-.331,4.06-.746,6.131-1.077a2.294,2.294,0,0,0,1.077-.083Zm1.16-7.705c-.166,4.971-6.877,7.125-9.942,3.231a5.357,5.357,0,0,1-.249-6.214,5.566,5.566,0,0,1,5.882-2.237A5.326,5.326,0,0,1,175.987,40.356Zm36.289,36.372V52.95c0-.083.083-.5,0-.58-.083-.166-.58-.249-.746-.249l-1.491-.5c-.249-.083-.911-.166-1.077-.414-.166-.166-.083-.58-.083-.829,0-.5.166-.414.663-.5l5.468-.994,5.468-.994a3.524,3.524,0,0,1,.911-.166,5.47,5.47,0,0,1,1.16.083c.083.083,0,.58,0,.746v1.574c0,.249-.166.994,0,1.243.166.331.5,0,.746-.249a13.8,13.8,0,0,1,2.32-1.491,15.984,15.984,0,0,1,9.942-1.906,5.974,5.974,0,0,1,5.054,3.811,13.956,13.956,0,0,1,.663,4.888v18.89a6.23,6.23,0,0,0,0,1.243c.083.331.331.414.746.58.414.249.911.5,1.326.746.166.083.746.249.829.5a2.357,2.357,0,0,1,0,1.077c-.083.166.083,0-.166.083a4.5,4.5,0,0,1-1.491,0H230.669c-.5,0-2.4.249-2.651-.083a2.73,2.73,0,0,1,0-1.16c.083-.166.58-.331.746-.414.5-.249.911-.5,1.408-.746.166-.083.663-.249.746-.414s0-.5,0-.663V57.258c0-1.326.083-2.817-.746-3.977a3.625,3.625,0,0,0-2.983-1.326,8.741,8.741,0,0,0-2.568.331c-.414.166-1.657.5-1.906.994-.083.166,0,.5,0,.663V75.4a4.683,4.683,0,0,0,0,1.077c.083.331.58.414.829.58.414.249.911.5,1.326.746a3.6,3.6,0,0,1,.58.331,2.736,2.736,0,0,1,0,1.16c0,.083-.083,0-.166,0a4.505,4.505,0,0,1-1.491,0H209.873c-.414,0-.5.083-.58-.166a2.365,2.365,0,0,1,0-1.077c.083-.166.58-.331.746-.414A5.813,5.813,0,0,0,212.276,76.728ZM194.712,61.483c0-2.154.083-4.391-.083-6.628-.249-2.4-.911-5.054-3.645-5.551-.829-.166-2.32-.414-2.9.249a18.8,18.8,0,0,0-1.491,2.071l-4.225,5.717c-.249.331-.5.994-.829,1.16a1.7,1.7,0,0,1-.911,0c-.083-.083,0-.663,0-.829V50.961a3.357,3.357,0,0,1,0-.911c.166-.414,1.988-.663,2.4-.829a41.226,41.226,0,0,1,7.125-1.16c3.4-.249,7.208-.166,10.356,1.326a7.614,7.614,0,0,1,4.474,5.882,23.116,23.116,0,0,1,.166,4.143v16.57c0,.249-.166.911,0,1.077a1.536,1.536,0,0,0,.58.166c.663.166,1.243.331,1.906.5.414.083.5.083.5.5s.083.414-.414.58a14.939,14.939,0,0,1-1.74.663c-3.066.911-7.871,1.16-10.108-1.657-.166-.249-.663-1.326-.911-1.408-.331-.083-1.326,1.243-1.657,1.491a9.307,9.307,0,0,1-4.805,2.071c-3.231.414-6.711-.249-8.7-3.065a9.443,9.443,0,0,1-.746-8.782c2.237-5.054,8.865-5.551,13.67-6.38.58,0,1.243-.166,1.988-.249Zm0,13.753V62.975c-2.486.166-5.054.331-5.965,3.065a12.841,12.841,0,0,0-.414,5.882c.166,1.326.5,2.983,1.74,3.811a3.754,3.754,0,0,0,4.64-.5ZM89.822,61.483c0-2.154.083-4.391-.083-6.628-.249-2.4-.911-5.054-3.645-5.551-.828-.166-2.32-.414-2.9.249A18.8,18.8,0,0,0,81.7,51.624l-4.225,5.717c-.249.331-.5.994-.829,1.16a1.694,1.694,0,0,1-.911,0c-.083-.083,0-.663,0-.829V51.044a3.357,3.357,0,0,1,0-.911c.166-.414,1.906-.663,2.4-.829a41.616,41.616,0,0,1,7.042-1.16c3.4-.249,7.208-.166,10.356,1.326a7.614,7.614,0,0,1,4.474,5.882,23.115,23.115,0,0,1,.166,4.143v16.57c0,.249-.166.911,0,1.077a1.536,1.536,0,0,0,.58.166c.663.166,1.243.331,1.906.5.414.083.5.083.5.5s.083.414-.414.58a14.935,14.935,0,0,1-1.74.663c-3.065.911-7.871,1.16-10.108-1.657-.166-.249-.663-1.326-.911-1.408-.331-.083-1.326,1.243-1.574,1.491a9.307,9.307,0,0,1-4.805,2.071c-3.231.414-6.711-.249-8.7-3.065a9.443,9.443,0,0,1-.746-8.782c2.237-5.054,8.865-5.551,13.588-6.38.663-.083,1.326-.249,2.071-.331Zm0,13.753V62.975c-2.486.166-5.054.331-5.965,3.065a12.841,12.841,0,0,0-.414,5.882c.166,1.326.5,2.983,1.74,3.811A3.754,3.754,0,0,0,89.822,75.237Z" transform="translate(0.154 -0.017)" fill="#78736b"/>
</svg>
