<svg xmlns="http://www.w3.org/2000/svg" width="356.82" height="58.375" viewBox="0 0 356.82 58.375">
  <path id="The_Telegraph" d="M57.836,50.691c2.412-1.58,4.74-3.409,4.74-7.068V20.672l-3.659-3.825L57.5,18.26l3.16,3.326V43.539a8.162,8.162,0,0,1-2.994,6.819ZM43.783,2.128v.249a3.632,3.632,0,0,1,2.328,3.576V39.8l-1.33,1.33,5.072,4.324,1.5-1.247-4.075-3.326.748-.665V6.286c0-2.661-2.412-3.991-4.241-4.158m3.077,50.891c6.486-.5,12.889-2.661,12.889-9.563V21.836l-2.91-2.91L53.6,22.085V38.3l2.661,2.412L50.1,46.2H49.52l-5.987-5.156,1.663-1.58V6.369a4.239,4.239,0,0,0-3.409-4.075V1.712a5.6,5.6,0,0,1,2.661-.5,5.17,5.17,0,0,1,4.574,2.578h.166A6.387,6.387,0,0,1,54.343,1.13a8.06,8.06,0,0,1,1.913.249v.665C55.175,2.377,53.6,3.708,53.6,6.951V20.672l7.983-7.65h.582c.582.582,4.075,3.742,4.74,4.158a2.71,2.71,0,0,0,1.081.333,3.873,3.873,0,0,0,1.663-.5v.832a4.11,4.11,0,0,0-1.414,2.994v18.71c0,8.316-9.064,13.3-21.371,14.22C46.859,53.934,46.859,53.019,46.859,53.019ZM83.7,16.93l-1.58,1.164c1.829,2.162,4.241,4.989,6.569,7.567L90.35,24.5c-2.411-2.578-4.74-5.405-6.652-7.567m-1.913,13.3,5.987-4.075c-2.079-2.412-4.241-4.823-5.987-6.819Zm3.908,13.8c-3.576-1.663-6.819-2.91-9.729-4.49a38.045,38.045,0,0,0,.249-5.821V20.173l-1.913,1V33.81a37.713,37.713,0,0,1-.333,6.736c2.827,1.58,6.819,3.243,10.478,4.823ZM73.3,20.588A99,99,0,0,0,85.776,13.1h.665c2.328,2.412,5.738,6.32,8.648,8.9v.665l-13.3,8.648v5.322a49.943,49.943,0,0,0,7.567,3.576l5.322-5.156.665.665L84.612,46.117h-.665c-3.576-1.58-8.316-3.576-11.309-5.239a31.5,31.5,0,0,0,.665-7.318ZM345.636,50.607c2.411-1.58,4.74-3.409,4.74-7.068V20.588l-3.659-3.825L345.3,18.177l3.16,3.326V43.456a8.4,8.4,0,0,1-2.994,6.819A1.221,1.221,0,0,0,345.636,50.607ZM331.666,2.045l-.083.249a3.688,3.688,0,0,1,2.411,3.576V39.631l-1.331,1.33,5.072,4.324,1.5-1.247-4.075-3.326.748-.665V6.2a4.529,4.529,0,0,0-4.241-4.158m2.994,50.891c6.486-.5,12.889-2.661,12.889-9.563V21.753l-2.91-2.994-3.243,3.16V38.134l2.661,2.412L337.9,46.034h-.582l-6.07-5.156,1.663-1.58V6.286A4.239,4.239,0,0,0,329.5,2.211V1.629a5.6,5.6,0,0,1,2.661-.5,5.17,5.17,0,0,1,4.574,2.578h.166a6.387,6.387,0,0,1,5.156-2.661,8.059,8.059,0,0,1,1.913.249v.665c-1.081.333-2.578,1.663-2.578,4.906v13.8l7.983-7.65h.582c.582.582,4.075,3.742,4.74,4.158a2.707,2.707,0,0,0,1.164.333,3.554,3.554,0,0,0,1.663-.5v1.164a4.11,4.11,0,0,0-1.414,2.994v18.46c0,8.316-9.064,13.3-21.371,14.22l-.083-.915ZM162.445,16.93l-1.58,1.164c1.829,2.162,4.241,4.989,6.569,7.567L169.1,24.5c-2.328-2.578-4.74-5.488-6.652-7.567M160.7,30.151l5.987-4.075c-2.079-2.411-4.241-4.823-5.987-6.819Zm3.825,13.8c-3.576-1.663-6.819-2.91-9.729-4.49a38.043,38.043,0,0,0,.249-5.821V20.089l-1.913,1v12.64a37.716,37.716,0,0,1-.333,6.736c2.827,1.58,6.819,3.243,10.478,4.823Zm-12.307-23.45a99,99,0,0,0,12.473-7.484h.665c2.328,2.412,5.738,6.32,8.648,8.9v.665l-13.3,8.648v5.322a46.372,46.372,0,0,0,7.567,3.576l5.322-5.156.665.665L163.526,46.034h-.665c-3.659-1.58-8.316-3.576-11.309-5.239a30.944,30.944,0,0,0,.665-7.318V20.505Zm32.93,23.367c-2.411-.665-4.823-2.245-4.823-5.571V8.032l-2.661-2.744L176.249,6.7l2.162,2.245v30.1c0,3.409,2.744,5.571,5.322,6.237l1.414-1.414Zm.832-38.418V37.469a3.362,3.362,0,0,0,2.578,2.91l1.913-1.913.582.665-6.819,6.985H183.9c-2.578-.582-6.32-2.91-6.32-6.9V9.446l-1.913-1.913-2,2-.582-.665,7.65-7.733h.5l4.74,4.324ZM204.356,16.93l-1.58,1.164c1.829,2.162,4.241,4.989,6.569,7.567l1.663-1.164c-2.328-2.661-4.74-5.488-6.652-7.567m-1.829,13.222,5.987-4.075c-2.079-2.411-4.241-4.823-5.987-6.819Zm3.825,13.8c-3.576-1.663-6.819-2.91-9.729-4.49a38.042,38.042,0,0,0,.249-5.821V20.089l-1.913,1v12.64a37.716,37.716,0,0,1-.333,6.736c2.827,1.58,6.819,3.243,10.478,4.823l1.247-1.33Zm-12.307-23.45a99,99,0,0,0,12.473-7.484h.665c2.328,2.412,5.738,6.32,8.648,8.9v.665l-13.222,8.648v5.322a46.372,46.372,0,0,0,7.567,3.576l5.322-5.156.665.665-10.81,10.394h-.665c-3.576-1.58-8.316-3.576-11.309-5.239a30.943,30.943,0,0,0,.665-7.318V20.505Zm67.273-1.5c1.081,1,2.578,2.412,3.825,3.493l1.247-1.414c-1.164-1.081-2.994-2.578-3.825-3.493C262.481,17.512,261.317,19.008,261.317,19.008Zm-3.243,24.863c-2.495-.665-4.823-2.245-4.823-5.571V20.006l-2.578-2.661-1.5,1.414L251.338,21V39.132c0,3.409,2.744,5.571,5.322,6.237l1.414-1.5Zm.748-22.036V37.552a3.092,3.092,0,0,0,2.578,2.827l1.913-1.829.582.665L257.076,46.2h-.416c-2.578-.582-6.237-2.91-6.237-6.9V21.337l-1.913-1.913-2,2-.665-.665,7.65-7.733h.582l4.823,4.74v2.578l6.153-7.318h.582a50.38,50.38,0,0,0,4.823,4.324v.083l-5.156,6.153h-.083c-1.414-1.247-3.326-2.994-4.407-4.075C260.652,19.591,258.822,21.836,258.822,21.836Zm26.443,16.881V28.987a33.509,33.509,0,0,1-5.821-2.245V38.8l3.409,2.079ZM293,43.955c-2.328-.832-4.823-2.578-4.823-5.821V21.254l-9.23-4.657c-.249.166-1.331.915-1.663,1.164l8.9,4.657V38.8c0,3.16,2.91,5.571,5.322,6.486Zm-7.733-15.966V22.917l-8.731-4.574c-.665.5-2.994,1.913-3.742,2.328,2.079,2.744,7.484,6.07,12.473,7.318m-5.239,15.8-6.153-4.075V30.65l-1.829,1.414v8.814l6.569,4.407C278.613,45.2,280.027,43.789,280.027,43.789Zm-1.58,2.328-7.4-4.906V31.565c1.829-1.33,5.738-3.991,7.567-5.322a23.906,23.906,0,0,1-6.9-5.322v-.665a55.372,55.372,0,0,0,10.228-7.235h.582s9.064,4.324,9.563,4.49a2.761,2.761,0,0,0,1.33.416,3.791,3.791,0,0,0,1.829-.5v1a3.46,3.46,0,0,0-1.414,2.827V37.469a3.405,3.405,0,0,0,2.578,3.077l1.913-1.913.582.665-6.819,6.985h-.416c-2.661-.748-5.655-3.326-6.153-6.32l-6.569,6.4C278.863,46.2,278.447,46.2,278.447,46.117Zm-44.9-7.4v-16.8l-6.153-2.661V38.384l3.825,2.578Zm2.91-18.71-9.064-3.825v2l7.068,3.077v18.46a19.465,19.465,0,0,0,4.407,11.642l1.414-1.414a17.135,17.135,0,0,1-3.908-10.478l.083-19.458Zm-9.729,25.2,1.5-1.33-6.486-4.158V19.923l-1.829,1.33V40.629l6.819,4.574Zm-2.578,7.817a7.1,7.1,0,0,0-5.738,2.744V56.1a10.622,10.622,0,0,1,5.738-1.33,23.111,23.111,0,0,1,9.563,2.162l1.247-1.5a25.622,25.622,0,0,0-10.81-2.411m-5.239-11.974V20.672l10.81-7.567h.665c2.079.915,9.064,3.825,9.9,4.241a4.8,4.8,0,0,0,1.164.249,5.253,5.253,0,0,0,2.079-.582v1.164a4.506,4.506,0,0,0-1.5,2.827V38.3c0,4.075.832,6.4,2.495,8.066v.665c-2.411,2.412-7.9,8.066-10.311,11.06h-.416a21.64,21.64,0,0,0-9.563-2.328,11.952,11.952,0,0,0-7.151,2.245l-.5-.416c1.829-4.324,5.821-8.731,10.893-8.731,3.16,0,7.318,1.33,10.81,3.243a21.028,21.028,0,0,1-4.657-12.058l-6.4,6.153h-.5l-7.817-5.156Zm96.626-22.618,3.326,3.243v17.8l1.913-1.081V20.672l-3.742-3.742-1.5,1.5Zm1.33,27.358c.333-.5,1-1.164,1.33-1.58l-6.569-1.414V44.62Zm1-6.32V21.919l-2.91-2.994L311.709,22V38.217c1.414.333,5.405,1.081,6.153,1.247M304.225,51.522l-1.33,1.247L307.8,57.01l1.5-1.33-3.825-3.243.665-.665v-31.6l-2.744-2.744-1.33,1.33L304.225,21V51.522Zm7.4-30.851,7.983-7.567h.582c.582.582,4.241,3.825,4.823,4.241a2.561,2.561,0,0,0,1.081.249,3.553,3.553,0,0,0,1.663-.5v1.081a3.959,3.959,0,0,0-1.414,2.994V40.712c-3.409.832-6.153,2.661-9.064,6.07h-.249L311.709,45.7v4.324l2.744,2.495-6.486,5.405h-.333l-6.07-5.156,1.663-1.746V43.789c-.665-.166-1.913-.333-2.495-.5v-.915c.748-.333,2.661-2.162,2.661-3.742V21.42l-1.913-1.913-2,2-.665-.665,7.65-7.733h.582l4.823,4.74-.25,2.827ZM19.335,30.151l-.083-8.482L17.339,23v7.9a5.562,5.562,0,0,1-.416,2.162h.249c1.164-.748,2.162-1.913,2.162-2.91m-9.812-13.3C6.779,19.591,4.2,23.416,4.2,28.239c0,11.475,7.733,17.3,17.546,17.3,6.07,0,10.394-3.326,12.889-5.821l-.166-.249c-2.827,2.328-6.736,4.158-12.723,4.158-7.9,0-15.55-4.823-15.55-15.467A20.188,20.188,0,0,1,9.772,17.013Zm21.038-4.49c-7.318,0-13.97-3.576-19.292-3.576-3.409,0-7.4,1.414-8.814,5.405l.249.083c1.58-2.744,5.322-3.659,8.565-3.659,5.322,0,11.974,3.659,19.292,3.659,5.9,0,9.313-2,9.9-6.736l-.333-.083c-.832,3.576-3.659,4.906-9.563,4.906M3.2,28.239c0-7.817,5.9-13.222,11.392-15.633l.416.5A12.478,12.478,0,0,0,11.6,22.418c0,5.405,1.414,9.147,3.659,11.642a5.224,5.224,0,0,0,1.164-3.326V22.667l9.9-7.068.416.582a7.047,7.047,0,0,0-1.33,4.324v5.156c0,3.576-5.9,7.484-9.563,8.981,2.412,2.328,5.821,3.326,9.563,3.326a24.489,24.489,0,0,0,3.659-.249v-22.7a44.562,44.562,0,0,1-9.147-1.829,31.615,31.615,0,0,0-8.648-1.663c-3.991,0-8.814,1.33-8.9,7.151a12.5,12.5,0,0,0,.166,1.663l-.748.249A15.578,15.578,0,0,1,.708,15.266C.625,8.281,5.781,2.128,14.1,2.128a34.372,34.372,0,0,1,9.646,1.663,32.774,32.774,0,0,0,9.313,1.663A2.193,2.193,0,0,0,35.55,3.126a2.383,2.383,0,0,0-2-2.495l.166-.748C37.3.548,41.2,2.627,41.2,7.117c0,5.405-3.908,7.983-10.561,7.983h-.665V37.552a13.154,13.154,0,0,0,9.4-6.32l.665.416C37.629,39.3,31.975,46.616,21.83,46.616,11.6,46.533,3.2,40.546,3.2,28.239M127.77,30.151l-.083-8.482L125.774,23v7.9a5.562,5.562,0,0,1-.416,2.162h.249a3.983,3.983,0,0,0,2.162-2.91m-9.729-13.3c-2.744,2.744-5.322,6.569-5.322,11.392,0,11.559,7.733,17.3,17.546,17.3a17.894,17.894,0,0,0,12.806-5.821l-.166-.249c-2.827,2.328-6.736,4.158-12.64,4.158-7.9,0-15.55-4.823-15.55-15.467a20.2,20.2,0,0,1,3.493-11.226l-.166-.083Zm21.038-4.49c-7.318,0-13.97-3.576-19.292-3.576-3.409,0-7.4,1.414-8.814,5.405l.249.083c1.58-2.744,5.322-3.659,8.565-3.659,5.322,0,11.974,3.659,19.292,3.659,5.9,0,9.313-2,9.9-6.736l-.333-.083c-.832,3.576-3.659,4.906-9.563,4.906M111.721,28.239c0-7.817,5.9-13.222,11.392-15.633l.333.5a12.478,12.478,0,0,0-3.409,9.313c0,5.405,1.414,9.147,3.659,11.642a5.224,5.224,0,0,0,1.164-3.326V22.667l9.9-7.068.416.582a6.555,6.555,0,0,0-1.33,4.324v5.156c0,3.576-5.9,7.484-9.563,8.981,2.411,2.328,5.821,3.326,9.563,3.326a24.488,24.488,0,0,0,3.659-.249v-22.7a42.67,42.67,0,0,1-9.064-1.829,31.614,31.614,0,0,0-8.648-1.663c-3.991,0-8.814,1.33-8.9,7.151,0,.5.083,1.081.083,1.663l-.748.249a15.578,15.578,0,0,1-1.081-5.322C109.06,8.2,114.215,2.045,122.531,2.045a34.371,34.371,0,0,1,9.646,1.663,35.962,35.962,0,0,0,9.313,1.663,2.193,2.193,0,0,0,2.495-2.328A2.409,2.409,0,0,0,142.072.465l.083-.748c3.576.665,7.484,2.744,7.484,7.235,0,5.405-3.908,7.983-10.478,7.983H138.5V37.386a13.154,13.154,0,0,0,9.4-6.32l.665.416c-2.411,7.65-8.066,14.968-18.211,14.968-10.228.083-18.627-5.9-18.627-18.211" transform="translate(-0.707 0.284)" fill="#78736b"/>
</svg>
