<svg id="Group_52" data-name="Group 52" xmlns="http://www.w3.org/2000/svg" xmlns:xlink="http://www.w3.org/1999/xlink" width="99.52" height="100" viewBox="0 0 99.52 100">
  <defs>
    <clipPath id="clip-path">
      <rect id="Rectangle_22" data-name="Rectangle 22" width="99.52" height="100" fill="none"/>
    </clipPath>
  </defs>
  <g id="Group_51" data-name="Group 51" clip-path="url(#clip-path)">
    <path id="Path_62" data-name="Path 62" d="M85.019,14.531A49.563,49.563,0,0,0,7.031,74.321L0,100l26.269-6.89a49.487,49.487,0,0,0,23.679,6.03h.021a49.572,49.572,0,0,0,35.05-84.606Zm-35.05,76.24h-.017a41.133,41.133,0,0,1-20.963-5.74l-1.5-.893L11.9,88.227l4.16-15.2-.979-1.559a41.186,41.186,0,1,1,34.891,19.3ZM72.56,59.927c-1.238-.62-7.325-3.614-8.461-4.027s-1.96-.62-2.785.62-3.2,4.03-3.92,4.854-1.445.929-2.683.309a33.852,33.852,0,0,1-9.958-6.144,37.316,37.316,0,0,1-6.888-8.577c-.722-1.24-.076-1.91.542-2.526.556-.556,1.238-1.447,1.858-2.169A8.435,8.435,0,0,0,41.5,40.2a2.28,2.28,0,0,0-.1-2.169c-.309-.62-2.785-6.715-3.818-9.193-1.005-2.414-2.027-2.086-2.785-2.126-.722-.036-1.547-.043-2.374-.043a4.547,4.547,0,0,0-3.3,1.549,13.887,13.887,0,0,0-4.334,10.328c0,6.092,4.436,11.982,5.056,12.809S38.576,64.688,51,70.053a71.017,71.017,0,0,0,7.059,2.609,16.964,16.964,0,0,0,7.8.492c2.379-.356,7.325-3,8.356-5.888s1.031-5.372.722-5.888-1.136-.827-2.374-1.447Z" fill="#25d366" fill-rule="evenodd"/>
  </g>
</svg>
