<svg xmlns="http://www.w3.org/2000/svg" width="442.629" height="147.016" viewBox="0 0 442.629 147.016">
  <path id="Designer_Turkey" data-name="Designer Turkey" d="M-1856.582-4249.19a2.116,2.116,0,0,1-.7-.4,3.915,3.915,0,0,1-.622-.689,9.789,9.789,0,0,1-.612-.982,5.8,5.8,0,0,1-1.662,1.595,4.254,4.254,0,0,1-2.3.6,4.345,4.345,0,0,1-1.6-.272,3.411,3.411,0,0,1-1.156-.729,3.076,3.076,0,0,1-.71-1.068,3.493,3.493,0,0,1-.242-1.292,2.982,2.982,0,0,1,.952-2.274,7.076,7.076,0,0,1,2.624-1.457,9.465,9.465,0,0,1-1.147-1.438,2.832,2.832,0,0,1-.427-1.536,3.375,3.375,0,0,1,.243-1.292,2.817,2.817,0,0,1,.709-1.02,3.349,3.349,0,0,1,1.137-.671,4.444,4.444,0,0,1,1.525-.243,4.079,4.079,0,0,1,1.331.2,3.153,3.153,0,0,1,1,.544,2.307,2.307,0,0,1,.622.8,2.3,2.3,0,0,1,.213.982,2.4,2.4,0,0,1-.7,1.72,7.857,7.857,0,0,1-2.235,1.468,16.979,16.979,0,0,1,1.642,1.632,10.54,10.54,0,0,1,1.253,1.729,8.394,8.394,0,0,1,1.5-2.371,2.311,2.311,0,0,1,1.632-.855,1.475,1.475,0,0,1,1.118.4,1.426,1.426,0,0,1,.378,1.021,1.23,1.23,0,0,1-.33.864,1.129,1.129,0,0,1-.874.358,1.1,1.1,0,0,1-.8-.32,1.032,1.032,0,0,1-.33-.767.793.793,0,0,1,.117-.448l-.059-.057a5.082,5.082,0,0,0-2.1,2.467,13.8,13.8,0,0,0,.8,1.273,5.726,5.726,0,0,0,.71.835,2.17,2.17,0,0,0,.68.457,1.849,1.849,0,0,0,.69.136,1.491,1.491,0,0,0,.564-.117,3.6,3.6,0,0,0,.738-.445l.155.174a6.779,6.779,0,0,1-1.458,1.206,2.756,2.756,0,0,1-1.4.409A2.722,2.722,0,0,1-1856.582-4249.19Zm-7.074-5.432a3.557,3.557,0,0,0-.418,1.808,2.5,2.5,0,0,0,.768,1.933,2.765,2.765,0,0,0,1.953.71,2.888,2.888,0,0,0,1.438-.35,4.407,4.407,0,0,0,1.2-1.049,10.7,10.7,0,0,0-.709-1.1q-.417-.573-.9-1.136c-.324-.377-.658-.746-1-1.108a13.432,13.432,0,0,0-1.04-.991A3.894,3.894,0,0,0-1863.656-4254.622Zm1.651-6.9a2.078,2.078,0,0,0-.476,1.418,2.886,2.886,0,0,0,.466,1.545,10.031,10.031,0,0,0,1.341,1.643,6.217,6.217,0,0,0,.748-.68,2.874,2.874,0,0,0,.477-.7,3.234,3.234,0,0,0,.253-.776,4.943,4.943,0,0,0,.077-.914,2.476,2.476,0,0,0-.418-1.536,1.459,1.459,0,0,0-1.234-.543A1.564,1.564,0,0,0-1862-4261.521Zm144.591,5.326a6.92,6.92,0,0,1,7.134-6.841,6.926,6.926,0,0,1,7.112,6.841,6.957,6.957,0,0,1-7.112,6.878A6.963,6.963,0,0,1-1717.414-4256.2Zm1.575,0a5.483,5.483,0,0,0,5.558,5.382,5.449,5.449,0,0,0,5.519-5.382,5.434,5.434,0,0,0-5.519-5.364A5.468,5.468,0,0,0-1715.838-4256.2Zm-32.388-.02a6.917,6.917,0,0,1,7.093-6.822,7.357,7.357,0,0,1,4.976,1.982l-.934,1.185a5.719,5.719,0,0,0-4.022-1.71,5.427,5.427,0,0,0-5.539,5.364,5.439,5.439,0,0,0,5.539,5.364,5.929,5.929,0,0,0,4.022-1.633l.952,1.069a7.512,7.512,0,0,1-5.053,2.1A6.917,6.917,0,0,1-1748.227-4256.215Zm-14.172,1.224V-4263h1.554v8.006a3.842,3.842,0,0,0,4.178,4.178,3.813,3.813,0,0,0,4.139-4.178V-4263h1.555v8.006c0,3.537-2.138,5.674-5.694,5.674C-1760.242-4249.317-1762.4-4251.454-1762.4-4254.991Zm-69.391-1.2a6.919,6.919,0,0,1,7.133-6.841,6.925,6.925,0,0,1,7.112,6.841,6.956,6.956,0,0,1-7.112,6.878A6.962,6.962,0,0,1-1831.791-4256.2Zm1.574,0a5.483,5.483,0,0,0,5.558,5.382,5.449,5.449,0,0,0,5.519-5.382,5.434,5.434,0,0,0-5.519-5.364A5.468,5.468,0,0,0-1830.216-4256.2Zm-15.044-.02a6.918,6.918,0,0,1,7.094-6.822,7.352,7.352,0,0,1,4.975,1.982l-.933,1.185a5.718,5.718,0,0,0-4.022-1.71,5.426,5.426,0,0,0-5.538,5.364,5.438,5.438,0,0,0,5.538,5.364,5.929,5.929,0,0,0,4.022-1.633l.953,1.069a7.513,7.513,0,0,1-5.053,2.1A6.918,6.918,0,0,1-1845.26-4256.215Zm-68.075,1.224V-4263h1.555v8.006a3.842,3.842,0,0,0,4.179,4.178,3.813,3.813,0,0,0,4.139-4.178V-4263h1.554v8.006c0,3.537-2.138,5.674-5.693,5.674C-1911.178-4249.317-1913.336-4251.454-1913.336-4254.991Zm-26.122-1.224a6.917,6.917,0,0,1,7.093-6.822,7.353,7.353,0,0,1,4.975,1.982l-.933,1.185a5.717,5.717,0,0,0-4.022-1.71,5.426,5.426,0,0,0-5.538,5.364,5.438,5.438,0,0,0,5.538,5.364,5.928,5.928,0,0,0,4.022-1.633l.953,1.069a7.515,7.515,0,0,1-5.054,2.1A6.917,6.917,0,0,1-1939.458-4256.215Zm-57.583,0a6.917,6.917,0,0,1,7.093-6.822,7.355,7.355,0,0,1,4.976,1.982l-.934,1.185a5.717,5.717,0,0,0-4.022-1.71,5.426,5.426,0,0,0-5.538,5.364,5.438,5.438,0,0,0,5.538,5.364,5.927,5.927,0,0,0,4.022-1.633l.953,1.069a7.514,7.514,0,0,1-5.053,2.1A6.918,6.918,0,0,1-1997.041-4256.215Zm196.585,4.8.7-1.4a6.768,6.768,0,0,0,4.528,1.924c1.963,0,3.187-.8,3.187-2.1.019-3.576-7.637-1.672-7.637-6.549,0-2.138,1.885-3.518,4.7-3.518a8.049,8.049,0,0,1,4.315,1.263l-.661,1.457a7.027,7.027,0,0,0-3.75-1.146c-1.75,0-2.9.661-2.9,1.808,0,3.5,7.656,1.672,7.637,6.608,0,2.272-2,3.731-4.917,3.731A7.765,7.765,0,0,1-1800.456-4251.415Zm110,2.021-8.162-10.921v10.921h-1.555V-4263h1.614l8.162,10.941V-4263h1.535v13.6Zm-31.5,0V-4263h1.555v13.6Zm-8.219,0V-4261.5h-4.432v-1.5h10.436v1.5h-4.45v12.107Zm-37,0-2.818-4.334c-.291.02-.6.039-.914.039h-3.614v4.3h-1.555V-4263h5.169c3.4,0,5.365,1.672,5.365,4.567a4.259,4.259,0,0,1-3.051,4.412l3.187,4.626Zm-7.346-5.792h3.614c2.469,0,3.868-1.088,3.868-3.206,0-2.06-1.4-3.11-3.868-3.11h-3.614Zm-9.775,5.792V-4261.5h-4.431v-1.5h10.436v1.5h-4.45v12.107Zm-20.535,0-8.163-10.921v10.921h-1.554V-4263h1.613l8.162,10.941V-4263h1.536v13.6Zm-79.224,0V-4263h9.231v1.5h-7.677v4.469h6.86v1.5h-6.86v4.664h7.929v1.478Zm-5.06,0-2.818-4.334c-.292.02-.6.039-.913.039h-3.615v4.3h-1.555V-4263h5.169c3.4,0,5.363,1.672,5.363,4.567a4.259,4.259,0,0,1-3.05,4.412l3.187,4.626Zm-7.346-5.792h3.615c2.468,0,3.867-1.088,3.867-3.206,0-2.06-1.4-3.11-3.867-3.11h-3.615Zm-24.949,5.792V-4261.5h-4.431v-1.5h10.436v1.5h-4.45v12.107Zm-29.015,0V-4263h9.23v1.5h-7.676v4.469h6.86v1.5h-6.86v4.664h7.928v1.478Zm-8.22,0V-4261.5h-4.43v-1.5h10.436v1.5h-4.451v12.107Zm-8.19,0V-4263h1.555v13.6Zm-5.642,0v-5.986h-8.2v5.986h-1.555V-4263h1.555v6.142h8.2V-4263h1.555v13.6Zm-28.421,0-2.818-4.334c-.292.02-.6.039-.914.039h-3.615v4.3h-1.555V-4263h5.169c3.4,0,5.363,1.672,5.363,4.567a4.259,4.259,0,0,1-3.051,4.412l3.187,4.626Zm-7.346-5.792h3.615c2.469,0,3.867-1.088,3.867-3.206,0-2.06-1.4-3.11-3.867-3.11h-3.615Zm-5.425,5.792-1.516-3.44h-7.423l-1.516,3.44h-1.652l6.1-13.6h1.613l6.083,13.6Zm-8.28-4.937h6.1l-3.07-6.9Zm11.025-23.45v-10.663h.6a34.32,34.32,0,0,0,2,3.9,16.873,16.873,0,0,0,2.3,3.048,9.543,9.543,0,0,0,2.686,1.984,7.133,7.133,0,0,0,3.157.7,7.088,7.088,0,0,0,2.75-.49,6.229,6.229,0,0,0,1.962-1.258,4.935,4.935,0,0,0,1.173-1.75,5.458,5.458,0,0,0,.384-2,5.574,5.574,0,0,0-.491-2.432,5.508,5.508,0,0,0-1.45-1.833,10.141,10.141,0,0,0-2.452-1.472q-1.493-.661-3.455-1.343-1.621-.555-3.177-1.152a11.26,11.26,0,0,1-2.772-1.514,7.323,7.323,0,0,1-1.983-2.281,6.886,6.886,0,0,1-.768-3.413,9.143,9.143,0,0,1,.768-3.795,8.257,8.257,0,0,1,2.111-2.878,9.54,9.54,0,0,1,3.177-1.813,12.1,12.1,0,0,1,4.01-.64,13.752,13.752,0,0,1,3.582.448,16.271,16.271,0,0,1,2.814,1l1.536-1.707h.512v9.511h-.6a20.137,20.137,0,0,0-3.86-6.354,6.42,6.42,0,0,0-4.67-2.09,6.523,6.523,0,0,0-2.112.34,5.135,5.135,0,0,0-1.77,1.024,5.01,5.01,0,0,0-1.215,1.642,5.25,5.25,0,0,0-.448,2.24,5.027,5.027,0,0,0,.511,2.346,5.41,5.41,0,0,0,1.493,1.748,10.378,10.378,0,0,0,2.409,1.364q1.428.6,3.263,1.195,1.535.511,3.028,1.109a10.778,10.778,0,0,1,2.687,1.536,7.416,7.416,0,0,1,1.941,2.3,7.15,7.15,0,0,1,.746,3.455,11.494,11.494,0,0,1-.554,3.5,8.886,8.886,0,0,1-1.77,3.156,8.972,8.972,0,0,1-3.135,2.281,11.259,11.259,0,0,1-4.69.875,13.918,13.918,0,0,1-3.8-.554,14.8,14.8,0,0,1-3.369-1.365l-2.559,2.09Zm221.224-2.41q-3.008-2.367-3.007-7.017v-17.741a2.371,2.371,0,0,0-.96-2,6.92,6.92,0,0,0-3.689-.812v-.512h13.947v.512a11.834,11.834,0,0,0-2.2.235,3.347,3.347,0,0,0-1.3.555,1.83,1.83,0,0,0-.64.853,3.573,3.573,0,0,0-.17,1.173v17.231a10.479,10.479,0,0,0,.683,4.051,6.7,6.7,0,0,0,1.855,2.6,6.881,6.881,0,0,0,2.751,1.386,13.46,13.46,0,0,0,3.369.4,9.317,9.317,0,0,0,3.05-.49,6.176,6.176,0,0,0,2.409-1.472,7.782,7.782,0,0,0,1.749-2.793,11.643,11.643,0,0,0,.64-4.116V-4301.2a11.507,11.507,0,0,0-.277-2.707,4.529,4.529,0,0,0-.96-1.92,4.825,4.825,0,0,0-1.77-1.258,10.313,10.313,0,0,0-2.708-.683v-.512h11.771v.512a9.495,9.495,0,0,0-2.473.725,3.937,3.937,0,0,0-1.536,1.237,4.667,4.667,0,0,0-.768,1.9,14.872,14.872,0,0,0-.213,2.707v13.392a12.367,12.367,0,0,1-.64,4.094,7.932,7.932,0,0,1-1.983,3.135,9.206,9.206,0,0,1-3.412,2.026,14.948,14.948,0,0,1-4.927.725Q-1786.691-4277.823-1789.7-4280.19Zm-169.127,1.365a14.589,14.589,0,0,1-4.947-2.964,14.248,14.248,0,0,1-3.433-4.862,16.435,16.435,0,0,1-1.28-6.7,15.311,15.311,0,0,1,1.3-6.375,15.773,15.773,0,0,1,3.455-4.948,15.428,15.428,0,0,1,4.947-3.2,15.4,15.4,0,0,1,5.822-1.13,17.263,17.263,0,0,1,4.371.49,16.55,16.55,0,0,1,3.349,1.259l1.919-2h.469v9.852h-.6a18.475,18.475,0,0,0-4.244-6.526,8.1,8.1,0,0,0-5.651-2.26,8.259,8.259,0,0,0-3.5.789,8.006,8.006,0,0,0-3.028,2.559,14.181,14.181,0,0,0-2.133,4.586,24.938,24.938,0,0,0-.81,6.823,23.766,23.766,0,0,0,.853,6.824,13.94,13.94,0,0,0,2.239,4.584,8.589,8.589,0,0,0,3.135,2.58,8.431,8.431,0,0,0,3.583.811,8.738,8.738,0,0,0,5.8-1.791v-8.062a2.631,2.631,0,0,0-.981-2.132,6.511,6.511,0,0,0-3.753-.9v-.554h12.923v.554a4.233,4.233,0,0,0-2.666.726,3.159,3.159,0,0,0-.66,2.3v7.849a17.518,17.518,0,0,1-5.055,2.09,22.958,22.958,0,0,1-5.608.725A17.139,17.139,0,0,1-1958.825-4278.825Zm47.739.916-19.4-25.546h-.043v17.784a13.473,13.473,0,0,0,.235,2.709,4.573,4.573,0,0,0,.852,1.92,4.28,4.28,0,0,0,1.686,1.257,9.888,9.888,0,0,0,2.687.682v.556h-11.686v-.556a9.817,9.817,0,0,0,2.494-.724,4.252,4.252,0,0,0,1.6-1.237,4.737,4.737,0,0,0,.853-1.9,12.423,12.423,0,0,0,.256-2.709v-17.145a5.7,5.7,0,0,0-.3-1.855,4.074,4.074,0,0,0-.937-1.536,4.761,4.761,0,0,0-1.621-1.066,7.411,7.411,0,0,0-2.345-.49v-.512h9.083l16.931,22.519h.043V-4301.2a10.707,10.707,0,0,0-.3-2.707,4.893,4.893,0,0,0-.96-1.92,4.594,4.594,0,0,0-1.77-1.258,10.584,10.584,0,0,0-2.686-.683v-.512h11.729v.512a9.5,9.5,0,0,0-2.474.725,3.942,3.942,0,0,0-1.535,1.237,4.684,4.684,0,0,0-.768,1.9,14.864,14.864,0,0,0-.213,2.707v23.286Zm172.138-.725a3.7,3.7,0,0,1-1.706-.959,3.79,3.79,0,0,1-.917-1.685,17.5,17.5,0,0,1-.448-2.473l-.426-3.925a12.136,12.136,0,0,0-.534-2.665,3.724,3.724,0,0,0-1.087-1.663,4.12,4.12,0,0,0-1.919-.854,16.2,16.2,0,0,0-3.029-.235h-3.241v11.175a2.408,2.408,0,0,0,.9,2.046,6.785,6.785,0,0,0,3.583.768v.556h-14.117v-.556a13.2,13.2,0,0,0,2.3-.233,3.836,3.836,0,0,0,1.408-.555,2.012,2.012,0,0,0,.725-.874,2.979,2.979,0,0,0,.213-1.151v-23.031a2.4,2.4,0,0,0-.938-2.005,6.916,6.916,0,0,0-3.71-.81v-.512h13.434a24.222,24.222,0,0,1,5.587.554,11.507,11.507,0,0,1,3.753,1.536,6.086,6.086,0,0,1,2.111,2.3,6.212,6.212,0,0,1,.662,2.815,6.42,6.42,0,0,1-2.069,4.775q-2.068,2.005-6.972,2.731v.127a12.935,12.935,0,0,1,3.88.64,6.388,6.388,0,0,1,2.452,1.492,6.1,6.1,0,0,1,1.387,2.26,14.494,14.494,0,0,1,.683,2.942l.3,2.432a12.868,12.868,0,0,0,.513,2.26,3.167,3.167,0,0,0,.81,1.323,2.658,2.658,0,0,0,1.386.618,13.6,13.6,0,0,0,2.239.149v.512a17.208,17.208,0,0,1-2.218.362q-1.109.108-2.174.106A10.723,10.723,0,0,1-1738.948-4278.634Zm-13.306-15.268h3.582a11.229,11.229,0,0,0,3.476-.447,4.717,4.717,0,0,0,2.111-1.323,4.725,4.725,0,0,0,1.045-2.175,14.513,14.513,0,0,0,.277-3.007,9.637,9.637,0,0,0-.362-2.75,4.819,4.819,0,0,0-1.215-2.069,5.684,5.684,0,0,0-2.282-1.323,11.771,11.771,0,0,0-3.6-.469h-3.028Zm-96.307,15.268a3.691,3.691,0,0,1-1.706-.959,3.781,3.781,0,0,1-.917-1.685,17.359,17.359,0,0,1-.448-2.473l-.427-3.925a12.17,12.17,0,0,0-.533-2.665,3.74,3.74,0,0,0-1.087-1.663,4.119,4.119,0,0,0-1.92-.854,16.191,16.191,0,0,0-3.028-.235h-3.242v11.175a2.408,2.408,0,0,0,.9,2.046,6.78,6.78,0,0,0,3.583.768v.556h-14.117v-.556a13.211,13.211,0,0,0,2.3-.233,3.827,3.827,0,0,0,1.407-.555,2.006,2.006,0,0,0,.725-.874,2.965,2.965,0,0,0,.214-1.151v-23.031a2.4,2.4,0,0,0-.939-2.005,6.91,6.91,0,0,0-3.71-.81v-.512h13.434a24.224,24.224,0,0,1,5.588.554,11.51,11.51,0,0,1,3.753,1.536,6.087,6.087,0,0,1,2.111,2.3,6.224,6.224,0,0,1,.662,2.815,6.421,6.421,0,0,1-2.069,4.775q-2.069,2.005-6.973,2.731v.127a12.937,12.937,0,0,1,3.881.64,6.4,6.4,0,0,1,2.452,1.492,6.119,6.119,0,0,1,1.387,2.26,14.446,14.446,0,0,1,.682,2.942l.3,2.432a12.957,12.957,0,0,0,.513,2.26,3.182,3.182,0,0,0,.81,1.323,2.661,2.661,0,0,0,1.387.618,13.6,13.6,0,0,0,2.239.149v.512a17.187,17.187,0,0,1-2.218.362q-1.109.108-2.175.106A10.708,10.708,0,0,1-1848.562-4278.634Zm-13.307-15.268h3.583a11.236,11.236,0,0,0,3.477-.447,4.716,4.716,0,0,0,2.11-1.323,4.711,4.711,0,0,0,1.045-2.175,14.526,14.526,0,0,0,.277-3.007,9.636,9.636,0,0,0-.363-2.75,4.807,4.807,0,0,0-1.215-2.069,5.676,5.676,0,0,0-2.281-1.323,11.777,11.777,0,0,0-3.6-.469h-3.028Zm205.064,15.354v-.556a14.3,14.3,0,0,0,2.388-.233,4.083,4.083,0,0,0,1.471-.555,1.838,1.838,0,0,0,.726-.874,3.283,3.283,0,0,0,.191-1.151v-9.042l-7.506-13.264a11.793,11.793,0,0,0-.938-1.408,5.235,5.235,0,0,0-1.023-1,5.014,5.014,0,0,0-1.259-.662,13.81,13.81,0,0,0-1.641-.469v-.512h13.733v.512a10.333,10.333,0,0,0-2.452.363,2.205,2.205,0,0,0-1.2.746,1.347,1.347,0,0,0-.17,1.109,6.071,6.071,0,0,0,.618,1.493l6.227,11.3,5.544-9.724a11.9,11.9,0,0,0,1.067-2.154,2.3,2.3,0,0,0,.084-1.493,1.816,1.816,0,0,0-1.023-1,9.172,9.172,0,0,0-2.26-.64v-.512h9.852v.512a12.465,12.465,0,0,0-1.92.533,5.649,5.649,0,0,0-1.642.981,9.98,9.98,0,0,0-1.579,1.727,29.206,29.206,0,0,0-1.726,2.688l-5.843,10.022v9.9a3.266,3.266,0,0,0,.191,1.151,1.84,1.84,0,0,0,.725.874,4.1,4.1,0,0,0,1.471.555,14.339,14.339,0,0,0,2.388.233v.556Zm-37.23,0v-.555a13.292,13.292,0,0,0,2.3-.234,3.813,3.813,0,0,0,1.407-.555,2.014,2.014,0,0,0,.725-.874,2.963,2.963,0,0,0,.213-1.151v-23.031a2.389,2.389,0,0,0-.938-2,6.9,6.9,0,0,0-3.71-.812v-.512h24.736l.128,9.6-.6.085q-.937-2.26-1.812-3.944a11.127,11.127,0,0,0-1.962-2.772,7.088,7.088,0,0,0-2.452-1.621,9.017,9.017,0,0,0-3.285-.534h-5.117v13.095h2.3a9.05,9.05,0,0,0,2.345-.277,4.909,4.909,0,0,0,1.834-.939,5.462,5.462,0,0,0,1.386-1.791,13.624,13.624,0,0,0,1-2.836h.554v12.5h-.554a13.1,13.1,0,0,0-1-2.816,5.776,5.776,0,0,0-1.386-1.791,4.733,4.733,0,0,0-1.834-.959,8.988,8.988,0,0,0-2.345-.277h-2.3v14.2h5.032a11.859,11.859,0,0,0,3.838-.555,7.681,7.681,0,0,0,2.836-1.705,12.011,12.011,0,0,0,2.2-2.921,38.212,38.212,0,0,0,1.961-4.2l.6.043-.213,10.151Zm-17.211,0v-.556q2.388-.211,2.793-1.043t-.96-2.794l-7.463-10.577-2.773,2.73v8.914a4.3,4.3,0,0,0,.15,1.193,1.518,1.518,0,0,0,.6.832,3.615,3.615,0,0,0,1.258.513,10.892,10.892,0,0,0,2.09.233v.556h-13.734v-.556a13.2,13.2,0,0,0,2.3-.233,4.1,4.1,0,0,0,1.408-.534,1.9,1.9,0,0,0,.725-.852,2.99,2.99,0,0,0,.213-1.152v-23.073a2.983,2.983,0,0,0-.213-1.152,1.9,1.9,0,0,0-.725-.854,4.4,4.4,0,0,0-1.408-.554,11.844,11.844,0,0,0-2.3-.256v-.512h13.99v.512a12.237,12.237,0,0,0-2.218.235,3.624,3.624,0,0,0-1.322.532,1.717,1.717,0,0,0-.64.854,3.811,3.811,0,0,0-.171,1.194v12.923l10.108-10.278a9.877,9.877,0,0,0,1.45-1.877,2.578,2.578,0,0,0,.405-1.643,1.746,1.746,0,0,0-.874-1.236,6.148,6.148,0,0,0-2.431-.7v-.512h11.729v.512a12.951,12.951,0,0,0-2.474.7,12.011,12.011,0,0,0-2.238,1.215,24.133,24.133,0,0,0-2.41,1.9q-1.28,1.129-2.9,2.792l-4.35,4.266,9.085,12.625q1.065,1.45,1.813,2.366a11.18,11.18,0,0,0,1.428,1.493,4.765,4.765,0,0,0,1.45.853,9.98,9.98,0,0,0,1.919.447v.556Zm-190.237,0v-.555a13.293,13.293,0,0,0,2.3-.234,3.819,3.819,0,0,0,1.408-.555,2.011,2.011,0,0,0,.725-.874,2.977,2.977,0,0,0,.213-1.151v-23.031a2.39,2.39,0,0,0-.938-2,6.9,6.9,0,0,0-3.711-.812v-.512h24.736l.128,9.6-.6.085q-.938-2.26-1.813-3.944a11.138,11.138,0,0,0-1.962-2.772,7.084,7.084,0,0,0-2.452-1.621,9.022,9.022,0,0,0-3.285-.534h-5.117v13.095h2.3a9.057,9.057,0,0,0,2.346-.277,4.914,4.914,0,0,0,1.833-.939,5.472,5.472,0,0,0,1.387-1.791,13.639,13.639,0,0,0,1-2.836h.554v12.5h-.554a13.116,13.116,0,0,0-1-2.816,5.788,5.788,0,0,0-1.387-1.791,4.737,4.737,0,0,0-1.833-.959,9,9,0,0,0-2.346-.277h-2.3v14.2h5.033a11.861,11.861,0,0,0,3.838-.555,7.675,7.675,0,0,0,2.836-1.705,12,12,0,0,0,2.2-2.921,38.158,38.158,0,0,0,1.962-4.2l.6.043-.213,10.151Zm-84.758,0v-.555a14.412,14.412,0,0,0,2.389-.234,4.067,4.067,0,0,0,1.471-.555,1.833,1.833,0,0,0,.725-.874,3.258,3.258,0,0,0,.192-1.151v-23.031a3.245,3.245,0,0,0-.192-1.151,1.723,1.723,0,0,0-.725-.853,4.674,4.674,0,0,0-1.471-.556,12.841,12.841,0,0,0-2.389-.256v-.512h14.5v.512a12.845,12.845,0,0,0-2.389.256,4.685,4.685,0,0,0-1.471.556,1.732,1.732,0,0,0-.726.853,3.262,3.262,0,0,0-.192,1.151v23.031a3.274,3.274,0,0,0,.192,1.151,1.842,1.842,0,0,0,.726.874,4.074,4.074,0,0,0,1.471.555,14.418,14.418,0,0,0,2.389.234v.555Zm-57.14,0v-.555a13.289,13.289,0,0,0,2.3-.234,3.813,3.813,0,0,0,1.408-.555,2.015,2.015,0,0,0,.725-.874,2.981,2.981,0,0,0,.213-1.151v-23.031a2.392,2.392,0,0,0-.938-2,6.9,6.9,0,0,0-3.711-.812v-.512h24.737l.128,9.6-.6.085q-.938-2.26-1.812-3.944a11.127,11.127,0,0,0-1.962-2.772,7.086,7.086,0,0,0-2.451-1.621,9.023,9.023,0,0,0-3.285-.534h-5.118v13.095h2.3a9.056,9.056,0,0,0,2.346-.277,4.917,4.917,0,0,0,1.833-.939,5.474,5.474,0,0,0,1.386-1.791,13.569,13.569,0,0,0,1-2.836h.555v12.5h-.555a13.051,13.051,0,0,0-1-2.816,5.79,5.79,0,0,0-1.386-1.791,4.741,4.741,0,0,0-1.833-.959,8.994,8.994,0,0,0-2.346-.277h-2.3v14.2h5.034a11.855,11.855,0,0,0,3.837-.555,7.676,7.676,0,0,0,2.836-1.705,11.986,11.986,0,0,0,2.2-2.921,38.341,38.341,0,0,0,1.962-4.2l.6.043-.213,10.151Zm-32.62,0v-.556a13.2,13.2,0,0,0,2.3-.233,3.831,3.831,0,0,0,1.407-.555,2.009,2.009,0,0,0,.725-.874,2.961,2.961,0,0,0,.213-1.151v-23.031a2.393,2.393,0,0,0-.938-2.005,6.913,6.913,0,0,0-3.71-.81v-.512h13.349a20.463,20.463,0,0,1,6.973,1.088,14.241,14.241,0,0,1,5.032,3.007,12.374,12.374,0,0,1,3.05,4.542,15.53,15.53,0,0,1,1.024,5.693,18.69,18.69,0,0,1-.9,5.735,13.541,13.541,0,0,1-2.794,4.927,13.866,13.866,0,0,1-4.841,3.433,17.312,17.312,0,0,1-7.037,1.3Zm9.639-.811h2.857a18.154,18.154,0,0,0,5.374-.682,6.967,6.967,0,0,0,3.476-2.325,10.425,10.425,0,0,0,1.876-4.392,34.155,34.155,0,0,0,.576-6.845,27.554,27.554,0,0,0-.7-6.824,10.333,10.333,0,0,0-2.089-4.265,7.142,7.142,0,0,0-3.477-2.176,17.994,17.994,0,0,0-4.9-.6h-2.985Zm244.755.81v-.554a8.417,8.417,0,0,0,3.967-.789,2.259,2.259,0,0,0,1.108-2.025v-25.548h-1.663a6.156,6.156,0,0,0-4.458,2.133,24.685,24.685,0,0,0-4.116,6.354l-.6-.042.256-9.254h26.144l.256,9.254-.6.042a25.956,25.956,0,0,0-4.095-6.269,6.161,6.161,0,0,0-4.52-2.218h-1.664v25.548a2.258,2.258,0,0,0,1.109,2.025,8.411,8.411,0,0,0,3.966.789v.554Zm-17.855-58.582c10.975-1.513,21.964-2.887,32.959-4.2,10.517-1.324,21.054-2.432,31.583-3.63-.11-7.8-.1-15.6-.138-23.4l.034-12.394.065-10.566-163.319,21.58-.145,16.25h-.33l-.148-16.524,0-.27.272-.039,165.061-24.41,1.81-.268.011,1.853.076,12.393.034,12.394c-.038,8.261-.022,16.523-.155,24.785l-.023,1.43-1.376.117c-11.032.941-22.052,2-33.1,2.82-11.038.889-22.081,1.718-33.137,2.408Z" transform="translate(2076.5 4395.579)" fill="#78736b" stroke="rgba(0,0,0,0)" stroke-width="1"/>
</svg>
