<?xml version="1.0" encoding="UTF-8"?>
<!DOCTYPE svg PUBLIC "-//W3C//DTD SVG 1.1//EN" "http://www.w3.org/Graphics/SVG/1.1/DTD/svg11.dtd">
<!-- Creator: CorelDRAW 2021 (64-Bit) -->
<svg xmlns="http://www.w3.org/2000/svg" xml:space="preserve" width="0.491406in" height="0.491417in" version="1.1" style="shape-rendering:geometricPrecision; text-rendering:geometricPrecision; image-rendering:optimizeQuality; fill-rule:evenodd; clip-rule:evenodd"
viewBox="0 0 86.1 86.1"
 xmlns:xlink="http://www.w3.org/1999/xlink"
 xmlns:xodm="http://www.corel.com/coreldraw/odm/2003">
 <defs>
  <style type="text/css">
   <![CDATA[
    .fil2 {fill:url(#id0)}
    .fil1 {fill:url(#id1)}
    .fil0 {fill:url(#id2)}
   ]]>
  </style>
  <linearGradient id="id0" gradientUnits="userSpaceOnUse" x1="4.2" y1="5.86" x2="82.29" y2="80.6">
   <stop offset="0" style="stop-opacity:1; stop-color:#F9D889"/>
   <stop offset="0.211765" style="stop-opacity:1; stop-color:#FBB257"/>
   <stop offset="0.380392" style="stop-opacity:1; stop-color:#F0647C"/>
   <stop offset="0.521569" style="stop-opacity:1; stop-color:#E5509A"/>
   <stop offset="0.741176" style="stop-opacity:1; stop-color:#7A57A2"/>
   <stop offset="1" style="stop-opacity:1; stop-color:#5261AA"/>
  </linearGradient>
  <linearGradient id="id1" gradientUnits="userSpaceOnUse" xlink:href="#id0" x1="4.37" y1="5.69" x2="82.46" y2="80.43">
  </linearGradient>
  <linearGradient id="id2" gradientUnits="userSpaceOnUse" xlink:href="#id0" x1="26.4" y1="-17.33" x2="104.49" y2="57.41">
  </linearGradient>
 </defs>
 <g id="Layer_x0020_1">
  <metadata id="CorelCorpID_0Corel-Layer"/>
  <path class="fil0" d="M65.85 15.37c-2.79,0 -5.05,2.26 -5.05,5.05 0,2.79 2.26,5.05 5.05,5.05 2.79,0 5.05,-2.26 5.05,-5.05 0,-2.79 -2.26,-5.05 -5.05,-5.05z"/>
  <path class="fil1" d="M43.41 56.63c-7.49,0 -13.58,-6.09 -13.58,-13.58 0,-7.49 6.09,-13.58 13.58,-13.58 7.49,0 13.58,6.09 13.58,13.58 0,7.49 -6.09,13.58 -13.58,13.58zm0 -34.79c-11.69,0 -21.21,9.51 -21.21,21.21 0,11.69 9.51,21.2 21.21,21.2 11.69,0 21.2,-9.51 21.2,-21.2 0,-11.69 -9.51,-21.21 -21.2,-21.21z"/>
  <path class="fil2" d="M25.86 8.1c-9.79,0 -17.76,7.97 -17.76,17.76l0 34.38c0,9.8 7.97,17.76 17.76,17.76l34.38 0c9.79,0 17.76,-7.97 17.76,-17.76l0 -34.38c0,-9.79 -7.97,-17.76 -17.76,-17.76l-34.38 0zm34.38 78l-34.38 0c-14.26,0 -25.86,-11.6 -25.86,-25.86l0 -34.38c0,-14.26 11.6,-25.86 25.86,-25.86l34.38 0c14.26,0 25.86,11.6 25.86,25.86l0 34.38c0,14.26 -11.6,25.86 -25.86,25.86z"/>
 </g>
</svg>
