<?xml version="1.0" encoding="UTF-8"?>
<!DOCTYPE svg PUBLIC "-//W3C//DTD SVG 1.1//EN" "http://www.w3.org/Graphics/SVG/1.1/DTD/svg11.dtd">
<!-- Creator: CorelDRAW 2021 (64-Bit) -->
<svg xmlns="http://www.w3.org/2000/svg" xml:space="preserve" width="2.3622in" height="2.3622in" version="1.1" style="shape-rendering:geometricPrecision; text-rendering:geometricPrecision; image-rendering:optimizeQuality; fill-rule:evenodd; clip-rule:evenodd"
viewBox="0 0 2110.16 2110.16"
 xmlns:xlink="http://www.w3.org/1999/xlink"
 xmlns:xodm="http://www.corel.com/coreldraw/odm/2003">
 <defs>
  <style type="text/css">
   <![CDATA[
    .fil0 {fill:#516FFF}
    .fil1 {fill:white}
   ]]>
  </style>
 </defs>
 <g id="Layer_x0020_1">
  <metadata id="CorelCorpID_0Corel-Layer"/>
  <g id="_1877227109680">
   <g>
    <path class="fil0" d="M752.06 794.69l606.88 0 0 103.4 -606.88 0 0 -103.4zm0 153.2l606.88 0 0 103.4 -606.88 0 0 -103.4zm0 146.02l404.73 0 0 103.4 -404.73 0 0 -103.4z"/>
    <path class="fil0" d="M1055.08 0c582.83,0 1055.08,472.25 1055.08,1055.08 0,582.83 -472.25,1055.08 -1055.08,1055.08 -582.83,0 -1055.08,-472.25 -1055.08,-1055.08 0,-582.83 472.25,-1055.08 1055.08,-1055.08zm-292.47 1400.3l-213.13 206.8 0 -891.33c0,-68.79 56.13,-125.34 124.92,-125.34l768.1 0c68.79,0 125.34,56.55 125.34,125.34l0 559.19c0,68.79 -56.55,125.34 -125.34,125.34l-679.89 0z"/>
   </g>
  </g>
  <path class="fil1" d="M762.61 1400.3l-213.13 206.8 0 -891.33c0,-68.79 56.13,-125.34 124.92,-125.34l768.1 0c68.79,0 125.34,56.55 125.34,125.34l0 559.19c0,68.79 -56.55,125.34 -125.34,125.34l-679.89 0zm-10.55 -605.62l606.88 0 0 103.4 -606.88 0 0 -103.4zm0 153.2l606.88 0 0 103.4 -606.88 0 0 -103.4zm0 146.02l404.73 0 0 103.4 -404.73 0 0 -103.4z"/>
 </g>
</svg>
