<svg xmlns="http://www.w3.org/2000/svg" width="416.681" height="59.347" viewBox="0 0 416.681 59.347">
  <path id="NY_Times" data-name="NY Times" d="M-212.421-4315.4c-.354-1.188-1.16-1.521-3.777-1.231-5.713.65-12.544,3.418-17.133,1.5-2.365-.983-4.038-3.942-3.876-6.847.118-4.181,4.945-5.831,4.945-5.831l0-15.464c-.137-.615-2.714-.453-3.276.685-.856,1.719,1.064,2.5,1.064,2.5a3.447,3.447,0,0,1-2.926-1.3,4.872,4.872,0,0,1-.242-5.822c1.451-2.008,3.19-2.358,5.383-2.6v-9.122c0-2.341-.952-3.65-2.493-3.684-2.218-.051-2.744,3.078-2.744,3.078a5.844,5.844,0,0,1,1.614-4.6,6.481,6.481,0,0,1,6.56-2.145,5.52,5.52,0,0,1,4.388,5.82v32.269s1.291.154,2.177.352c1.028.212,2,.487,2,.487v-38.911h.425v5.248l7.007-5.642,5.132,4.564,2.394-2.067.272.324-2.5,2.154v30c-.124,1.958-.439,3.948-2.288,5.1-4.123,2.445-9.1-.376-13.527-1.017-3.289-.488-8.451-1.111-9.747,1.905a2.8,2.8,0,0,0,1.1,3.521c1.484.992,5.508.175,9.746-.642,4.311-.832,8.845-1.662,11.151-.589,4.168,1.939,4.153,5.009,3.509,7.121-1.083,3.957-6.08,4.65-6.08,4.65S-211.725-4313.046-212.421-4315.4Zm-7.912-27.747v15.917a4.314,4.314,0,0,0,3.515-.677,4.046,4.046,0,0,0,1.473-3.264v-12.02a3.413,3.413,0,0,0-2.471-1.23A3.536,3.536,0,0,0-220.334-4343.142Zm0-.709a3.661,3.661,0,0,1,2.509-1.1,3.627,3.627,0,0,1,2.479,1.042v-4.684a3.562,3.562,0,0,1-2.479,1.094,3.662,3.662,0,0,1-2.509-1.1Zm0-16.6v11.138a3.542,3.542,0,0,0,2.517,1.265,3.425,3.425,0,0,0,2.471-1.213v-9.514l-3.365-2.958Zm-157.742,39.774a6.918,6.918,0,0,0,4.345-2.771c1.8-2.059,1.808-6.324,1.832-9.742-.009-3.206,0-12.867,0-12.867l-3.188-3.958-2.138,1.821-.017,14.917,1.825,1.812,1.724-1.366.267.333-7.337,5.837-4.66-4.333-1.673,1.249-.237-.359,3.465-2.574v-26.772a2.124,2.124,0,0,0-1.558-2.077l8.185-6.326v19.113l6.55-5.624,5.106,5.675,2.212-1.667.262.334-2.248,1.717v11.857l-.149,5.429a10.089,10.089,0,0,1-5.261,9.324,11.326,11.326,0,0,1-5.1,1.277A9.225,9.225,0,0,1-378.076-4320.678Zm43.853-4.129a6.519,6.519,0,0,1-.157-6.8c2.039-3.872,6.556-4.025,7.967-4.01v-9.685c-.106-.59-3.039-.359-3.439,1.051a2.1,2.1,0,0,0,1.048,2.368,4.321,4.321,0,0,1-2.224-.8,5.632,5.632,0,0,1-2.061-4.292c.282-4.8,4.9-5.009,6.673-5.129v-6.863c-.689-1.188-1.584-2.77-3.3-2.795-1.915-.026-2.392,3.068-2.392,3.068s-.347-.642-.033-3.419a6.121,6.121,0,0,1,5.836-5.3,6.746,6.746,0,0,1,5.8,3.7l13.044,23.7v-18.7a8.294,8.294,0,0,1-5.882-2.5l-1.938,2.213-.323-.291,6.765-7.709a6.235,6.235,0,0,0,4.5,2.051,3.666,3.666,0,0,0,3.611-3.333c.372.367,1.755,4.163-1.631,7.642a8.022,8.022,0,0,1-4.669,1.931l0,32.234s.149.5-.473.5c-.722,0-.892-.366-.892-.366l-17.584-32.03v22.789a11.846,11.846,0,0,1,7.08,3.813l1.818-2.035.326.292-6.77,7.479c-1.537-1.8-3.358-2.641-5.139-2.394a3.2,3.2,0,0,0-2.619,2.9c-.034,1.4,1.2,3.18,4.129,3.513a8.676,8.676,0,0,1-1.471.13A6.694,6.694,0,0,1-334.223-4324.807Zm312.292-3.53c-.765-3.309,1.531-5.548,5-9.07l-4.1-3.744v-7.146s3.009-1.5,5.368-2.975,4.772-3.078,4.772-3.078,1.759,2.223,3.748,2.043c3.114-.272,2.969-2.727,2.879-3.307.531.949,1.954,3.769-3.518,10.077l4.457,3.6v9.283a89.491,89.491,0,0,0-10.073,6.266s-2.732-3.419-5.1-1.786c-1.6,1.1-.869,2.966,1.381,3.8a1.1,1.1,0,0,1-.3.035A5.076,5.076,0,0,1-21.93-4328.337Zm7.355-6.241c3.877.8,5.221,4.9,5.221,4.9v-9.429l-2.7-2.352c-2.97,2.984-8.255,7.3-8.91,9.933,0,0,1.917-3.17,5.262-3.17A5.546,5.546,0,0,1-14.575-4334.578Zm-.395-9.215,2.473,2.154s5.371-4.3,7.321-8.283c0,0-2.413,3.274-5.663,2.274a7.808,7.808,0,0,1-4.13-3.574Zm-99.834,17.7a15.8,15.8,0,0,1-10.385-7.181,17.138,17.138,0,0,1-2.517-9.677c.143-6.966,5.325-12.975,11.308-15.215a5.96,5.96,0,0,1,2.052-.547c-.477.325-1.028.744-1.7,1.188a12.588,12.588,0,0,0-4.283,5.727l11.611-5.18v16.234l-9.362,4.692a12.211,12.211,0,0,0,7.083,4.035,11.112,11.112,0,0,0,7.484-1.538v-10.517l-3.656-2.966,3.656-2.965v-7.565a49.654,49.654,0,0,1-5.831-1.239c-2.083-.513-9.028-2.462-10.118-2.625a4.114,4.114,0,0,0-3.25.616,3.228,3.228,0,0,0-.972,3.188,3.582,3.582,0,0,0,.992,1.418,3,3,0,0,1-1.128-.47,5.266,5.266,0,0,1-2.428-4.222,7,7,0,0,1,2.922-6.232,8.8,8.8,0,0,1,6.143-1.547c3.419.487,8.017,2.419,12.112,3.4,1.587.385,2.815.513,3.93-.138a1.93,1.93,0,0,0,.687-2.624c-.872-1.505-2.543-1.47-3.958-1.735a6.041,6.041,0,0,1,2.4-.171,8.207,8.207,0,0,1,4.366,1.88,5.642,5.642,0,0,1,1.282,5.531,5.619,5.619,0,0,1-2.747,3.855,7.293,7.293,0,0,1-3.972,1.111v7.557l3.677,2.974-3.677,2.966v10.293a16.709,16.709,0,0,0,5.968-6.838s.095-.258.308-.744a13.663,13.663,0,0,1-1.345,7.121,13.274,13.274,0,0,1-5.505,6.222,15.789,15.789,0,0,1-7.85,2.288A16.112,16.112,0,0,1-114.8-4326.1Zm-5.732-25.148a15.534,15.534,0,0,0-.992,6.6,16.243,16.243,0,0,0,3.183,8.234l2.524-1.258v-15.677ZM-406.093-4326.1a15.8,15.8,0,0,1-10.385-7.181,17.162,17.162,0,0,1-2.517-9.677c.144-6.966,5.326-12.975,11.308-15.215a5.99,5.99,0,0,1,2.052-.547c-.477.325-1.027.744-1.7,1.188a12.568,12.568,0,0,0-4.281,5.727l11.611-5.18v16.234l-9.364,4.692a12.213,12.213,0,0,0,7.081,4.035,11.113,11.113,0,0,0,7.486-1.538v-10.517l-3.656-2.966,3.658-2.965v-7.565a49.742,49.742,0,0,1-5.833-1.239c-2.082-.513-9.025-2.462-10.117-2.625a4.115,4.115,0,0,0-3.25.616,3.229,3.229,0,0,0-.972,3.188,3.572,3.572,0,0,0,.992,1.418,3,3,0,0,1-1.128-.47,5.268,5.268,0,0,1-2.428-4.222,6.993,6.993,0,0,1,2.921-6.232,8.8,8.8,0,0,1,6.143-1.547c3.419.487,8.017,2.419,12.112,3.4,1.587.385,2.815.513,3.93-.138a1.929,1.929,0,0,0,.686-2.624c-.872-1.505-2.543-1.47-3.958-1.735a6.045,6.045,0,0,1,2.4-.171,8.207,8.207,0,0,1,4.365,1.88,5.64,5.64,0,0,1,1.282,5.531,5.617,5.617,0,0,1-2.745,3.855,7.3,7.3,0,0,1-3.974,1.111v7.557l3.676,2.974-3.677,2.966v10.293a16.7,16.7,0,0,0,5.967-6.838s.094-.258.309-.744a13.677,13.677,0,0,1-1.345,7.121,13.271,13.271,0,0,1-5.505,6.222,15.794,15.794,0,0,1-7.851,2.288A16.121,16.121,0,0,1-406.093-4326.1Zm-5.731-25.148a15.511,15.511,0,0,0-.992,6.6,16.253,16.253,0,0,0,3.183,8.234l2.524-1.258v-15.677Zm143.76,20.25-6.06,4.806-5.575-4.635-2.449,1.778-.249-.35,2.491-1.821v-12.95c.121-5.334-4.885-4.009-4.614-9.668.12-2.487,2.528-4.368,3.742-4.991a6.735,6.735,0,0,1,2.709-.659s-2.282,1.427-1.728,3.479c.854,3.162,6.261,3.444,6.363,7.658v14.7l3.993,3.2,1.05-.82v-15.909l-2.154-2.137,5.544-4.906,5.064,4.487-1.932,2.094v14.1l4.742,3.916.844-.54v-16.967l-2.157-2.018,5.554-5.077,5.192,4.292,2.074-1.838.28.324-4.668,4.1v13.831l-11.946,7.369Zm65.588-1.017-1.8,1.565-.291-.326,1.893-1.65V-4348.3h.025s3.212-1.454,5.921-2.983c2.425-1.368,5.136-2.95,5.136-2.95l7.243,6.292,2.007-1.847.288.325-1.955,1.813v14.763s-3.711,1.966-6.3,3.428-5.355,3.18-5.355,3.18Zm6.263-2.915,5.755,5.206v-15.934l-5.755-5.325Zm155.125,2.711-2.088,1.683-.285-.333,2.14-1.719v-14.959s3.209-1.564,5.6-2.982,5.949-3.582,5.949-3.582l5.253,9.128-10.378,7.635v1.8l5.167,4.837,6.285-4.932.269.325-11.371,9.009Zm6.194-5.676,5.277-3.866-5.277-8.992Zm-266.447,5.676-2.088,1.683-.283-.333,2.14-1.719v-14.959s3.208-1.564,5.6-2.982,5.951-3.582,5.951-3.582l5.252,9.128-10.376,7.635,0,1.8,5.167,4.837,6.284-4.932.269.325L-294.8-4326.3Zm6.2-5.676,5.277-3.866-5.277-8.992Zm-64.441,5.676-2.088,1.683-.284-.333,2.14-1.719v-14.959s3.209-1.564,5.6-2.982,5.951-3.582,5.951-3.582l5.252,9.128-10.376,7.635v1.8l5.165,4.837,6.285-4.932.269.325-11.372,9.009Zm6.2-5.676,5.275-3.866-5.275-8.992Zm192.946,7.059-1.907,1.677-.3-.326,3.327-2.9v-25.97c0-2.512-1.029-4.06-2.374-3.949l8.724-6.129v34.688h0l2.3,2.427,1.745-1.513.274.325-7.03,6.137Zm-17.507-.5-1.959,1.845-.321-.342,2.985-2.693.025-13.711-2.289-3.035-1.967,1.735-.286-.316,6.935-6.231,3.873,4.649,4.325-4.419a6.4,6.4,0,0,0,1.151.795,3.119,3.119,0,0,0,2.828.171,5.324,5.324,0,0,0,1.458-1.127c.146,3.436-1.5,5.855-3.561,6.855-.844.41-3.3,1.2-5.878-1.94v15.883l2.738,2.419,2.286-1.89.264.334-7.158,5.975ZM-79.1-4332l1.543-1.411v-12.36l-3.179-3.6-2.142,1.846-.278-.325,6.9-6,4.755,5.062,6.5-5.087,4.712,5.129,6.728-5.316,4.7,5.274,2.489-1.89.258.342-2.486,1.889v13.993l2.575,2.855,1.679-1.547.293.316-6.915,6.385-5.151-5.617,1.206-1.2v-12.259l-3.665-4.035-1.347,1.095.047,15.01,1.833,1.924-4.989,4.993-4.665-5.25,1.321-1.316v-12.327l-3.514-4.1-1.265,1.009v14.95l2.089,2.164-5.084,5.009Zm-73.617-10.813,8-11.633a6.14,6.14,0,0,0,2.892,1.735c2.5.649,4.678-1.761,4.678-1.761-.417,3.11-1.994,6.641-5.252,7.18-2.869.479-5.538-1.753-5.538-1.753l-.519.8,11.1,16.771,2.221-1.948.287.324-7.62,6.66Zm60.78,11.1-2.1,1.786-.279-.325,2-1.745v-14.13l-2.829-3.351-1.809,1.565-.28-.325,6.544-5.71,4.8,5.6,2.184-1.88.279.325-2.3,1.992v13.813l2.727,3.146,1.943-1.709.278.326-6.6,5.888Zm-3.4-28.226,4.967-4.548,4.038,4.48-4.988,4.529Z" transform="translate(419.5 4370.477)" fill="#78736b" stroke="rgba(0,0,0,0)" stroke-width="1"/>
</svg>
