<svg xmlns="http://www.w3.org/2000/svg" width="427.2" height="80" viewBox="0 0 427.2 80">
  <path id="_5_Stars" data-name="5 Stars" d="M40,13.37l6.609,20.343,21.391,0L50.694,46.29,40,54.058,52.192,50.9,57.3,66.63,40,54.058,22.7,66.63l6.61-20.345L12,33.707l21.392,0ZM0,80H80V0H0ZM126.8,13.37l6.609,20.343,21.391,0L137.494,46.29,126.8,54.058l12.19-3.157L144.1,66.63,126.8,54.058,109.5,66.63l6.61-20.345L98.8,33.707l21.392,0ZM86.8,80h80V0h-80ZM213.6,13.37l6.609,20.343,21.391,0L224.294,46.29,213.6,54.058l12.19-3.157L230.9,66.63,213.6,54.058,196.3,66.63l6.609-20.345L185.6,33.707l21.392,0ZM173.6,80h80V0h-80ZM300.4,13.37l6.609,20.343,21.391,0L311.094,46.29,300.4,54.058l12.19-3.157L317.7,66.63,300.4,54.058,283.1,66.63l6.609-20.345L272.4,33.707l21.392,0ZM260.4,80h80V0h-80ZM387.2,13.37l6.609,20.343,21.391,0L397.894,46.29,387.2,54.058l12.19-3.157L404.5,66.63,387.2,54.058,369.9,66.63l6.609-20.345L359.2,33.707l21.392,0ZM347.2,80h80V0h-80Z" fill="#507e4c"/>
</svg>
