<svg id="Group_59" data-name="Group 59" xmlns="http://www.w3.org/2000/svg" xmlns:xlink="http://www.w3.org/1999/xlink" width="110.76" height="90" viewBox="0 0 110.76 90">
  <defs>
    <clipPath id="clip-path">
      <rect id="Rectangle_25" data-name="Rectangle 25" width="110.76" height="90" fill="none"/>
    </clipPath>
  </defs>
  <g id="Group_58" data-name="Group 58" clip-path="url(#clip-path)">
    <path id="Path_64" data-name="Path 64" d="M99.421,22.406c.068.976.068,1.953.068,2.938C99.489,55.37,76.63,90,34.832,90v-.018A64.331,64.331,0,0,1,0,79.795a46.222,46.222,0,0,0,5.409.328,45.63,45.63,0,0,0,28.222-9.746A22.752,22.752,0,0,1,12.4,54.6a22.651,22.651,0,0,0,10.259-.391A22.726,22.726,0,0,1,4.432,31.931v-.288a22.58,22.58,0,0,0,10.313,2.844A22.752,22.752,0,0,1,7.712,4.146a64.5,64.5,0,0,0,46.833,23.74A22.745,22.745,0,0,1,93.27,7.161,45.6,45.6,0,0,0,107.7,1.644a22.809,22.809,0,0,1-9.989,12.568,45.193,45.193,0,0,0,13.049-3.577A46.165,46.165,0,0,1,99.421,22.406" transform="translate(0 0)" fill="#1d9bf0"/>
  </g>
</svg>
