<svg xmlns="http://www.w3.org/2000/svg" xmlns:xlink="http://www.w3.org/1999/xlink" width="45" height="45" viewBox="0 0 45 45">
  <defs>
    <clipPath id="clip-path">
      <rect id="Rectangle_22" data-name="Rectangle 22" width="22.093" height="22.2" fill="#fff"/>
    </clipPath>
  </defs>
  <g id="Group_71" data-name="Group 71" transform="translate(-347.521 -16)">
    <circle id="Ellipse_1" data-name="Ellipse 1" cx="22.5" cy="22.5" r="22.5" transform="translate(347.521 16)" fill="#25d366"/>
    <g id="Group_72" data-name="Group 72" transform="translate(359.974 27.4)">
      <g id="Group_51" data-name="Group 51" clip-path="url(#clip-path)">
        <path id="Path_62" data-name="Path 62" d="M18.874,3.226A11,11,0,0,0,1.561,16.5L0,22.2l5.832-1.53a10.986,10.986,0,0,0,5.257,1.339h0A11.005,11.005,0,0,0,18.874,3.227ZM11.093,20.151h0a9.132,9.132,0,0,1-4.654-1.274l-.334-.2-3.461.908.924-3.374-.217-.346a9.143,9.143,0,1,1,7.746,4.285ZM16.108,13.3c-.275-.138-1.626-.8-1.878-.894s-.435-.138-.618.138-.71.895-.87,1.078-.321.206-.6.069a7.515,7.515,0,0,1-2.211-1.364,8.284,8.284,0,0,1-1.529-1.9c-.16-.275-.017-.424.12-.561s.275-.321.412-.482a1.873,1.873,0,0,0,.275-.458.506.506,0,0,0-.023-.482c-.069-.138-.618-1.491-.848-2.041s-.45-.463-.618-.472-.343-.01-.527-.01a1.009,1.009,0,0,0-.733.344A3.083,3.083,0,0,0,5.5,8.558,5.348,5.348,0,0,0,6.626,11.4a12.259,12.259,0,0,0,4.7,4.151,15.765,15.765,0,0,0,1.567.579,3.766,3.766,0,0,0,1.731.109,2.831,2.831,0,0,0,1.855-1.307,2.3,2.3,0,0,0,.16-1.307c-.069-.114-.252-.184-.527-.321Z" fill="#fff" fill-rule="evenodd"/>
      </g>
    </g>
  </g>
</svg>
